<svg width="412" height="46" viewBox="0 0 412 46" fill="none" xmlns="http://www.w3.org/2000/svg">
<path d="M20.9834 14.9922V25H19.7188V16.5713L17.1689 17.501V16.3594L20.7852 14.9922H20.9834ZM31.4736 23.9609V25H24.959V24.0908L28.2197 20.4609C28.6208 20.0143 28.9307 19.6361 29.1494 19.3262C29.3727 19.0117 29.5277 18.7314 29.6143 18.4854C29.7054 18.2347 29.751 17.9795 29.751 17.7197C29.751 17.3916 29.6826 17.0954 29.5459 16.8311C29.4137 16.5622 29.2178 16.348 28.958 16.1885C28.6982 16.029 28.3838 15.9492 28.0146 15.9492C27.5726 15.9492 27.2035 16.0358 26.9072 16.209C26.6156 16.3776 26.3968 16.6146 26.251 16.9199C26.1051 17.2253 26.0322 17.5762 26.0322 17.9727H24.7676C24.7676 17.4121 24.8906 16.8994 25.1367 16.4346C25.3828 15.9697 25.7474 15.6006 26.2305 15.3271C26.7135 15.0492 27.3083 14.9102 28.0146 14.9102C28.6436 14.9102 29.1813 15.0218 29.6279 15.2451C30.0745 15.4639 30.4163 15.7738 30.6533 16.1748C30.8949 16.5713 31.0156 17.0361 31.0156 17.5693C31.0156 17.861 30.9655 18.1572 30.8652 18.458C30.7695 18.7542 30.6351 19.0505 30.4619 19.3467C30.2933 19.6429 30.0951 19.9346 29.8672 20.2217C29.6439 20.5088 29.4046 20.7913 29.1494 21.0693L26.4834 23.9609H31.4736ZM33.1592 24.3301C33.1592 24.1159 33.2253 23.9359 33.3574 23.79C33.4941 23.6396 33.6901 23.5645 33.9453 23.5645C34.2005 23.5645 34.3942 23.6396 34.5264 23.79C34.6631 23.9359 34.7314 24.1159 34.7314 24.3301C34.7314 24.5397 34.6631 24.7174 34.5264 24.8633C34.3942 25.0091 34.2005 25.082 33.9453 25.082C33.6901 25.082 33.4941 25.0091 33.3574 24.8633C33.2253 24.7174 33.1592 24.5397 33.1592 24.3301ZM33.166 18.2939C33.166 18.0798 33.2321 17.8997 33.3643 17.7539C33.501 17.6035 33.6969 17.5283 33.9521 17.5283C34.2074 17.5283 34.401 17.6035 34.5332 17.7539C34.6699 17.8997 34.7383 18.0798 34.7383 18.2939C34.7383 18.5036 34.6699 18.6813 34.5332 18.8271C34.401 18.973 34.2074 19.0459 33.9521 19.0459C33.6969 19.0459 33.501 18.973 33.3643 18.8271C33.2321 18.6813 33.166 18.5036 33.166 18.2939ZM38.3174 20.2627L37.3057 20.0029L37.8047 15.0469H42.9111V16.2158H38.8779L38.5771 18.9229C38.7594 18.818 38.9896 18.7201 39.2676 18.6289C39.5501 18.5378 39.8737 18.4922 40.2383 18.4922C40.6986 18.4922 41.111 18.5719 41.4756 18.7314C41.8402 18.8864 42.1501 19.1097 42.4053 19.4014C42.665 19.693 42.8633 20.0439 43 20.4541C43.1367 20.8643 43.2051 21.3223 43.2051 21.8281C43.2051 22.3066 43.139 22.7464 43.0068 23.1475C42.8792 23.5485 42.6855 23.8994 42.4258 24.2002C42.166 24.4964 41.8379 24.7266 41.4414 24.8906C41.0495 25.0547 40.5869 25.1367 40.0537 25.1367C39.6527 25.1367 39.2721 25.082 38.9121 24.9727C38.5566 24.8587 38.2376 24.6878 37.9551 24.46C37.6771 24.2275 37.4492 23.9404 37.2715 23.5986C37.0983 23.2523 36.9889 22.8467 36.9434 22.3818H38.1465C38.2012 22.7555 38.3105 23.07 38.4746 23.3252C38.6387 23.5804 38.8529 23.7741 39.1172 23.9062C39.3861 24.0339 39.6982 24.0977 40.0537 24.0977C40.3545 24.0977 40.6211 24.0452 40.8535 23.9404C41.0859 23.8356 41.2819 23.6852 41.4414 23.4893C41.6009 23.2933 41.7217 23.0563 41.8037 22.7783C41.8903 22.5003 41.9336 22.1882 41.9336 21.8418C41.9336 21.5273 41.8903 21.2357 41.8037 20.9668C41.7171 20.6979 41.5872 20.4632 41.4141 20.2627C41.2454 20.0622 41.0381 19.9072 40.792 19.7979C40.5459 19.6839 40.2633 19.627 39.9443 19.627C39.5205 19.627 39.1992 19.6839 38.9805 19.7979C38.7663 19.9118 38.5452 20.0667 38.3174 20.2627ZM51.3643 23.9609V25H44.8496V24.0908L48.1104 20.4609C48.5114 20.0143 48.8213 19.6361 49.04 19.3262C49.2633 19.0117 49.4183 18.7314 49.5049 18.4854C49.596 18.2347 49.6416 17.9795 49.6416 17.7197C49.6416 17.3916 49.5732 17.0954 49.4365 16.8311C49.3044 16.5622 49.1084 16.348 48.8486 16.1885C48.5889 16.029 48.2744 15.9492 47.9053 15.9492C47.4632 15.9492 47.0941 16.0358 46.7979 16.209C46.5062 16.3776 46.2874 16.6146 46.1416 16.9199C45.9958 17.2253 45.9229 17.5762 45.9229 17.9727H44.6582C44.6582 17.4121 44.7812 16.8994 45.0273 16.4346C45.2734 15.9697 45.638 15.6006 46.1211 15.3271C46.6042 15.0492 47.1989 14.9102 47.9053 14.9102C48.5342 14.9102 49.0719 15.0218 49.5186 15.2451C49.9652 15.4639 50.307 15.7738 50.5439 16.1748C50.7855 16.5713 50.9062 17.0361 50.9062 17.5693C50.9062 17.861 50.8561 18.1572 50.7559 18.458C50.6602 18.7542 50.5257 19.0505 50.3525 19.3467C50.1839 19.6429 49.9857 19.9346 49.7578 20.2217C49.5345 20.5088 49.2952 20.7913 49.04 21.0693L46.374 23.9609H51.3643Z" fill="black"/>
<path d="M350.667 18L358 25.3333L365.334 18C361.28 13.9466 354.72 13.9466 350.667 18Z" fill="black"/>
<path d="M378.666 13.3335L365.333 26.6668H378.666V13.3335Z" fill="black"/>
<path d="M389.594 12.9165H386.406V14.3332H384.812C384.226 14.3332 383.75 14.8089 383.75 15.3957V26.0207C383.75 26.6075 384.226 27.0832 384.812 27.0832H391.188C391.774 27.0832 392.25 26.6075 392.25 26.0207V15.3957C392.25 14.8089 391.774 14.3332 391.188 14.3332H389.594V12.9165Z" fill="black"/>
<rect x="194" y="8" width="24" height="24" rx="12" fill="#2E2E2E"/>
</svg>
