<svg width="106" height="19" viewBox="0 0 106 19" fill="none" xmlns="http://www.w3.org/2000/svg">
<path d="M8.61328 18H5.26172V4.55859H0.210938V1.19531H13.6523V4.55859H8.61328V18ZM19.0469 4.55859V11.2852H22.4102C22.8711 11.2852 23.3047 11.1992 23.7109 11.0273C24.1172 10.8477 24.4727 10.6055 24.7773 10.3008C25.082 9.99609 25.3203 9.64062 25.4922 9.23438C25.6719 8.82031 25.7617 8.38281 25.7617 7.92188C25.7617 7.46094 25.6719 7.02734 25.4922 6.62109C25.3203 6.20703 25.082 5.84766 24.7773 5.54297C24.4727 5.23828 24.1172 5 23.7109 4.82812C23.3047 4.64844 22.8711 4.55859 22.4102 4.55859H19.0469ZM19.0469 18H15.6836V1.19531H22.4102C23.0273 1.19531 23.6211 1.27734 24.1914 1.44141C24.7617 1.59766 25.293 1.82422 25.7852 2.12109C26.2852 2.41016 26.7383 2.76172 27.1445 3.17578C27.5586 3.58203 27.9102 4.03516 28.1992 4.53516C28.4961 5.03516 28.7227 5.57031 28.8789 6.14062C29.043 6.71094 29.125 7.30469 29.125 7.92188C29.125 8.5 29.0508 9.0625 28.9023 9.60938C28.7617 10.1562 28.5547 10.6758 28.2812 11.168C28.0156 11.6602 27.6875 12.1133 27.2969 12.5273C26.9062 12.9414 26.4688 13.3008 25.9844 13.6055L27.8477 18H24.2734L22.8086 14.6133L19.0469 14.6367V18ZM48.0547 9.66797C48.0547 10.4648 47.9492 11.2344 47.7383 11.9766C47.5352 12.7109 47.2461 13.4023 46.8711 14.0508C46.4961 14.6914 46.043 15.2773 45.5117 15.8086C44.9805 16.3398 44.3945 16.7969 43.7539 17.1797C43.1133 17.5547 42.4219 17.8438 41.6797 18.0469C40.9375 18.2578 40.168 18.3633 39.3711 18.3633C38.5742 18.3633 37.8047 18.2578 37.0625 18.0469C36.3281 17.8438 35.6367 17.5547 34.9883 17.1797C34.3477 16.7969 33.7617 16.3398 33.2305 15.8086C32.6992 15.2773 32.2422 14.6914 31.8594 14.0508C31.4844 13.4023 31.1914 12.7109 30.9805 11.9766C30.7773 11.2344 30.6758 10.4648 30.6758 9.66797C30.6758 8.87109 30.7773 8.10156 30.9805 7.35938C31.1914 6.61719 31.4844 5.92578 31.8594 5.28516C32.2422 4.64453 32.6992 4.05859 33.2305 3.52734C33.7617 2.99609 34.3477 2.54297 34.9883 2.16797C35.6367 1.79297 36.3281 1.50391 37.0625 1.30078C37.8047 1.08984 38.5742 0.984375 39.3711 0.984375C40.168 0.984375 40.9375 1.08984 41.6797 1.30078C42.4219 1.50391 43.1133 1.79297 43.7539 2.16797C44.3945 2.54297 44.9805 2.99609 45.5117 3.52734C46.043 4.05859 46.4961 4.64453 46.8711 5.28516C47.2461 5.92578 47.5352 6.61719 47.7383 7.35938C47.9492 8.10156 48.0547 8.87109 48.0547 9.66797ZM44.7148 9.66797C44.7148 8.93359 44.5742 8.24219 44.293 7.59375C44.0117 6.9375 43.6289 6.37109 43.1445 5.89453C42.668 5.41016 42.1016 5.02734 41.4453 4.74609C40.7969 4.46484 40.1055 4.32422 39.3711 4.32422C38.6289 4.32422 37.9336 4.46484 37.2852 4.74609C36.6367 5.02734 36.0703 5.41016 35.5859 5.89453C35.1016 6.37109 34.7188 6.9375 34.4375 7.59375C34.1562 8.24219 34.0156 8.93359 34.0156 9.66797C34.0156 10.4023 34.1562 11.0938 34.4375 11.7422C34.7188 12.3828 35.1016 12.9453 35.5859 13.4297C36.0703 13.9141 36.6367 14.2969 37.2852 14.5781C37.9336 14.8594 38.6289 15 39.3711 15C40.1055 15 40.7969 14.8594 41.4453 14.5781C42.1016 14.2969 42.668 13.9141 43.1445 13.4297C43.6289 12.9453 44.0117 12.3828 44.293 11.7422C44.5742 11.0938 44.7148 10.4023 44.7148 9.66797ZM57.1758 11.2852C57.1758 12.2148 57 13.0898 56.6484 13.9102C56.2969 14.7227 55.8164 15.4336 55.207 16.043C54.6055 16.6445 53.8945 17.1211 53.0742 17.4727C52.2617 17.8242 51.3906 18 50.4609 18C49.8984 18 49.3359 17.9297 48.7734 17.7891V14.1797C49.0234 14.3281 49.293 14.4414 49.582 14.5195C49.8711 14.5977 50.1641 14.6367 50.4609 14.6367C50.9219 14.6367 51.3555 14.5508 51.7617 14.3789C52.1758 14.1992 52.5352 13.957 52.8398 13.6523C53.1445 13.3477 53.3828 12.9922 53.5547 12.5859C53.7344 12.1797 53.8242 11.7461 53.8242 11.2852V1.19531H57.1758V11.2852ZM70.1289 11.2852V7.92188C70.1289 7.46094 70.0391 7.02734 69.8594 6.62109C69.6875 6.20703 69.4492 5.84766 69.1445 5.54297C68.8398 5.23828 68.4805 5 68.0664 4.82812C67.6602 4.64844 67.2266 4.55859 66.7656 4.55859C66.3047 4.55859 65.8672 4.64844 65.4531 4.82812C65.0469 5 64.6914 5.23828 64.3867 5.54297C64.082 5.84766 63.8398 6.20703 63.6602 6.62109C63.4883 7.02734 63.4023 7.46094 63.4023 7.92188V11.2852H70.1289ZM73.4922 18H70.1289V14.6367H63.4023V18H60.0508V7.92188C60.0508 6.99219 60.2266 6.12109 60.5781 5.30859C60.9297 4.48828 61.4062 3.77344 62.0078 3.16406C62.6172 2.55469 63.3281 2.07422 64.1406 1.72266C64.9609 1.37109 65.8359 1.19531 66.7656 1.19531C67.6953 1.19531 68.5664 1.37109 69.3789 1.72266C70.1992 2.07422 70.9141 2.55469 71.5234 3.16406C72.1328 3.77344 72.6133 4.48828 72.9648 5.30859C73.3164 6.12109 73.4922 6.99219 73.4922 7.92188V18ZM90.1016 18H86.5039L80.0234 6.9375V18H76.6602V1.19531H80.2578L86.7383 12.2695V1.19531H90.1016V18ZM92.4961 6.23438C92.4961 5.53906 92.6289 4.88672 92.8945 4.27734C93.1602 3.66797 93.5195 3.13672 93.9727 2.68359C94.4336 2.22266 94.9688 1.85938 95.5781 1.59375C96.1875 1.32812 96.8398 1.19531 97.5352 1.19531H105.246V4.55859H97.5352C97.3008 4.55859 97.082 4.60156 96.8789 4.6875C96.6758 4.77344 96.4961 4.89453 96.3398 5.05078C96.1914 5.19922 96.0742 5.375 95.9883 5.57812C95.9023 5.78125 95.8594 6 95.8594 6.23438C95.8594 6.46875 95.9023 6.69141 95.9883 6.90234C96.0742 7.10547 96.1914 7.28516 96.3398 7.44141C96.4961 7.58984 96.6758 7.70703 96.8789 7.79297C97.082 7.87891 97.3008 7.92188 97.5352 7.92188H100.898C101.594 7.92188 102.246 8.05469 102.855 8.32031C103.473 8.57812 104.008 8.9375 104.461 9.39844C104.922 9.85156 105.281 10.3867 105.539 11.0039C105.805 11.6133 105.938 12.2656 105.938 12.9609C105.938 13.6562 105.805 14.3086 105.539 14.918C105.281 15.5273 104.922 16.0625 104.461 16.5234C104.008 16.9766 103.473 17.3359 102.855 17.6016C102.246 17.8672 101.594 18 100.898 18H93.4336V14.6367H100.898C101.133 14.6367 101.352 14.5938 101.555 14.5078C101.758 14.4219 101.934 14.3047 102.082 14.1562C102.238 14 102.359 13.8203 102.445 13.6172C102.531 13.4141 102.574 13.1953 102.574 12.9609C102.574 12.7266 102.531 12.5078 102.445 12.3047C102.359 12.1016 102.238 11.9258 102.082 11.7773C101.934 11.6211 101.758 11.5 101.555 11.4141C101.352 11.3281 101.133 11.2852 100.898 11.2852H97.5352C96.8398 11.2852 96.1875 11.1523 95.5781 10.8867C94.9688 10.6211 94.4336 10.2617 93.9727 9.80859C93.5195 9.34766 93.1602 8.8125 92.8945 8.20312C92.6289 7.58594 92.4961 6.92969 92.4961 6.23438Z" fill="black"/>
</svg>
