<svg width="368" height="104" viewBox="0 0 368 104" fill="none" xmlns="http://www.w3.org/2000/svg">
<g filter="url(#filter0_dd_16_11334)">
<rect x="10" y="10" width="60" height="60" rx="30" fill="#003731"/>
<path d="M54.325 38.5H47.38C48.805 36.91 49.69 34.81 49.69 32.5C49.69 27.535 45.655 23.5 40.69 23.5C39.475 23.5 38.5 24.475 38.5 25.675V32.62C36.91 31.195 34.81 30.325 32.5 30.325C27.535 30.325 23.5 34.36 23.5 39.325C23.5 40.525 24.475 41.5 25.69 41.5H32.635C31.21 43.09 30.325 45.19 30.325 47.5C30.325 52.465 34.36 56.5 39.325 56.5C40.525 56.5 41.5 55.525 41.5 54.325V47.38C43.09 48.805 45.19 49.69 47.5 49.69C52.465 49.69 56.5 45.655 56.5 40.69C56.5 39.475 55.525 38.5 54.325 38.5ZM41.5 26.56C44.425 26.95 46.69 29.47 46.69 32.5C46.69 35.53 44.425 38.05 41.515 38.44V26.56H41.5ZM32.5 33.325C35.53 33.325 38.05 35.59 38.44 38.5H26.56C26.95 35.575 29.47 33.325 32.5 33.325ZM38.5 53.44C35.575 53.05 33.325 50.53 33.325 47.5C33.325 44.47 35.59 41.95 38.5 41.56V53.44ZM47.5 46.675C44.47 46.675 41.95 44.41 41.56 41.5H53.455C53.05 44.425 50.53 46.675 47.5 46.675Z" fill="#54DBC7"/>
</g>
<path d="M21.3867 87.2881H18.7959V85.9277H21.3867C21.8379 85.9277 22.2025 85.8548 22.4805 85.709C22.7585 85.5632 22.9613 85.3626 23.0889 85.1074C23.221 84.8477 23.2871 84.5514 23.2871 84.2188C23.2871 83.9043 23.221 83.6104 23.0889 83.3369C22.9613 83.0589 22.7585 82.8356 22.4805 82.667C22.2025 82.4984 21.8379 82.4141 21.3867 82.4141H19.3223V91H17.6064V81.0469H21.3867C22.1569 81.0469 22.8109 81.1836 23.3486 81.457C23.891 81.7259 24.3034 82.0996 24.5859 82.5781C24.8685 83.0521 25.0098 83.5944 25.0098 84.2051C25.0098 84.8477 24.8685 85.3991 24.5859 85.8594C24.3034 86.3197 23.891 86.6729 23.3486 86.9189C22.8109 87.165 22.1569 87.2881 21.3867 87.2881ZM28.5107 80.5V91H26.8701V80.5H28.5107ZM28.2236 87.0283L27.6904 87.0215C27.695 86.5111 27.7656 86.0394 27.9023 85.6064C28.0436 85.1735 28.2396 84.7975 28.4902 84.4785C28.7454 84.1549 29.0508 83.9066 29.4062 83.7334C29.7617 83.5557 30.1559 83.4668 30.5889 83.4668C30.9535 83.4668 31.2816 83.5169 31.5732 83.6172C31.8695 83.7174 32.1247 83.8792 32.3389 84.1025C32.5531 84.3213 32.7148 84.6084 32.8242 84.9639C32.9382 85.3148 32.9951 85.7432 32.9951 86.249V91H31.3408V86.2354C31.3408 85.8799 31.2884 85.5973 31.1836 85.3877C31.0833 85.1781 30.9352 85.0277 30.7393 84.9365C30.5433 84.8408 30.304 84.793 30.0215 84.793C29.7253 84.793 29.4632 84.8522 29.2354 84.9707C29.012 85.0892 28.8252 85.251 28.6748 85.4561C28.5244 85.6611 28.4105 85.8981 28.333 86.167C28.2601 86.4359 28.2236 86.723 28.2236 87.0283ZM34.8486 87.3838V87.2266C34.8486 86.6934 34.9261 86.1989 35.0811 85.7432C35.236 85.2829 35.4593 84.8841 35.751 84.5469C36.0472 84.2051 36.4072 83.9408 36.8311 83.7539C37.2594 83.5625 37.7425 83.4668 38.2803 83.4668C38.8226 83.4668 39.3057 83.5625 39.7295 83.7539C40.1579 83.9408 40.5202 84.2051 40.8164 84.5469C41.1126 84.8841 41.3382 85.2829 41.4932 85.7432C41.6481 86.1989 41.7256 86.6934 41.7256 87.2266V87.3838C41.7256 87.917 41.6481 88.4115 41.4932 88.8672C41.3382 89.3229 41.1126 89.7217 40.8164 90.0635C40.5202 90.4007 40.1602 90.665 39.7363 90.8564C39.3125 91.0433 38.8317 91.1367 38.2939 91.1367C37.7516 91.1367 37.2663 91.0433 36.8379 90.8564C36.4141 90.665 36.054 90.4007 35.7578 90.0635C35.4616 89.7217 35.236 89.3229 35.0811 88.8672C34.9261 88.4115 34.8486 87.917 34.8486 87.3838ZM36.4961 87.2266V87.3838C36.4961 87.7165 36.5303 88.0309 36.5986 88.3271C36.667 88.6234 36.7741 88.8831 36.9199 89.1064C37.0658 89.3298 37.2526 89.5052 37.4805 89.6328C37.7083 89.7604 37.9795 89.8242 38.2939 89.8242C38.5993 89.8242 38.8636 89.7604 39.0869 89.6328C39.3148 89.5052 39.5016 89.3298 39.6475 89.1064C39.7933 88.8831 39.9004 88.6234 39.9688 88.3271C40.0417 88.0309 40.0781 87.7165 40.0781 87.3838V87.2266C40.0781 86.8984 40.0417 86.5885 39.9688 86.2969C39.9004 86.0007 39.791 85.7386 39.6406 85.5107C39.4948 85.2829 39.3079 85.1051 39.0801 84.9775C38.8568 84.8454 38.5902 84.7793 38.2803 84.7793C37.9704 84.7793 37.7015 84.8454 37.4736 84.9775C37.2503 85.1051 37.0658 85.2829 36.9199 85.5107C36.7741 85.7386 36.667 86.0007 36.5986 86.2969C36.5303 86.5885 36.4961 86.8984 36.4961 87.2266ZM46.9971 83.6035V84.8066H42.8271V83.6035H46.9971ZM44.0303 81.792H45.6777V88.9561C45.6777 89.1839 45.7096 89.3594 45.7734 89.4824C45.8418 89.6009 45.9352 89.6807 46.0537 89.7217C46.1722 89.7627 46.3112 89.7832 46.4707 89.7832C46.5846 89.7832 46.694 89.7764 46.7988 89.7627C46.9036 89.749 46.988 89.7354 47.0518 89.7217L47.0586 90.9795C46.9219 91.0205 46.7624 91.057 46.5801 91.0889C46.4023 91.1208 46.1973 91.1367 45.9648 91.1367C45.5866 91.1367 45.2516 91.0706 44.96 90.9385C44.6683 90.8018 44.4404 90.5807 44.2764 90.2754C44.1123 89.9701 44.0303 89.5645 44.0303 89.0586V81.792ZM48.29 87.3838V87.2266C48.29 86.6934 48.3675 86.1989 48.5225 85.7432C48.6774 85.2829 48.9007 84.8841 49.1924 84.5469C49.4886 84.2051 49.8486 83.9408 50.2725 83.7539C50.7008 83.5625 51.1839 83.4668 51.7217 83.4668C52.264 83.4668 52.7471 83.5625 53.1709 83.7539C53.5993 83.9408 53.9616 84.2051 54.2578 84.5469C54.554 84.8841 54.7796 85.2829 54.9346 85.7432C55.0895 86.1989 55.167 86.6934 55.167 87.2266V87.3838C55.167 87.917 55.0895 88.4115 54.9346 88.8672C54.7796 89.3229 54.554 89.7217 54.2578 90.0635C53.9616 90.4007 53.6016 90.665 53.1777 90.8564C52.7539 91.0433 52.2731 91.1367 51.7354 91.1367C51.193 91.1367 50.7077 91.0433 50.2793 90.8564C49.8555 90.665 49.4954 90.4007 49.1992 90.0635C48.903 89.7217 48.6774 89.3229 48.5225 88.8672C48.3675 88.4115 48.29 87.917 48.29 87.3838ZM49.9375 87.2266V87.3838C49.9375 87.7165 49.9717 88.0309 50.04 88.3271C50.1084 88.6234 50.2155 88.8831 50.3613 89.1064C50.5072 89.3298 50.694 89.5052 50.9219 89.6328C51.1497 89.7604 51.4209 89.8242 51.7354 89.8242C52.0407 89.8242 52.305 89.7604 52.5283 89.6328C52.7562 89.5052 52.943 89.3298 53.0889 89.1064C53.2347 88.8831 53.3418 88.6234 53.4102 88.3271C53.4831 88.0309 53.5195 87.7165 53.5195 87.3838V87.2266C53.5195 86.8984 53.4831 86.5885 53.4102 86.2969C53.3418 86.0007 53.2324 85.7386 53.082 85.5107C52.9362 85.2829 52.7493 85.1051 52.5215 84.9775C52.2982 84.8454 52.0316 84.7793 51.7217 84.7793C51.4118 84.7793 51.1429 84.8454 50.915 84.9775C50.6917 85.1051 50.5072 85.2829 50.3613 85.5107C50.2155 85.7386 50.1084 86.0007 50.04 86.2969C49.9717 86.5885 49.9375 86.8984 49.9375 87.2266ZM61.1973 88.9971C61.1973 88.833 61.1562 88.6849 61.0742 88.5527C60.9922 88.416 60.835 88.293 60.6025 88.1836C60.3747 88.0742 60.0374 87.974 59.5908 87.8828C59.1989 87.7962 58.8389 87.6937 58.5107 87.5752C58.1872 87.4521 57.9092 87.304 57.6768 87.1309C57.4443 86.9577 57.2643 86.7526 57.1367 86.5156C57.0091 86.2786 56.9453 86.0052 56.9453 85.6953C56.9453 85.3945 57.0114 85.1097 57.1436 84.8408C57.2757 84.5719 57.4648 84.335 57.7109 84.1299C57.957 83.9248 58.2555 83.763 58.6064 83.6445C58.9619 83.526 59.3584 83.4668 59.7959 83.4668C60.4157 83.4668 60.9466 83.5716 61.3887 83.7812C61.8353 83.9863 62.1771 84.2666 62.4141 84.6221C62.651 84.973 62.7695 85.3695 62.7695 85.8115H61.1221C61.1221 85.6156 61.0719 85.4333 60.9717 85.2646C60.876 85.0915 60.7301 84.9525 60.5342 84.8477C60.3382 84.7383 60.0921 84.6836 59.7959 84.6836C59.5133 84.6836 59.2786 84.7292 59.0918 84.8203C58.9095 84.9069 58.7728 85.0208 58.6816 85.1621C58.5951 85.3034 58.5518 85.4583 58.5518 85.627C58.5518 85.75 58.5745 85.8617 58.6201 85.9619C58.6702 86.0576 58.7523 86.1465 58.8662 86.2285C58.9801 86.306 59.1351 86.3789 59.3311 86.4473C59.5316 86.5156 59.7822 86.5817 60.083 86.6455C60.6481 86.764 61.1335 86.9167 61.5391 87.1035C61.9492 87.2858 62.2637 87.5228 62.4824 87.8145C62.7012 88.1016 62.8105 88.4661 62.8105 88.9082C62.8105 89.2363 62.7399 89.5371 62.5986 89.8105C62.4619 90.0794 62.2614 90.3141 61.9971 90.5146C61.7327 90.7106 61.416 90.8633 61.0469 90.9727C60.6823 91.082 60.2721 91.1367 59.8164 91.1367C59.1465 91.1367 58.5791 91.0182 58.1143 90.7812C57.6494 90.5397 57.2962 90.2321 57.0547 89.8584C56.8177 89.4801 56.6992 89.0882 56.6992 88.6826H58.292C58.3102 88.988 58.3945 89.2318 58.5449 89.4141C58.6999 89.5918 58.8913 89.7217 59.1191 89.8037C59.3516 89.8812 59.5908 89.9199 59.8369 89.9199C60.1331 89.9199 60.3815 89.8812 60.582 89.8037C60.7826 89.7217 60.9352 89.6123 61.04 89.4756C61.1449 89.3343 61.1973 89.1748 61.1973 88.9971Z" fill="white"/>
<g filter="url(#filter1_dd_16_11334)">
<rect x="106" y="10" width="60" height="60" rx="30" fill="#003731"/>
<path d="M150.37 32.785C150.025 31.495 149.005 30.475 147.715 30.13C145.375 29.5 136 29.5 136 29.5C136 29.5 126.625 29.5 124.285 30.13C122.995 30.475 121.975 31.495 121.63 32.785C121 35.125 121 40 121 40C121 40 121 44.875 121.63 47.215C121.975 48.505 122.995 49.525 124.285 49.87C126.625 50.5 136 50.5 136 50.5C136 50.5 145.375 50.5 147.715 49.87C149.005 49.525 150.025 48.505 150.37 47.215C151 44.875 151 40 151 40C151 40 151 35.125 150.37 32.785ZM133 44.5V35.5L140.8 40L133 44.5Z" fill="#54DBC7"/>
</g>
<path d="M108.975 81.0469L111.285 85.7979L113.596 81.0469H115.496L112.146 87.3359V91H110.417V87.3359L107.067 81.0469H108.975ZM116.153 87.3838V87.2266C116.153 86.6934 116.231 86.1989 116.386 85.7432C116.541 85.2829 116.764 84.8841 117.056 84.5469C117.352 84.2051 117.712 83.9408 118.136 83.7539C118.564 83.5625 119.047 83.4668 119.585 83.4668C120.127 83.4668 120.61 83.5625 121.034 83.7539C121.463 83.9408 121.825 84.2051 122.121 84.5469C122.417 84.8841 122.643 85.2829 122.798 85.7432C122.953 86.1989 123.03 86.6934 123.03 87.2266V87.3838C123.03 87.917 122.953 88.4115 122.798 88.8672C122.643 89.3229 122.417 89.7217 122.121 90.0635C121.825 90.4007 121.465 90.665 121.041 90.8564C120.617 91.0433 120.136 91.1367 119.599 91.1367C119.056 91.1367 118.571 91.0433 118.143 90.8564C117.719 90.665 117.359 90.4007 117.062 90.0635C116.766 89.7217 116.541 89.3229 116.386 88.8672C116.231 88.4115 116.153 87.917 116.153 87.3838ZM117.801 87.2266V87.3838C117.801 87.7165 117.835 88.0309 117.903 88.3271C117.972 88.6234 118.079 88.8831 118.225 89.1064C118.37 89.3298 118.557 89.5052 118.785 89.6328C119.013 89.7604 119.284 89.8242 119.599 89.8242C119.904 89.8242 120.168 89.7604 120.392 89.6328C120.619 89.5052 120.806 89.3298 120.952 89.1064C121.098 88.8831 121.205 88.6234 121.273 88.3271C121.346 88.0309 121.383 87.7165 121.383 87.3838V87.2266C121.383 86.8984 121.346 86.5885 121.273 86.2969C121.205 86.0007 121.096 85.7386 120.945 85.5107C120.799 85.2829 120.613 85.1051 120.385 84.9775C120.161 84.8454 119.895 84.7793 119.585 84.7793C119.275 84.7793 119.006 84.8454 118.778 84.9775C118.555 85.1051 118.37 85.2829 118.225 85.5107C118.079 85.7386 117.972 86.0007 117.903 86.2969C117.835 86.5885 117.801 86.8984 117.801 87.2266ZM129.361 89.2568V83.6035H131.016V91H129.457L129.361 89.2568ZM129.594 87.7188L130.147 87.7051C130.147 88.2018 130.093 88.6598 129.983 89.0791C129.874 89.4938 129.705 89.8561 129.478 90.166C129.25 90.4714 128.958 90.7106 128.603 90.8838C128.247 91.0524 127.821 91.1367 127.324 91.1367C126.964 91.1367 126.634 91.0843 126.333 90.9795C126.032 90.8747 125.772 90.7129 125.554 90.4941C125.34 90.2754 125.173 89.9906 125.055 89.6396C124.936 89.2887 124.877 88.8695 124.877 88.3818V83.6035H126.524V88.3955C126.524 88.6644 126.556 88.89 126.62 89.0723C126.684 89.25 126.771 89.3936 126.88 89.5029C126.989 89.6123 127.117 89.6898 127.263 89.7354C127.409 89.7809 127.563 89.8037 127.728 89.8037C128.197 89.8037 128.566 89.7126 128.835 89.5303C129.108 89.3434 129.302 89.0928 129.416 88.7783C129.535 88.4639 129.594 88.1107 129.594 87.7188ZM137.463 81.0469V91H135.761V81.0469H137.463ZM140.587 81.0469V82.4141H132.664V81.0469H140.587ZM146.111 89.2568V83.6035H147.766V91H146.207L146.111 89.2568ZM146.344 87.7188L146.897 87.7051C146.897 88.2018 146.843 88.6598 146.733 89.0791C146.624 89.4938 146.455 89.8561 146.228 90.166C146 90.4714 145.708 90.7106 145.353 90.8838C144.997 91.0524 144.571 91.1367 144.074 91.1367C143.714 91.1367 143.384 91.0843 143.083 90.9795C142.782 90.8747 142.522 90.7129 142.304 90.4941C142.09 90.2754 141.923 89.9906 141.805 89.6396C141.686 89.2887 141.627 88.8695 141.627 88.3818V83.6035H143.274V88.3955C143.274 88.6644 143.306 88.89 143.37 89.0723C143.434 89.25 143.521 89.3936 143.63 89.5029C143.739 89.6123 143.867 89.6898 144.013 89.7354C144.159 89.7809 144.313 89.8037 144.478 89.8037C144.947 89.8037 145.316 89.7126 145.585 89.5303C145.858 89.3434 146.052 89.0928 146.166 88.7783C146.285 88.4639 146.344 88.1107 146.344 87.7188ZM149.961 80.5H151.608V89.4209L151.451 91H149.961V80.5ZM156.435 87.2334V87.377C156.435 87.9238 156.373 88.4274 156.25 88.8877C156.132 89.3434 155.949 89.7399 155.703 90.0771C155.462 90.4144 155.161 90.6764 154.801 90.8633C154.445 91.0456 154.033 91.1367 153.563 91.1367C153.103 91.1367 152.702 91.0501 152.36 90.877C152.019 90.7038 151.731 90.4577 151.499 90.1387C151.271 89.8197 151.087 89.4391 150.945 88.9971C150.804 88.555 150.704 88.0674 150.645 87.5342V87.0762C150.704 86.5384 150.804 86.0508 150.945 85.6133C151.087 85.1712 151.271 84.7907 151.499 84.4717C151.731 84.1481 152.016 83.8997 152.354 83.7266C152.695 83.5534 153.094 83.4668 153.55 83.4668C154.024 83.4668 154.441 83.5579 154.801 83.7402C155.165 83.9225 155.468 84.1823 155.71 84.5195C155.951 84.8522 156.132 85.2487 156.25 85.709C156.373 86.1693 156.435 86.6774 156.435 87.2334ZM154.787 87.377V87.2334C154.787 86.9007 154.76 86.5885 154.705 86.2969C154.65 86.0007 154.559 85.7409 154.432 85.5176C154.309 85.2943 154.14 85.1188 153.926 84.9912C153.716 84.859 153.454 84.793 153.14 84.793C152.848 84.793 152.597 84.8431 152.388 84.9434C152.178 85.0436 152.003 85.1803 151.861 85.3535C151.72 85.5267 151.608 85.7272 151.526 85.9551C151.449 86.1829 151.396 86.429 151.369 86.6934V87.9307C151.41 88.2725 151.497 88.5869 151.629 88.874C151.766 89.1566 151.957 89.3844 152.203 89.5576C152.449 89.7262 152.766 89.8105 153.153 89.8105C153.459 89.8105 153.716 89.749 153.926 89.626C154.135 89.5029 154.302 89.332 154.425 89.1133C154.552 88.89 154.644 88.6302 154.698 88.334C154.757 88.0378 154.787 87.7188 154.787 87.377ZM161.59 91.1367C161.043 91.1367 160.549 91.0479 160.106 90.8701C159.669 90.6878 159.295 90.4349 158.985 90.1113C158.68 89.7878 158.445 89.4072 158.281 88.9697C158.117 88.5322 158.035 88.0605 158.035 87.5547V87.2812C158.035 86.7025 158.119 86.1784 158.288 85.709C158.457 85.2396 158.691 84.8385 158.992 84.5059C159.293 84.1686 159.648 83.9111 160.059 83.7334C160.469 83.5557 160.913 83.4668 161.392 83.4668C161.92 83.4668 162.383 83.5557 162.779 83.7334C163.176 83.9111 163.504 84.1618 163.764 84.4854C164.028 84.8044 164.224 85.1849 164.352 85.627C164.484 86.069 164.55 86.5566 164.55 87.0898V87.7939H158.835V86.6113H162.923V86.4814C162.914 86.1852 162.854 85.9072 162.745 85.6475C162.64 85.3877 162.479 85.1781 162.26 85.0186C162.041 84.859 161.749 84.7793 161.385 84.7793C161.111 84.7793 160.868 84.8385 160.653 84.957C160.444 85.071 160.268 85.2373 160.127 85.4561C159.986 85.6748 159.876 85.9391 159.799 86.249C159.726 86.5544 159.689 86.8984 159.689 87.2812V87.5547C159.689 87.8783 159.733 88.179 159.819 88.457C159.91 88.7305 160.043 88.9697 160.216 89.1748C160.389 89.3799 160.599 89.5417 160.845 89.6602C161.091 89.7741 161.371 89.8311 161.686 89.8311C162.082 89.8311 162.435 89.7513 162.745 89.5918C163.055 89.4323 163.324 89.2067 163.552 88.915L164.42 89.7559C164.26 89.9883 164.053 90.2116 163.798 90.4258C163.543 90.6354 163.23 90.8063 162.861 90.9385C162.497 91.0706 162.073 91.1367 161.59 91.1367Z" fill="white"/>
<g filter="url(#filter2_dd_16_11334)">
<rect x="202" y="10" width="60" height="60" rx="30" fill="#003731"/>
<path d="M235 25H223C221.35 25 220.015 26.35 220.015 28L220 52C220 53.65 221.335 55 222.985 55H241C242.65 55 244 53.65 244 52V34L235 25ZM223 52V28H233.5V35.5H241V52H223Z" fill="#54DBC7"/>
<path d="M237.25 40.75V46.75H226.75V40.75H237.25ZM239.5 38.5H224.5V49H239.5V38.5Z" fill="#54DBC7"/>
<path d="M233.125 40H230.875V49H233.125V40Z" fill="#54DBC7"/>
<path d="M238 42.625H226V44.875H238V42.625Z" fill="#54DBC7"/>
</g>
<path d="M215.431 88.4365C215.431 88.2314 215.399 88.0492 215.335 87.8896C215.276 87.7301 215.169 87.5843 215.014 87.4521C214.859 87.32 214.64 87.1924 214.357 87.0693C214.079 86.9417 213.724 86.8118 213.291 86.6797C212.817 86.5339 212.38 86.3721 211.979 86.1943C211.582 86.012 211.236 85.8024 210.939 85.5654C210.643 85.3239 210.413 85.0482 210.249 84.7383C210.085 84.4238 210.003 84.0615 210.003 83.6514C210.003 83.2458 210.087 82.8766 210.256 82.5439C210.429 82.2113 210.673 81.9242 210.987 81.6826C211.306 81.4365 211.682 81.2474 212.115 81.1152C212.548 80.9785 213.027 80.9102 213.551 80.9102C214.289 80.9102 214.925 81.0469 215.458 81.3203C215.996 81.5938 216.408 81.9606 216.695 82.4209C216.987 82.8812 217.133 83.3893 217.133 83.9453H215.431C215.431 83.6172 215.36 83.3278 215.219 83.0771C215.082 82.8219 214.872 82.6214 214.59 82.4756C214.312 82.3298 213.959 82.2568 213.53 82.2568C213.125 82.2568 212.787 82.3184 212.519 82.4414C212.25 82.5645 212.049 82.7308 211.917 82.9404C211.785 83.1501 211.719 83.387 211.719 83.6514C211.719 83.8382 211.762 84.0091 211.849 84.1641C211.935 84.3145 212.067 84.4557 212.245 84.5879C212.423 84.7155 212.646 84.8363 212.915 84.9502C213.184 85.0641 213.501 85.1735 213.865 85.2783C214.417 85.4424 214.897 85.6247 215.308 85.8252C215.718 86.0212 216.06 86.2445 216.333 86.4951C216.606 86.7458 216.812 87.0306 216.948 87.3496C217.085 87.6641 217.153 88.0218 217.153 88.4229C217.153 88.8421 217.069 89.2204 216.9 89.5576C216.732 89.8903 216.49 90.1751 216.176 90.4121C215.866 90.6445 215.492 90.8245 215.055 90.9521C214.622 91.0752 214.139 91.1367 213.605 91.1367C213.127 91.1367 212.655 91.0729 212.19 90.9453C211.73 90.8177 211.311 90.624 210.933 90.3643C210.554 90.0999 210.254 89.7718 210.03 89.3799C209.807 88.9834 209.695 88.5208 209.695 87.9922H211.411C211.411 88.3158 211.466 88.5915 211.575 88.8193C211.689 89.0472 211.846 89.234 212.047 89.3799C212.247 89.5212 212.48 89.626 212.744 89.6943C213.013 89.7627 213.3 89.7969 213.605 89.7969C214.007 89.7969 214.341 89.7399 214.61 89.626C214.884 89.512 215.089 89.3525 215.226 89.1475C215.362 88.9424 215.431 88.7054 215.431 88.4365ZM220.634 80.5V91H218.993V80.5H220.634ZM220.347 87.0283L219.813 87.0215C219.818 86.5111 219.889 86.0394 220.025 85.6064C220.167 85.1735 220.363 84.7975 220.613 84.4785C220.868 84.1549 221.174 83.9066 221.529 83.7334C221.885 83.5557 222.279 83.4668 222.712 83.4668C223.076 83.4668 223.405 83.5169 223.696 83.6172C223.993 83.7174 224.248 83.8792 224.462 84.1025C224.676 84.3213 224.838 84.6084 224.947 84.9639C225.061 85.3148 225.118 85.7432 225.118 86.249V91H223.464V86.2354C223.464 85.8799 223.411 85.5973 223.307 85.3877C223.206 85.1781 223.058 85.0277 222.862 84.9365C222.666 84.8408 222.427 84.793 222.145 84.793C221.848 84.793 221.586 84.8522 221.358 84.9707C221.135 85.0892 220.948 85.251 220.798 85.4561C220.647 85.6611 220.534 85.8981 220.456 86.167C220.383 86.4359 220.347 86.723 220.347 87.0283ZM230.547 91.1367C230 91.1367 229.506 91.0479 229.063 90.8701C228.626 90.6878 228.252 90.4349 227.942 90.1113C227.637 89.7878 227.402 89.4072 227.238 88.9697C227.074 88.5322 226.992 88.0605 226.992 87.5547V87.2812C226.992 86.7025 227.076 86.1784 227.245 85.709C227.414 85.2396 227.648 84.8385 227.949 84.5059C228.25 84.1686 228.605 83.9111 229.016 83.7334C229.426 83.5557 229.87 83.4668 230.349 83.4668C230.877 83.4668 231.34 83.5557 231.736 83.7334C232.133 83.9111 232.461 84.1618 232.721 84.4854C232.985 84.8044 233.181 85.1849 233.309 85.627C233.441 86.069 233.507 86.5566 233.507 87.0898V87.7939H227.792V86.6113H231.88V86.4814C231.871 86.1852 231.812 85.9072 231.702 85.6475C231.597 85.3877 231.436 85.1781 231.217 85.0186C230.998 84.859 230.706 84.7793 230.342 84.7793C230.068 84.7793 229.825 84.8385 229.61 84.957C229.401 85.071 229.225 85.2373 229.084 85.4561C228.943 85.6748 228.833 85.9391 228.756 86.249C228.683 86.5544 228.646 86.8984 228.646 87.2812V87.5547C228.646 87.8783 228.69 88.179 228.776 88.457C228.868 88.7305 229 88.9697 229.173 89.1748C229.346 89.3799 229.556 89.5417 229.802 89.6602C230.048 89.7741 230.328 89.8311 230.643 89.8311C231.039 89.8311 231.392 89.7513 231.702 89.5918C232.012 89.4323 232.281 89.2067 232.509 88.915L233.377 89.7559C233.217 89.9883 233.01 90.2116 232.755 90.4258C232.5 90.6354 232.188 90.8063 231.818 90.9385C231.454 91.0706 231.03 91.1367 230.547 91.1367ZM238.553 91.1367C238.006 91.1367 237.511 91.0479 237.069 90.8701C236.632 90.6878 236.258 90.4349 235.948 90.1113C235.643 89.7878 235.408 89.4072 235.244 88.9697C235.08 88.5322 234.998 88.0605 234.998 87.5547V87.2812C234.998 86.7025 235.082 86.1784 235.251 85.709C235.42 85.2396 235.654 84.8385 235.955 84.5059C236.256 84.1686 236.611 83.9111 237.021 83.7334C237.432 83.5557 237.876 83.4668 238.354 83.4668C238.883 83.4668 239.346 83.5557 239.742 83.7334C240.139 83.9111 240.467 84.1618 240.727 84.4854C240.991 84.8044 241.187 85.1849 241.314 85.627C241.447 86.069 241.513 86.5566 241.513 87.0898V87.7939H235.798V86.6113H239.886V86.4814C239.877 86.1852 239.817 85.9072 239.708 85.6475C239.603 85.3877 239.441 85.1781 239.223 85.0186C239.004 84.859 238.712 84.7793 238.348 84.7793C238.074 84.7793 237.83 84.8385 237.616 84.957C237.407 85.071 237.231 85.2373 237.09 85.4561C236.949 85.6748 236.839 85.9391 236.762 86.249C236.689 86.5544 236.652 86.8984 236.652 87.2812V87.5547C236.652 87.8783 236.696 88.179 236.782 88.457C236.873 88.7305 237.006 88.9697 237.179 89.1748C237.352 89.3799 237.562 89.5417 237.808 89.6602C238.054 89.7741 238.334 89.8311 238.648 89.8311C239.045 89.8311 239.398 89.7513 239.708 89.5918C240.018 89.4323 240.287 89.2067 240.515 88.915L241.383 89.7559C241.223 89.9883 241.016 90.2116 240.761 90.4258C240.506 90.6354 240.193 90.8063 239.824 90.9385C239.46 91.0706 239.036 91.1367 238.553 91.1367ZM246.688 83.6035V84.8066H242.519V83.6035H246.688ZM243.722 81.792H245.369V88.9561C245.369 89.1839 245.401 89.3594 245.465 89.4824C245.533 89.6009 245.627 89.6807 245.745 89.7217C245.864 89.7627 246.003 89.7832 246.162 89.7832C246.276 89.7832 246.385 89.7764 246.49 89.7627C246.595 89.749 246.679 89.7354 246.743 89.7217L246.75 90.9795C246.613 91.0205 246.454 91.057 246.271 91.0889C246.094 91.1208 245.889 91.1367 245.656 91.1367C245.278 91.1367 244.943 91.0706 244.651 90.9385C244.36 90.8018 244.132 90.5807 243.968 90.2754C243.804 89.9701 243.722 89.5645 243.722 89.0586V81.792ZM252.609 88.9971C252.609 88.833 252.568 88.6849 252.486 88.5527C252.404 88.416 252.247 88.293 252.015 88.1836C251.787 88.0742 251.45 87.974 251.003 87.8828C250.611 87.7962 250.251 87.6937 249.923 87.5752C249.599 87.4521 249.321 87.304 249.089 87.1309C248.856 86.9577 248.676 86.7526 248.549 86.5156C248.421 86.2786 248.357 86.0052 248.357 85.6953C248.357 85.3945 248.424 85.1097 248.556 84.8408C248.688 84.5719 248.877 84.335 249.123 84.1299C249.369 83.9248 249.668 83.763 250.019 83.6445C250.374 83.526 250.771 83.4668 251.208 83.4668C251.828 83.4668 252.359 83.5716 252.801 83.7812C253.247 83.9863 253.589 84.2666 253.826 84.6221C254.063 84.973 254.182 85.3695 254.182 85.8115H252.534C252.534 85.6156 252.484 85.4333 252.384 85.2646C252.288 85.0915 252.142 84.9525 251.946 84.8477C251.75 84.7383 251.504 84.6836 251.208 84.6836C250.925 84.6836 250.691 84.7292 250.504 84.8203C250.322 84.9069 250.185 85.0208 250.094 85.1621C250.007 85.3034 249.964 85.4583 249.964 85.627C249.964 85.75 249.987 85.8617 250.032 85.9619C250.082 86.0576 250.164 86.1465 250.278 86.2285C250.392 86.306 250.547 86.3789 250.743 86.4473C250.944 86.5156 251.194 86.5817 251.495 86.6455C252.06 86.764 252.546 86.9167 252.951 87.1035C253.361 87.2858 253.676 87.5228 253.895 87.8145C254.113 88.1016 254.223 88.4661 254.223 88.9082C254.223 89.2363 254.152 89.5371 254.011 89.8105C253.874 90.0794 253.674 90.3141 253.409 90.5146C253.145 90.7106 252.828 90.8633 252.459 90.9727C252.094 91.082 251.684 91.1367 251.229 91.1367C250.559 91.1367 249.991 91.0182 249.526 90.7812C249.062 90.5397 248.708 90.2321 248.467 89.8584C248.23 89.4801 248.111 89.0882 248.111 88.6826H249.704C249.722 88.988 249.807 89.2318 249.957 89.4141C250.112 89.5918 250.303 89.7217 250.531 89.8037C250.764 89.8812 251.003 89.9199 251.249 89.9199C251.545 89.9199 251.794 89.8812 251.994 89.8037C252.195 89.7217 252.347 89.6123 252.452 89.4756C252.557 89.3343 252.609 89.1748 252.609 88.9971Z" fill="white"/>
<g filter="url(#filter3_dd_16_11334)">
<rect x="298" y="10" width="60" height="60" rx="30" fill="#003731"/>
<path d="M331.525 25.75H324.475C323.41 25.75 322.42 26.32 321.88 27.235L312.37 43.6C311.83 44.53 311.83 45.67 312.355 46.6L315.88 52.735C316.42 53.665 317.41 54.235 318.475 54.235H337.495C338.575 54.235 339.565 53.665 340.09 52.735L343.615 46.6C344.155 45.67 344.14 44.53 343.6 43.6L334.12 27.235C333.58 26.32 332.59 25.75 331.525 25.75ZM337.51 51.25H318.49L314.965 45.115L324.475 28.75H331.525L341.035 45.115L337.51 51.25ZM329.35 33.625H326.65L319.78 45.595L320.875 47.5H335.125L336.22 45.595L329.35 33.625ZM323.875 44.5L328 37.3L332.125 44.5H323.875Z" fill="#54DBC7"/>
</g>
<path d="M314.894 91H312.768L312.781 89.6396H314.894C315.509 89.6396 316.024 89.5052 316.438 89.2363C316.858 88.9674 317.172 88.5824 317.382 88.0811C317.596 87.5798 317.703 86.9827 317.703 86.29V85.75C317.703 85.2122 317.642 84.736 317.519 84.3213C317.4 83.9066 317.222 83.5579 316.985 83.2754C316.753 82.9928 316.466 82.7786 316.124 82.6328C315.787 82.487 315.397 82.4141 314.955 82.4141H312.727V81.0469H314.955C315.616 81.0469 316.22 81.1585 316.767 81.3818C317.313 81.6006 317.785 81.9173 318.182 82.332C318.583 82.7467 318.89 83.2435 319.104 83.8223C319.319 84.401 319.426 85.0482 319.426 85.7637V86.29C319.426 87.0055 319.319 87.6527 319.104 88.2314C318.89 88.8102 318.583 89.307 318.182 89.7217C317.781 90.1318 317.302 90.4486 316.746 90.6719C316.195 90.8906 315.577 91 314.894 91ZM313.718 81.0469V91H312.002V81.0469H313.718ZM323.139 85.0117V91H321.491V83.6035H323.063L323.139 85.0117ZM325.401 83.5557L325.388 85.0869C325.287 85.0687 325.178 85.055 325.06 85.0459C324.946 85.0368 324.832 85.0322 324.718 85.0322C324.435 85.0322 324.187 85.0732 323.973 85.1553C323.758 85.2327 323.578 85.3467 323.433 85.4971C323.291 85.6429 323.182 85.8206 323.104 86.0303C323.027 86.2399 322.981 86.4746 322.968 86.7344L322.592 86.7617C322.592 86.2969 322.637 85.8662 322.729 85.4697C322.82 85.0732 322.956 84.7246 323.139 84.4238C323.326 84.123 323.558 83.8883 323.836 83.7197C324.118 83.5511 324.444 83.4668 324.813 83.4668C324.914 83.4668 325.021 83.4759 325.135 83.4941C325.253 83.5124 325.342 83.5329 325.401 83.5557ZM328.697 83.6035V91H327.043V83.6035H328.697ZM326.934 81.6621C326.934 81.4115 327.016 81.2041 327.18 81.04C327.348 80.8714 327.581 80.7871 327.877 80.7871C328.169 80.7871 328.399 80.8714 328.567 81.04C328.736 81.2041 328.82 81.4115 328.82 81.6621C328.82 81.9082 328.736 82.1133 328.567 82.2773C328.399 82.4414 328.169 82.5234 327.877 82.5234C327.581 82.5234 327.348 82.4414 327.18 82.2773C327.016 82.1133 326.934 81.9082 326.934 81.6621ZM333.408 89.6943L335.22 83.6035H336.929L334.358 91H333.292L333.408 89.6943ZM332.021 83.6035L333.866 89.7217L333.955 91H332.889L330.305 83.6035H332.021ZM341.612 91.1367C341.065 91.1367 340.571 91.0479 340.129 90.8701C339.691 90.6878 339.318 90.4349 339.008 90.1113C338.702 89.7878 338.468 89.4072 338.304 88.9697C338.14 88.5322 338.058 88.0605 338.058 87.5547V87.2812C338.058 86.7025 338.142 86.1784 338.311 85.709C338.479 85.2396 338.714 84.8385 339.015 84.5059C339.315 84.1686 339.671 83.9111 340.081 83.7334C340.491 83.5557 340.936 83.4668 341.414 83.4668C341.943 83.4668 342.405 83.5557 342.802 83.7334C343.198 83.9111 343.526 84.1618 343.786 84.4854C344.05 84.8044 344.246 85.1849 344.374 85.627C344.506 86.069 344.572 86.5566 344.572 87.0898V87.7939H338.857V86.6113H342.945V86.4814C342.936 86.1852 342.877 85.9072 342.768 85.6475C342.663 85.3877 342.501 85.1781 342.282 85.0186C342.063 84.859 341.772 84.7793 341.407 84.7793C341.134 84.7793 340.89 84.8385 340.676 84.957C340.466 85.071 340.291 85.2373 340.149 85.4561C340.008 85.6748 339.899 85.9391 339.821 86.249C339.748 86.5544 339.712 86.8984 339.712 87.2812V87.5547C339.712 87.8783 339.755 88.179 339.842 88.457C339.933 88.7305 340.065 88.9697 340.238 89.1748C340.411 89.3799 340.621 89.5417 340.867 89.6602C341.113 89.7741 341.394 89.8311 341.708 89.8311C342.104 89.8311 342.458 89.7513 342.768 89.5918C343.077 89.4323 343.346 89.2067 343.574 88.915L344.442 89.7559C344.283 89.9883 344.076 90.2116 343.82 90.4258C343.565 90.6354 343.253 90.8063 342.884 90.9385C342.519 91.0706 342.095 91.1367 341.612 91.1367Z" fill="white"/>
<defs>
<filter id="filter0_dd_16_11334" x="4" y="4" width="72" height="72" filterUnits="userSpaceOnUse" color-interpolation-filters="sRGB">
<feFlood flood-opacity="0" result="BackgroundImageFix"/>
<feColorMatrix in="SourceAlpha" type="matrix" values="0 0 0 0 0 0 0 0 0 0 0 0 0 0 0 0 0 0 127 0" result="hardAlpha"/>
<feOffset/>
<feGaussianBlur stdDeviation="3"/>
<feComposite in2="hardAlpha" operator="out"/>
<feColorMatrix type="matrix" values="0 0 0 0 0 0 0 0 0 0 0 0 0 0 0 0 0 0 0.03 0"/>
<feBlend mode="normal" in2="BackgroundImageFix" result="effect1_dropShadow_16_11334"/>
<feColorMatrix in="SourceAlpha" type="matrix" values="0 0 0 0 0 0 0 0 0 0 0 0 0 0 0 0 0 0 127 0" result="hardAlpha"/>
<feOffset dy="1"/>
<feGaussianBlur stdDeviation="1.5"/>
<feComposite in2="hardAlpha" operator="out"/>
<feColorMatrix type="matrix" values="0 0 0 0 0 0 0 0 0 0 0 0 0 0 0 0 0 0 0.04 0"/>
<feBlend mode="normal" in2="effect1_dropShadow_16_11334" result="effect2_dropShadow_16_11334"/>
<feBlend mode="normal" in="SourceGraphic" in2="effect2_dropShadow_16_11334" result="shape"/>
</filter>
<filter id="filter1_dd_16_11334" x="100" y="4" width="72" height="72" filterUnits="userSpaceOnUse" color-interpolation-filters="sRGB">
<feFlood flood-opacity="0" result="BackgroundImageFix"/>
<feColorMatrix in="SourceAlpha" type="matrix" values="0 0 0 0 0 0 0 0 0 0 0 0 0 0 0 0 0 0 127 0" result="hardAlpha"/>
<feOffset/>
<feGaussianBlur stdDeviation="3"/>
<feComposite in2="hardAlpha" operator="out"/>
<feColorMatrix type="matrix" values="0 0 0 0 0 0 0 0 0 0 0 0 0 0 0 0 0 0 0.03 0"/>
<feBlend mode="normal" in2="BackgroundImageFix" result="effect1_dropShadow_16_11334"/>
<feColorMatrix in="SourceAlpha" type="matrix" values="0 0 0 0 0 0 0 0 0 0 0 0 0 0 0 0 0 0 127 0" result="hardAlpha"/>
<feOffset dy="1"/>
<feGaussianBlur stdDeviation="1.5"/>
<feComposite in2="hardAlpha" operator="out"/>
<feColorMatrix type="matrix" values="0 0 0 0 0 0 0 0 0 0 0 0 0 0 0 0 0 0 0.04 0"/>
<feBlend mode="normal" in2="effect1_dropShadow_16_11334" result="effect2_dropShadow_16_11334"/>
<feBlend mode="normal" in="SourceGraphic" in2="effect2_dropShadow_16_11334" result="shape"/>
</filter>
<filter id="filter2_dd_16_11334" x="196" y="4" width="72" height="72" filterUnits="userSpaceOnUse" color-interpolation-filters="sRGB">
<feFlood flood-opacity="0" result="BackgroundImageFix"/>
<feColorMatrix in="SourceAlpha" type="matrix" values="0 0 0 0 0 0 0 0 0 0 0 0 0 0 0 0 0 0 127 0" result="hardAlpha"/>
<feOffset/>
<feGaussianBlur stdDeviation="3"/>
<feComposite in2="hardAlpha" operator="out"/>
<feColorMatrix type="matrix" values="0 0 0 0 0 0 0 0 0 0 0 0 0 0 0 0 0 0 0.03 0"/>
<feBlend mode="normal" in2="BackgroundImageFix" result="effect1_dropShadow_16_11334"/>
<feColorMatrix in="SourceAlpha" type="matrix" values="0 0 0 0 0 0 0 0 0 0 0 0 0 0 0 0 0 0 127 0" result="hardAlpha"/>
<feOffset dy="1"/>
<feGaussianBlur stdDeviation="1.5"/>
<feComposite in2="hardAlpha" operator="out"/>
<feColorMatrix type="matrix" values="0 0 0 0 0 0 0 0 0 0 0 0 0 0 0 0 0 0 0.04 0"/>
<feBlend mode="normal" in2="effect1_dropShadow_16_11334" result="effect2_dropShadow_16_11334"/>
<feBlend mode="normal" in="SourceGraphic" in2="effect2_dropShadow_16_11334" result="shape"/>
</filter>
<filter id="filter3_dd_16_11334" x="292" y="4" width="72" height="72" filterUnits="userSpaceOnUse" color-interpolation-filters="sRGB">
<feFlood flood-opacity="0" result="BackgroundImageFix"/>
<feColorMatrix in="SourceAlpha" type="matrix" values="0 0 0 0 0 0 0 0 0 0 0 0 0 0 0 0 0 0 127 0" result="hardAlpha"/>
<feOffset/>
<feGaussianBlur stdDeviation="3"/>
<feComposite in2="hardAlpha" operator="out"/>
<feColorMatrix type="matrix" values="0 0 0 0 0 0 0 0 0 0 0 0 0 0 0 0 0 0 0.03 0"/>
<feBlend mode="normal" in2="BackgroundImageFix" result="effect1_dropShadow_16_11334"/>
<feColorMatrix in="SourceAlpha" type="matrix" values="0 0 0 0 0 0 0 0 0 0 0 0 0 0 0 0 0 0 127 0" result="hardAlpha"/>
<feOffset dy="1"/>
<feGaussianBlur stdDeviation="1.5"/>
<feComposite in2="hardAlpha" operator="out"/>
<feColorMatrix type="matrix" values="0 0 0 0 0 0 0 0 0 0 0 0 0 0 0 0 0 0 0.04 0"/>
<feBlend mode="normal" in2="effect1_dropShadow_16_11334" result="effect2_dropShadow_16_11334"/>
<feBlend mode="normal" in="SourceGraphic" in2="effect2_dropShadow_16_11334" result="shape"/>
</filter>
</defs>
</svg>
