<svg width="368" height="244" viewBox="0 0 368 244" fill="none" xmlns="http://www.w3.org/2000/svg">
<g filter="url(#filter0_dd_16_11314)">
<rect x="10" y="48" width="60" height="60" rx="30" fill="#003731"/>
<path d="M50.5417 92.9583C46.875 92.9583 43.3542 92.3125 39.9792 91.0208C36.6042 89.7292 33.6181 87.9375 31.0208 85.6458C28.4236 83.3542 26.3542 80.6458 24.8125 77.5208C23.2708 74.3958 22.5 71 22.5 67.3333C22.5 66.1111 22.8403 65.0833 23.5208 64.25C24.2014 63.4167 25.1667 63 26.4167 63H30.2917C31.0417 63 31.625 63.2153 32.0417 63.6458C32.4583 64.0764 32.75 64.6944 32.9167 65.5C33.0833 66.3333 33.2708 67.1944 33.4792 68.0833C33.6875 68.9722 33.9306 69.7639 34.2083 70.4583C34.4583 71.0417 34.5347 71.5903 34.4375 72.1042C34.3403 72.6181 34.0556 73.1111 33.5833 73.5833L30.3333 76.75C31.6667 78.6944 33.5208 80.5764 35.8958 82.3958C38.2708 84.2153 40.5833 85.4583 42.8333 86.125L44.75 82.25C45 81.75 45.3194 81.4097 45.7083 81.2292C46.0972 81.0486 46.6389 80.9861 47.3333 81.0417C48.0556 81.0972 48.7708 81.125 49.4792 81.125C50.1875 81.125 50.9861 81.0972 51.875 81.0417C52.7083 80.9861 53.4097 81.2083 53.9792 81.7083C54.5486 82.2083 54.9306 83.0139 55.125 84.125L55.7917 87.875L55.875 88.5833C55.875 89.75 55.3958 90.7708 54.4375 91.6458C53.4792 92.5208 52.1806 92.9583 50.5417 92.9583Z" fill="#54DBC7"/>
</g>
<g filter="url(#filter1_dd_16_11314)">
<rect x="106" y="48" width="60" height="60" rx="30" fill="#003731"/>
<path fill-rule="evenodd" clip-rule="evenodd" d="M120.761 67H145.262C148.107 67 150.395 69.244 150.403 72.1333V83.8667C150.403 86.822 148.181 89 145.269 89H127.669C125.11 89 123.269 86.4187 123.269 83.8667L123.255 74.3333L119.874 68.76C119.243 67.7773 119.757 67 120.761 67ZM128.396 84.5987H140.862C141.61 84.5987 142.329 84.0414 142.329 83.1321C142.329 82.2227 141.61 81.6654 140.862 81.6654H128.396C127.648 81.6654 126.929 82.2227 126.929 83.1321C126.929 84.0414 127.648 84.5987 128.396 84.5987ZM145.263 79.466H128.396C127.655 79.466 126.929 78.9087 126.929 77.9994C126.929 77.09 127.655 76.5327 128.396 76.5327H145.263C146.003 76.5327 146.729 77.09 146.729 77.9994C146.729 78.9087 146.003 79.466 145.263 79.466ZM128.397 74.3325H145.263C146.004 74.3325 146.73 73.7752 146.73 72.8658C146.73 71.9565 146.011 71.3992 145.271 71.3992H128.397C127.656 71.3992 126.93 71.9565 126.93 72.8658C126.93 73.7752 127.656 74.3325 128.397 74.3325Z" fill="#54DBC7"/>
</g>
<g filter="url(#filter2_dd_16_11314)">
<rect x="202" y="48" width="60" height="60" rx="30" fill="#003731"/>
<path d="M244.75 64.5C244 64.5 243.1 64.8 242.35 65.4L232 73.95L221.65 65.4C220.9 64.8 220 64.5 219.25 64.5C217.3 64.5 215.5 66 215.5 68.25V87C215.5 88.65 216.85 90 218.5 90H224.5V79.5L232 85.5L239.5 79.5V90H245.5C247.15 90 248.5 88.65 248.5 87V68.25C248.5 66 246.7 64.5 244.75 64.5ZM245.5 87H242.5V73.2L232 81.75L221.5 73.2V87H218.5V68.22C218.5 67.59 219.235 67.245 219.73 67.635L232 77.7L244.27 67.635C244.765 67.245 245.5 67.59 245.5 68.22V87Z" fill="#54DBC7"/>
</g>
<g filter="url(#filter3_dd_16_11314)">
<rect x="298" y="48" width="60" height="60" rx="30" fill="#003731"/>
<path d="M338.542 92.9583C334.875 92.9583 331.354 92.3125 327.979 91.0208C324.604 89.7292 321.618 87.9375 319.021 85.6458C316.424 83.3542 314.354 80.6458 312.812 77.5208C311.271 74.3958 310.5 71 310.5 67.3333C310.5 66.1111 310.84 65.0833 311.521 64.25C312.201 63.4167 313.167 63 314.417 63H318.292C319.042 63 319.625 63.2153 320.042 63.6458C320.458 64.0764 320.75 64.6944 320.917 65.5C321.083 66.3333 321.271 67.1944 321.479 68.0833C321.688 68.9722 321.931 69.7639 322.208 70.4583C322.458 71.0417 322.535 71.5903 322.438 72.1042C322.34 72.6181 322.056 73.1111 321.583 73.5833L318.333 76.75C319.667 78.6944 321.521 80.5764 323.896 82.3958C326.271 84.2153 328.583 85.4583 330.833 86.125L332.75 82.25C333 81.75 333.319 81.4097 333.708 81.2292C334.097 81.0486 334.639 80.9861 335.333 81.0417C336.056 81.0972 336.771 81.125 337.479 81.125C338.188 81.125 338.986 81.0972 339.875 81.0417C340.708 80.9861 341.41 81.2083 341.979 81.7083C342.549 82.2083 342.931 83.0139 343.125 84.125L343.792 87.875L343.875 88.5833C343.875 89.75 343.396 90.7708 342.438 91.6458C341.479 92.5208 340.181 92.9583 338.542 92.9583Z" fill="#54DBC7"/>
</g>
<g filter="url(#filter4_b_16_11314)">
<rect y="144" width="368" height="52" rx="26" fill="#171D1B"/>
</g>
<path d="M39.5227 170.273C39.5227 169.422 39.4505 168.602 39.3127 167.818H28V172.454H34.4595C34.1814 173.954 33.34 175.232 32.065 176.087V179.104H35.9514C38.2191 177.014 39.5227 173.924 39.5227 170.273Z" fill="#E6F2FF"/>
<path d="M32.0664 176.087C30.9932 176.807 29.6132 177.227 28 177.227C24.8773 177.227 22.2277 175.12 21.2814 172.281H17.2764V175.389C19.2509 179.311 23.3105 182 28 182C31.2386 182 33.9659 180.936 35.9527 179.104L32.0664 176.087Z" fill="#92F4E2"/>
<path d="M20.9091 170C20.9091 169.206 21.0414 168.439 21.2814 167.719V164.61H17.2764C16.4609 166.231 16 168.061 16 170C16 171.939 16.4609 173.769 17.2764 175.391L21.2814 172.283C21.0414 171.561 20.9091 170.794 20.9091 170Z" fill="#E5FFF8"/>
<path d="M28 162.773C29.7632 162.773 31.3436 163.38 32.59 164.567L36.0291 161.128C33.9495 159.189 31.2373 158 28 158C23.3105 158 19.2509 160.689 17.2764 164.61L21.2814 167.717C22.2277 164.88 24.8773 162.773 28 162.773Z" fill="#54DBC7"/>
<path d="M292 174C293.061 174 294.078 173.579 294.828 172.829C295.579 172.078 296 171.061 296 170V160.667C296 159.606 295.579 158.588 294.828 157.838C294.078 157.088 293.061 156.667 292 156.667C290.939 156.667 289.922 157.088 289.172 157.838C288.421 158.588 288 159.606 288 160.667V170C288 171.061 288.421 172.078 289.172 172.829C289.922 173.579 290.939 174 292 174Z" fill="#E6F2FF"/>
<path d="M293.333 179.227H290.666V183.333H293.333V179.227Z" fill="#92F4E2"/>
<path d="M285.333 170H282.666C282.648 172.466 283.607 174.839 285.333 176.6L287.213 174.72C285.988 173.456 285.312 171.76 285.333 170Z" fill="#E5FFF8"/>
<path d="M291.999 176.667C291.122 176.666 290.254 176.493 289.444 176.157C288.634 175.821 287.899 175.328 287.279 174.707L285.399 176.6C286.705 177.905 288.368 178.794 290.178 179.155C291.989 179.515 293.866 179.33 295.571 178.624C297.277 177.917 298.734 176.721 299.76 175.186C300.786 173.651 301.333 171.846 301.333 170H298.666C298.666 171.768 297.964 173.464 296.713 174.714C295.463 175.964 293.768 176.667 291.999 176.667Z" fill="#54DBC7"/>
<g clip-path="url(#clip0_16_11314)">
<path d="M348.012 180.667C349.485 180.667 350.679 179.473 350.679 178C350.679 176.527 349.485 175.333 348.012 175.333C346.539 175.333 345.345 176.527 345.345 178C345.345 179.473 346.539 180.667 348.012 180.667Z" fill="#E6F2FF"/>
<path d="M340.012 175.333C342.221 175.333 344.012 173.542 344.012 171.333C344.012 169.124 342.221 167.333 340.012 167.333C337.803 167.333 336.012 169.124 336.012 171.333C336.012 173.542 337.803 175.333 340.012 175.333Z" fill="#54DBC7"/>
<path d="M328 176.533C328 179.552 330.448 182 333.467 182H340V179.333L333.317 179.317C331.85 179.317 330.667 177.952 330.667 176.333V173.333H328V176.533Z" fill="#E6F2FF"/>
<path d="M352 166.133C352 163.115 349.552 160.667 346.533 160.667H343.333L346.667 163.333C348.133 163.333 349.333 164.715 349.333 166.333V171.333H352V166.133Z" fill="#92F4E2"/>
<path d="M342.667 158H337.333L335.333 160.667H333.467C330.448 160.667 328 163.115 328 166.133V169.333H330.667V166.333C330.667 164.715 331.867 163.333 333.333 163.333H346.667L342.667 158Z" fill="#E5FFF8"/>
</g>
<defs>
<filter id="filter0_dd_16_11314" x="4" y="42" width="72" height="72" filterUnits="userSpaceOnUse" color-interpolation-filters="sRGB">
<feFlood flood-opacity="0" result="BackgroundImageFix"/>
<feColorMatrix in="SourceAlpha" type="matrix" values="0 0 0 0 0 0 0 0 0 0 0 0 0 0 0 0 0 0 127 0" result="hardAlpha"/>
<feOffset/>
<feGaussianBlur stdDeviation="3"/>
<feComposite in2="hardAlpha" operator="out"/>
<feColorMatrix type="matrix" values="0 0 0 0 0 0 0 0 0 0 0 0 0 0 0 0 0 0 0.03 0"/>
<feBlend mode="normal" in2="BackgroundImageFix" result="effect1_dropShadow_16_11314"/>
<feColorMatrix in="SourceAlpha" type="matrix" values="0 0 0 0 0 0 0 0 0 0 0 0 0 0 0 0 0 0 127 0" result="hardAlpha"/>
<feOffset dy="1"/>
<feGaussianBlur stdDeviation="1.5"/>
<feComposite in2="hardAlpha" operator="out"/>
<feColorMatrix type="matrix" values="0 0 0 0 0 0 0 0 0 0 0 0 0 0 0 0 0 0 0.04 0"/>
<feBlend mode="normal" in2="effect1_dropShadow_16_11314" result="effect2_dropShadow_16_11314"/>
<feBlend mode="normal" in="SourceGraphic" in2="effect2_dropShadow_16_11314" result="shape"/>
</filter>
<filter id="filter1_dd_16_11314" x="100" y="42" width="72" height="72" filterUnits="userSpaceOnUse" color-interpolation-filters="sRGB">
<feFlood flood-opacity="0" result="BackgroundImageFix"/>
<feColorMatrix in="SourceAlpha" type="matrix" values="0 0 0 0 0 0 0 0 0 0 0 0 0 0 0 0 0 0 127 0" result="hardAlpha"/>
<feOffset/>
<feGaussianBlur stdDeviation="3"/>
<feComposite in2="hardAlpha" operator="out"/>
<feColorMatrix type="matrix" values="0 0 0 0 0 0 0 0 0 0 0 0 0 0 0 0 0 0 0.03 0"/>
<feBlend mode="normal" in2="BackgroundImageFix" result="effect1_dropShadow_16_11314"/>
<feColorMatrix in="SourceAlpha" type="matrix" values="0 0 0 0 0 0 0 0 0 0 0 0 0 0 0 0 0 0 127 0" result="hardAlpha"/>
<feOffset dy="1"/>
<feGaussianBlur stdDeviation="1.5"/>
<feComposite in2="hardAlpha" operator="out"/>
<feColorMatrix type="matrix" values="0 0 0 0 0 0 0 0 0 0 0 0 0 0 0 0 0 0 0.04 0"/>
<feBlend mode="normal" in2="effect1_dropShadow_16_11314" result="effect2_dropShadow_16_11314"/>
<feBlend mode="normal" in="SourceGraphic" in2="effect2_dropShadow_16_11314" result="shape"/>
</filter>
<filter id="filter2_dd_16_11314" x="196" y="42" width="72" height="72" filterUnits="userSpaceOnUse" color-interpolation-filters="sRGB">
<feFlood flood-opacity="0" result="BackgroundImageFix"/>
<feColorMatrix in="SourceAlpha" type="matrix" values="0 0 0 0 0 0 0 0 0 0 0 0 0 0 0 0 0 0 127 0" result="hardAlpha"/>
<feOffset/>
<feGaussianBlur stdDeviation="3"/>
<feComposite in2="hardAlpha" operator="out"/>
<feColorMatrix type="matrix" values="0 0 0 0 0 0 0 0 0 0 0 0 0 0 0 0 0 0 0.03 0"/>
<feBlend mode="normal" in2="BackgroundImageFix" result="effect1_dropShadow_16_11314"/>
<feColorMatrix in="SourceAlpha" type="matrix" values="0 0 0 0 0 0 0 0 0 0 0 0 0 0 0 0 0 0 127 0" result="hardAlpha"/>
<feOffset dy="1"/>
<feGaussianBlur stdDeviation="1.5"/>
<feComposite in2="hardAlpha" operator="out"/>
<feColorMatrix type="matrix" values="0 0 0 0 0 0 0 0 0 0 0 0 0 0 0 0 0 0 0.04 0"/>
<feBlend mode="normal" in2="effect1_dropShadow_16_11314" result="effect2_dropShadow_16_11314"/>
<feBlend mode="normal" in="SourceGraphic" in2="effect2_dropShadow_16_11314" result="shape"/>
</filter>
<filter id="filter3_dd_16_11314" x="292" y="42" width="72" height="72" filterUnits="userSpaceOnUse" color-interpolation-filters="sRGB">
<feFlood flood-opacity="0" result="BackgroundImageFix"/>
<feColorMatrix in="SourceAlpha" type="matrix" values="0 0 0 0 0 0 0 0 0 0 0 0 0 0 0 0 0 0 127 0" result="hardAlpha"/>
<feOffset/>
<feGaussianBlur stdDeviation="3"/>
<feComposite in2="hardAlpha" operator="out"/>
<feColorMatrix type="matrix" values="0 0 0 0 0 0 0 0 0 0 0 0 0 0 0 0 0 0 0.03 0"/>
<feBlend mode="normal" in2="BackgroundImageFix" result="effect1_dropShadow_16_11314"/>
<feColorMatrix in="SourceAlpha" type="matrix" values="0 0 0 0 0 0 0 0 0 0 0 0 0 0 0 0 0 0 127 0" result="hardAlpha"/>
<feOffset dy="1"/>
<feGaussianBlur stdDeviation="1.5"/>
<feComposite in2="hardAlpha" operator="out"/>
<feColorMatrix type="matrix" values="0 0 0 0 0 0 0 0 0 0 0 0 0 0 0 0 0 0 0.04 0"/>
<feBlend mode="normal" in2="effect1_dropShadow_16_11314" result="effect2_dropShadow_16_11314"/>
<feBlend mode="normal" in="SourceGraphic" in2="effect2_dropShadow_16_11314" result="shape"/>
</filter>
<filter id="filter4_b_16_11314" x="-75" y="69" width="518" height="202" filterUnits="userSpaceOnUse" color-interpolation-filters="sRGB">
<feFlood flood-opacity="0" result="BackgroundImageFix"/>
<feGaussianBlur in="BackgroundImageFix" stdDeviation="37.5"/>
<feComposite in2="SourceAlpha" operator="in" result="effect1_backgroundBlur_16_11314"/>
<feBlend mode="normal" in="SourceGraphic" in2="effect1_backgroundBlur_16_11314" result="shape"/>
</filter>
<clipPath id="clip0_16_11314">
<rect width="32" height="32" fill="white" transform="translate(324 154)"/>
</clipPath>
</defs>
</svg>
