<svg width="412" height="52" viewBox="0 0 412 52" fill="none" xmlns="http://www.w3.org/2000/svg">
<path d="M20.9834 20.9922V31H19.7188V22.5713L17.1689 23.501V22.3594L20.7852 20.9922H20.9834ZM31.4736 29.9609V31H24.959V30.0908L28.2197 26.4609C28.6208 26.0143 28.9307 25.6361 29.1494 25.3262C29.3727 25.0117 29.5277 24.7314 29.6143 24.4854C29.7054 24.2347 29.751 23.9795 29.751 23.7197C29.751 23.3916 29.6826 23.0954 29.5459 22.8311C29.4137 22.5622 29.2178 22.348 28.958 22.1885C28.6982 22.029 28.3838 21.9492 28.0146 21.9492C27.5726 21.9492 27.2035 22.0358 26.9072 22.209C26.6156 22.3776 26.3968 22.6146 26.251 22.9199C26.1051 23.2253 26.0322 23.5762 26.0322 23.9727H24.7676C24.7676 23.4121 24.8906 22.8994 25.1367 22.4346C25.3828 21.9697 25.7474 21.6006 26.2305 21.3271C26.7135 21.0492 27.3083 20.9102 28.0146 20.9102C28.6436 20.9102 29.1813 21.0218 29.6279 21.2451C30.0745 21.4639 30.4163 21.7738 30.6533 22.1748C30.8949 22.5713 31.0156 23.0361 31.0156 23.5693C31.0156 23.861 30.9655 24.1572 30.8652 24.458C30.7695 24.7542 30.6351 25.0505 30.4619 25.3467C30.2933 25.6429 30.0951 25.9346 29.8672 26.2217C29.6439 26.5088 29.4046 26.7913 29.1494 27.0693L26.4834 29.9609H31.4736ZM33.1592 30.3301C33.1592 30.1159 33.2253 29.9359 33.3574 29.79C33.4941 29.6396 33.6901 29.5645 33.9453 29.5645C34.2005 29.5645 34.3942 29.6396 34.5264 29.79C34.6631 29.9359 34.7314 30.1159 34.7314 30.3301C34.7314 30.5397 34.6631 30.7174 34.5264 30.8633C34.3942 31.0091 34.2005 31.082 33.9453 31.082C33.6901 31.082 33.4941 31.0091 33.3574 30.8633C33.2253 30.7174 33.1592 30.5397 33.1592 30.3301ZM33.166 24.2939C33.166 24.0798 33.2321 23.8997 33.3643 23.7539C33.501 23.6035 33.6969 23.5283 33.9521 23.5283C34.2074 23.5283 34.401 23.6035 34.5332 23.7539C34.6699 23.8997 34.7383 24.0798 34.7383 24.2939C34.7383 24.5036 34.6699 24.6813 34.5332 24.8271C34.401 24.973 34.2074 25.0459 33.9521 25.0459C33.6969 25.0459 33.501 24.973 33.3643 24.8271C33.2321 24.6813 33.166 24.5036 33.166 24.2939ZM38.3174 26.2627L37.3057 26.0029L37.8047 21.0469H42.9111V22.2158H38.8779L38.5771 24.9229C38.7594 24.818 38.9896 24.7201 39.2676 24.6289C39.5501 24.5378 39.8737 24.4922 40.2383 24.4922C40.6986 24.4922 41.111 24.5719 41.4756 24.7314C41.8402 24.8864 42.1501 25.1097 42.4053 25.4014C42.665 25.693 42.8633 26.0439 43 26.4541C43.1367 26.8643 43.2051 27.3223 43.2051 27.8281C43.2051 28.3066 43.139 28.7464 43.0068 29.1475C42.8792 29.5485 42.6855 29.8994 42.4258 30.2002C42.166 30.4964 41.8379 30.7266 41.4414 30.8906C41.0495 31.0547 40.5869 31.1367 40.0537 31.1367C39.6527 31.1367 39.2721 31.082 38.9121 30.9727C38.5566 30.8587 38.2376 30.6878 37.9551 30.46C37.6771 30.2275 37.4492 29.9404 37.2715 29.5986C37.0983 29.2523 36.9889 28.8467 36.9434 28.3818H38.1465C38.2012 28.7555 38.3105 29.07 38.4746 29.3252C38.6387 29.5804 38.8529 29.7741 39.1172 29.9062C39.3861 30.0339 39.6982 30.0977 40.0537 30.0977C40.3545 30.0977 40.6211 30.0452 40.8535 29.9404C41.0859 29.8356 41.2819 29.6852 41.4414 29.4893C41.6009 29.2933 41.7217 29.0563 41.8037 28.7783C41.8903 28.5003 41.9336 28.1882 41.9336 27.8418C41.9336 27.5273 41.8903 27.2357 41.8037 26.9668C41.7171 26.6979 41.5872 26.4632 41.4141 26.2627C41.2454 26.0622 41.0381 25.9072 40.792 25.7979C40.5459 25.6839 40.2633 25.627 39.9443 25.627C39.5205 25.627 39.1992 25.6839 38.9805 25.7979C38.7663 25.9118 38.5452 26.0667 38.3174 26.2627ZM51.3643 29.9609V31H44.8496V30.0908L48.1104 26.4609C48.5114 26.0143 48.8213 25.6361 49.04 25.3262C49.2633 25.0117 49.4183 24.7314 49.5049 24.4854C49.596 24.2347 49.6416 23.9795 49.6416 23.7197C49.6416 23.3916 49.5732 23.0954 49.4365 22.8311C49.3044 22.5622 49.1084 22.348 48.8486 22.1885C48.5889 22.029 48.2744 21.9492 47.9053 21.9492C47.4632 21.9492 47.0941 22.0358 46.7979 22.209C46.5062 22.3776 46.2874 22.6146 46.1416 22.9199C45.9958 23.2253 45.9229 23.5762 45.9229 23.9727H44.6582C44.6582 23.4121 44.7812 22.8994 45.0273 22.4346C45.2734 21.9697 45.638 21.6006 46.1211 21.3271C46.6042 21.0492 47.1989 20.9102 47.9053 20.9102C48.5342 20.9102 49.0719 21.0218 49.5186 21.2451C49.9652 21.4639 50.307 21.7738 50.5439 22.1748C50.7855 22.5713 50.9062 23.0361 50.9062 23.5693C50.9062 23.861 50.8561 24.1572 50.7559 24.458C50.6602 24.7542 50.5257 25.0505 50.3525 25.3467C50.1839 25.6429 49.9857 25.9346 49.7578 26.2217C49.5345 26.5088 49.2952 26.7913 49.04 27.0693L46.374 29.9609H51.3643Z" fill="#DDE4E1"/>
<path d="M350.667 24L358 31.3333L365.333 24C361.28 19.9466 354.72 19.9466 350.667 24Z" fill="#DDE4E1"/>
<path d="M378.667 19.3335L365.333 32.6668H378.667V19.3335Z" fill="#DDE4E1"/>
<path d="M389.594 18.9165H386.406V20.3332H384.812C384.226 20.3332 383.75 20.8089 383.75 21.3957V32.0207C383.75 32.6075 384.226 33.0832 384.812 33.0832H391.188C391.774 33.0832 392.25 32.6075 392.25 32.0207V21.3957C392.25 20.8089 391.774 20.3332 391.188 20.3332H389.594V18.9165Z" fill="#DDE4E1"/>
<rect x="194" y="14" width="24" height="24" rx="12" fill="#2E2E2E"/>
</svg>
