<svg width="63" height="11" viewBox="0 0 63 11" fill="none" xmlns="http://www.w3.org/2000/svg">
<path d="M5.02441 10H3.06934V2.15918H0.123047V0.197266H7.96387V2.15918H5.02441V10ZM11.2148 2.15918V6.08301H13.1768C13.4456 6.08301 13.6986 6.03288 13.9355 5.93262C14.1725 5.8278 14.3799 5.68652 14.5576 5.50879C14.7354 5.33105 14.8743 5.1237 14.9746 4.88672C15.0794 4.64518 15.1318 4.38997 15.1318 4.12109C15.1318 3.85221 15.0794 3.59928 14.9746 3.3623C14.8743 3.12077 14.7354 2.91113 14.5576 2.7334C14.3799 2.55566 14.1725 2.41667 13.9355 2.31641C13.6986 2.21159 13.4456 2.15918 13.1768 2.15918H11.2148ZM11.2148 10H9.25293V0.197266H13.1768C13.5368 0.197266 13.8831 0.245117 14.2158 0.34082C14.5485 0.431966 14.8584 0.564128 15.1455 0.737305C15.4372 0.905924 15.7015 1.111 15.9385 1.35254C16.18 1.58952 16.3851 1.85384 16.5537 2.14551C16.7269 2.43717 16.859 2.74935 16.9502 3.08203C17.0459 3.41471 17.0938 3.76107 17.0938 4.12109C17.0938 4.45833 17.0505 4.78646 16.9639 5.10547C16.8818 5.42448 16.7611 5.72754 16.6016 6.01465C16.4466 6.30176 16.2552 6.56608 16.0273 6.80762C15.7995 7.04915 15.5443 7.25879 15.2617 7.43652L16.3486 10H14.2637L13.4092 8.02441L11.2148 8.03809V10ZM28.2402 5.13965C28.2402 5.60449 28.1787 6.05339 28.0557 6.48633C27.9372 6.91471 27.7686 7.31803 27.5498 7.69629C27.3311 8.06999 27.0667 8.41178 26.7568 8.72168C26.4469 9.03158 26.1051 9.29818 25.7314 9.52148C25.3577 9.74023 24.9544 9.90885 24.5215 10.0273C24.0885 10.1504 23.6396 10.2119 23.1748 10.2119C22.71 10.2119 22.2611 10.1504 21.8281 10.0273C21.3997 9.90885 20.9964 9.74023 20.6182 9.52148C20.2445 9.29818 19.9027 9.03158 19.5928 8.72168C19.2829 8.41178 19.0163 8.06999 18.793 7.69629C18.5742 7.31803 18.4033 6.91471 18.2803 6.48633C18.1618 6.05339 18.1025 5.60449 18.1025 5.13965C18.1025 4.6748 18.1618 4.22591 18.2803 3.79297C18.4033 3.36003 18.5742 2.95671 18.793 2.58301C19.0163 2.20931 19.2829 1.86751 19.5928 1.55762C19.9027 1.24772 20.2445 0.983398 20.6182 0.764648C20.9964 0.545898 21.3997 0.377279 21.8281 0.258789C22.2611 0.135742 22.71 0.0742188 23.1748 0.0742188C23.6396 0.0742188 24.0885 0.135742 24.5215 0.258789C24.9544 0.377279 25.3577 0.545898 25.7314 0.764648C26.1051 0.983398 26.4469 1.24772 26.7568 1.55762C27.0667 1.86751 27.3311 2.20931 27.5498 2.58301C27.7686 2.95671 27.9372 3.36003 28.0557 3.79297C28.1787 4.22591 28.2402 4.6748 28.2402 5.13965ZM26.292 5.13965C26.292 4.71126 26.21 4.30794 26.0459 3.92969C25.8818 3.54688 25.6585 3.21647 25.376 2.93848C25.098 2.65592 24.7676 2.43262 24.3848 2.26855C24.0065 2.10449 23.6032 2.02246 23.1748 2.02246C22.7419 2.02246 22.3363 2.10449 21.958 2.26855C21.5798 2.43262 21.2493 2.65592 20.9668 2.93848C20.6842 3.21647 20.4609 3.54688 20.2969 3.92969C20.1328 4.30794 20.0508 4.71126 20.0508 5.13965C20.0508 5.56803 20.1328 5.97135 20.2969 6.34961C20.4609 6.72331 20.6842 7.05143 20.9668 7.33398C21.2493 7.61654 21.5798 7.83984 21.958 8.00391C22.3363 8.16797 22.7419 8.25 23.1748 8.25C23.6032 8.25 24.0065 8.16797 24.3848 8.00391C24.7676 7.83984 25.098 7.61654 25.376 7.33398C25.6585 7.05143 25.8818 6.72331 26.0459 6.34961C26.21 5.97135 26.292 5.56803 26.292 5.13965ZM33.665 6.08301C33.665 6.62533 33.5625 7.13574 33.3574 7.61426C33.1523 8.08822 32.8721 8.50293 32.5166 8.8584C32.1657 9.20931 31.751 9.4873 31.2725 9.69238C30.7985 9.89746 30.2904 10 29.748 10C29.4199 10 29.0918 9.95898 28.7637 9.87695V7.77148C28.9095 7.85807 29.0667 7.92415 29.2354 7.96973C29.404 8.0153 29.5749 8.03809 29.748 8.03809C30.0169 8.03809 30.2699 7.98796 30.5068 7.8877C30.7484 7.78288 30.958 7.6416 31.1357 7.46387C31.3135 7.28613 31.4525 7.07878 31.5527 6.8418C31.6576 6.60482 31.71 6.35189 31.71 6.08301V0.197266H33.665V6.08301ZM41.3252 6.08301V4.12109C41.3252 3.85221 41.2728 3.59928 41.168 3.3623C41.0677 3.12077 40.9287 2.91113 40.751 2.7334C40.5732 2.55566 40.3636 2.41667 40.1221 2.31641C39.8851 2.21159 39.6322 2.15918 39.3633 2.15918C39.0944 2.15918 38.8392 2.21159 38.5977 2.31641C38.3607 2.41667 38.1533 2.55566 37.9756 2.7334C37.7979 2.91113 37.6566 3.12077 37.5518 3.3623C37.4515 3.59928 37.4014 3.85221 37.4014 4.12109V6.08301H41.3252ZM43.2871 10H41.3252V8.03809H37.4014V10H35.4463V4.12109C35.4463 3.57878 35.5488 3.07064 35.7539 2.59668C35.959 2.11816 36.237 1.70117 36.5879 1.3457C36.9434 0.990234 37.3581 0.709961 37.832 0.504883C38.3105 0.299805 38.821 0.197266 39.3633 0.197266C39.9056 0.197266 40.4137 0.299805 40.8877 0.504883C41.3662 0.709961 41.7832 0.990234 42.1387 1.3457C42.4941 1.70117 42.7744 2.11816 42.9795 2.59668C43.1846 3.07064 43.2871 3.57878 43.2871 4.12109V10ZM53.0801 10H50.9814L47.2012 3.54688V10H45.2393V0.197266H47.3379L51.1182 6.65723V0.197266H53.0801V10ZM54.5811 3.13672C54.5811 2.73112 54.6585 2.35059 54.8135 1.99512C54.9684 1.63965 55.1781 1.32975 55.4424 1.06543C55.7113 0.796549 56.0234 0.584635 56.3789 0.429688C56.7344 0.27474 57.1149 0.197266 57.5205 0.197266H62.0186V2.15918H57.5205C57.3838 2.15918 57.2562 2.18424 57.1377 2.23438C57.0192 2.28451 56.9144 2.35514 56.8232 2.44629C56.7367 2.53288 56.6683 2.63542 56.6182 2.75391C56.568 2.8724 56.543 3 56.543 3.13672C56.543 3.27344 56.568 3.40332 56.6182 3.52637C56.6683 3.64486 56.7367 3.74967 56.8232 3.84082C56.9144 3.92741 57.0192 3.99577 57.1377 4.0459C57.2562 4.09603 57.3838 4.12109 57.5205 4.12109H59.4824C59.888 4.12109 60.2686 4.19857 60.624 4.35352C60.984 4.50391 61.2962 4.71354 61.5605 4.98242C61.8294 5.24674 62.0391 5.55892 62.1895 5.91895C62.3444 6.27441 62.4219 6.65495 62.4219 7.06055C62.4219 7.46615 62.3444 7.84668 62.1895 8.20215C62.0391 8.55762 61.8294 8.86979 61.5605 9.13867C61.2962 9.40299 60.984 9.61263 60.624 9.76758C60.2686 9.92253 59.888 10 59.4824 10H55.1279V8.03809H59.4824C59.6191 8.03809 59.7467 8.01302 59.8652 7.96289C59.9837 7.91276 60.0863 7.8444 60.1729 7.75781C60.264 7.66667 60.3346 7.56185 60.3848 7.44336C60.4349 7.32487 60.46 7.19727 60.46 7.06055C60.46 6.92383 60.4349 6.79622 60.3848 6.67773C60.3346 6.55924 60.264 6.45671 60.1729 6.37012C60.0863 6.27897 59.9837 6.20833 59.8652 6.1582C59.7467 6.10807 59.6191 6.08301 59.4824 6.08301H57.5205C57.1149 6.08301 56.7344 6.00553 56.3789 5.85059C56.0234 5.69564 55.7113 5.486 55.4424 5.22168C55.1781 4.9528 54.9684 4.64062 54.8135 4.28516C54.6585 3.92513 54.5811 3.54232 54.5811 3.13672Z" fill="black"/>
</svg>
