<svg width="71" height="20" viewBox="0 0 71 20" fill="none" xmlns="http://www.w3.org/2000/svg">
<g filter="url(#filter0_d_105_287)">
<path d="M7.5 0.439453V9H6.08789V2.11523L3.99609 2.82422V1.6582L7.33008 0.439453H7.5ZM14.7559 0.46875L11.4336 9.73242H10.3262L13.6543 0.46875H14.7559ZM20.0078 0.439453V9H18.5957V2.11523L16.5039 2.82422V1.6582L19.8379 0.439453H20.0078ZM29.0332 4.01953V5.41406C29.0332 6.08203 28.9668 6.65234 28.834 7.125C28.7051 7.59375 28.5176 7.97461 28.2715 8.26758C28.0254 8.56055 27.7305 8.77539 27.3867 8.91211C27.0469 9.04883 26.666 9.11719 26.2441 9.11719C25.9082 9.11719 25.5957 9.07422 25.3066 8.98828C25.0215 8.90234 24.7637 8.76758 24.5332 8.58398C24.3027 8.40039 24.1055 8.16406 23.9414 7.875C23.7812 7.58203 23.6562 7.23242 23.5664 6.82617C23.4805 6.41992 23.4375 5.94922 23.4375 5.41406V4.01953C23.4375 3.34766 23.5039 2.78125 23.6367 2.32031C23.7695 1.85547 23.959 1.47852 24.2051 1.18945C24.4512 0.896484 24.7441 0.683594 25.084 0.550781C25.4277 0.417969 25.8105 0.351562 26.2324 0.351562C26.5723 0.351562 26.8848 0.394531 27.1699 0.480469C27.459 0.5625 27.7168 0.693359 27.9434 0.873047C28.1738 1.05273 28.3691 1.28711 28.5293 1.57617C28.6934 1.86133 28.8184 2.20703 28.9043 2.61328C28.9902 3.01562 29.0332 3.48438 29.0332 4.01953ZM27.6211 5.61328V3.80859C27.6211 3.46875 27.6016 3.16992 27.5625 2.91211C27.5234 2.65039 27.4648 2.42969 27.3867 2.25C27.3125 2.06641 27.2188 1.91797 27.1055 1.80469C26.9922 1.6875 26.8633 1.60352 26.7188 1.55273C26.5742 1.49805 26.4121 1.4707 26.2324 1.4707C26.0137 1.4707 25.8184 1.51367 25.6465 1.59961C25.4746 1.68164 25.3301 1.81445 25.2129 1.99805C25.0957 2.18164 25.0059 2.42383 24.9434 2.72461C24.8848 3.02148 24.8555 3.38281 24.8555 3.80859V5.61328C24.8555 5.95703 24.875 6.25977 24.9141 6.52148C24.9531 6.7832 25.0117 7.00781 25.0898 7.19531C25.168 7.37891 25.2617 7.53125 25.3711 7.65234C25.4844 7.76953 25.6133 7.85547 25.7578 7.91016C25.9062 7.96484 26.0684 7.99219 26.2441 7.99219C26.4668 7.99219 26.6641 7.94922 26.8359 7.86328C27.0078 7.77734 27.1523 7.64062 27.2695 7.45312C27.3867 7.26172 27.4746 7.01367 27.5332 6.70898C27.5918 6.4043 27.6211 6.03906 27.6211 5.61328ZM38.9922 6.80273C38.9922 6.62695 38.9648 6.4707 38.9102 6.33398C38.8594 6.19727 38.7676 6.07227 38.6348 5.95898C38.502 5.8457 38.3145 5.73633 38.0723 5.63086C37.834 5.52148 37.5293 5.41016 37.1582 5.29688C36.752 5.17188 36.377 5.0332 36.0332 4.88086C35.6934 4.72461 35.3965 4.54492 35.1426 4.3418C34.8887 4.13477 34.6914 3.89844 34.5508 3.63281C34.4102 3.36328 34.3398 3.05273 34.3398 2.70117C34.3398 2.35352 34.4121 2.03711 34.5566 1.75195C34.7051 1.4668 34.9141 1.2207 35.1836 1.01367C35.457 0.802734 35.7793 0.640625 36.1504 0.527344C36.5215 0.410156 36.9316 0.351562 37.3809 0.351562C38.0137 0.351562 38.5586 0.46875 39.0156 0.703125C39.4766 0.9375 39.8301 1.25195 40.0762 1.64648C40.3262 2.04102 40.4512 2.47656 40.4512 2.95312H38.9922C38.9922 2.67188 38.9316 2.42383 38.8105 2.20898C38.6934 1.99023 38.5137 1.81836 38.2715 1.69336C38.0332 1.56836 37.7305 1.50586 37.3633 1.50586C37.0156 1.50586 36.7266 1.55859 36.4961 1.66406C36.2656 1.76953 36.0938 1.91211 35.9805 2.0918C35.8672 2.27148 35.8105 2.47461 35.8105 2.70117C35.8105 2.86133 35.8477 3.00781 35.9219 3.14062C35.9961 3.26953 36.1094 3.39062 36.2617 3.50391C36.4141 3.61328 36.6055 3.7168 36.8359 3.81445C37.0664 3.91211 37.3379 4.00586 37.6504 4.0957C38.123 4.23633 38.5352 4.39258 38.8867 4.56445C39.2383 4.73242 39.5312 4.92383 39.7656 5.13867C40 5.35352 40.1758 5.59766 40.293 5.87109C40.4102 6.14062 40.4688 6.44727 40.4688 6.79102C40.4688 7.15039 40.3965 7.47461 40.252 7.76367C40.1074 8.04883 39.9004 8.29297 39.6309 8.49609C39.3652 8.69531 39.0449 8.84961 38.6699 8.95898C38.2988 9.06445 37.8848 9.11719 37.4277 9.11719C37.0176 9.11719 36.6133 9.0625 36.2148 8.95312C35.8203 8.84375 35.4609 8.67773 35.1367 8.45508C34.8125 8.22852 34.5547 7.94727 34.3633 7.61133C34.1719 7.27148 34.0762 6.875 34.0762 6.42188H35.5469C35.5469 6.69922 35.5938 6.93555 35.6875 7.13086C35.7852 7.32617 35.9199 7.48633 36.0918 7.61133C36.2637 7.73242 36.4629 7.82227 36.6895 7.88086C36.9199 7.93945 37.166 7.96875 37.4277 7.96875C37.7715 7.96875 38.0586 7.91992 38.2891 7.82227C38.5234 7.72461 38.6992 7.58789 38.8164 7.41211C38.9336 7.23633 38.9922 7.0332 38.9922 6.80273ZM43.5469 3.87891V11.4375H42.1348V2.66016H43.4355L43.5469 3.87891ZM47.6777 5.77148V5.89453C47.6777 6.35547 47.623 6.7832 47.5137 7.17773C47.4082 7.56836 47.25 7.91016 47.0391 8.20312C46.832 8.49219 46.5762 8.7168 46.2715 8.87695C45.9668 9.03711 45.6152 9.11719 45.2168 9.11719C44.8223 9.11719 44.4766 9.04492 44.1797 8.90039C43.8867 8.75195 43.6387 8.54297 43.4355 8.27344C43.2324 8.00391 43.0684 7.6875 42.9434 7.32422C42.8223 6.95703 42.7363 6.55469 42.6855 6.11719V5.64258C42.7363 5.17773 42.8223 4.75586 42.9434 4.37695C43.0684 3.99805 43.2324 3.67188 43.4355 3.39844C43.6387 3.125 43.8867 2.91406 44.1797 2.76562C44.4727 2.61719 44.8145 2.54297 45.2051 2.54297C45.6035 2.54297 45.957 2.62109 46.2656 2.77734C46.5742 2.92969 46.834 3.14844 47.0449 3.43359C47.2559 3.71484 47.4141 4.05469 47.5195 4.45312C47.625 4.84766 47.6777 5.28711 47.6777 5.77148ZM46.2656 5.89453V5.77148C46.2656 5.47852 46.2383 5.20703 46.1836 4.95703C46.1289 4.70312 46.043 4.48047 45.9258 4.28906C45.8086 4.09766 45.6582 3.94922 45.4746 3.84375C45.2949 3.73438 45.0781 3.67969 44.8242 3.67969C44.5742 3.67969 44.3594 3.72266 44.1797 3.80859C44 3.89062 43.8496 4.00586 43.7285 4.1543C43.6074 4.30273 43.5137 4.47656 43.4473 4.67578C43.3809 4.87109 43.334 5.08398 43.3066 5.31445V6.45117C43.3535 6.73242 43.4336 6.99023 43.5469 7.22461C43.6602 7.45898 43.8203 7.64648 44.0273 7.78711C44.2383 7.92383 44.5078 7.99219 44.8359 7.99219C45.0898 7.99219 45.3066 7.9375 45.4863 7.82812C45.666 7.71875 45.8125 7.56836 45.9258 7.37695C46.043 7.18164 46.1289 6.95703 46.1836 6.70312C46.2383 6.44922 46.2656 6.17969 46.2656 5.89453ZM49.1094 5.90039V5.76562C49.1094 5.30859 49.1758 4.88477 49.3086 4.49414C49.4414 4.09961 49.6328 3.75781 49.8828 3.46875C50.1367 3.17578 50.4453 2.94922 50.8086 2.78906C51.1758 2.625 51.5898 2.54297 52.0508 2.54297C52.5156 2.54297 52.9297 2.625 53.293 2.78906C53.6602 2.94922 53.9707 3.17578 54.2246 3.46875C54.4785 3.75781 54.6719 4.09961 54.8047 4.49414C54.9375 4.88477 55.0039 5.30859 55.0039 5.76562V5.90039C55.0039 6.35742 54.9375 6.78125 54.8047 7.17188C54.6719 7.5625 54.4785 7.9043 54.2246 8.19727C53.9707 8.48633 53.6621 8.71289 53.2988 8.87695C52.9355 9.03711 52.5234 9.11719 52.0625 9.11719C51.5977 9.11719 51.1816 9.03711 50.8145 8.87695C50.4512 8.71289 50.1426 8.48633 49.8887 8.19727C49.6348 7.9043 49.4414 7.5625 49.3086 7.17188C49.1758 6.78125 49.1094 6.35742 49.1094 5.90039ZM50.5215 5.76562V5.90039C50.5215 6.18555 50.5508 6.45508 50.6094 6.70898C50.668 6.96289 50.7598 7.18555 50.8848 7.37695C51.0098 7.56836 51.1699 7.71875 51.3652 7.82812C51.5605 7.9375 51.793 7.99219 52.0625 7.99219C52.3242 7.99219 52.5508 7.9375 52.7422 7.82812C52.9375 7.71875 53.0977 7.56836 53.2227 7.37695C53.3477 7.18555 53.4395 6.96289 53.498 6.70898C53.5605 6.45508 53.5918 6.18555 53.5918 5.90039V5.76562C53.5918 5.48438 53.5605 5.21875 53.498 4.96875C53.4395 4.71484 53.3457 4.49023 53.2168 4.29492C53.0918 4.09961 52.9316 3.94727 52.7363 3.83789C52.5449 3.72461 52.3164 3.66797 52.0508 3.66797C51.7852 3.66797 51.5547 3.72461 51.3594 3.83789C51.168 3.94727 51.0098 4.09961 50.8848 4.29492C50.7598 4.49023 50.668 4.71484 50.6094 4.96875C50.5508 5.21875 50.5215 5.48438 50.5215 5.76562ZM59.5938 2.66016V3.69141H56.0195V2.66016H59.5938ZM57.0508 1.10742H58.4629V7.24805C58.4629 7.44336 58.4902 7.59375 58.5449 7.69922C58.6035 7.80078 58.6836 7.86914 58.7852 7.9043C58.8867 7.93945 59.0059 7.95703 59.1426 7.95703C59.2402 7.95703 59.334 7.95117 59.4238 7.93945C59.5137 7.92773 59.5859 7.91602 59.6406 7.9043L59.6465 8.98242C59.5293 9.01758 59.3926 9.04883 59.2363 9.07617C59.084 9.10352 58.9082 9.11719 58.709 9.11719C58.3848 9.11719 58.0977 9.06055 57.8477 8.94727C57.5977 8.83008 57.4023 8.64062 57.2617 8.37891C57.1211 8.11719 57.0508 7.76953 57.0508 7.33594V1.10742ZM64.7402 7.2832C64.7402 7.14258 64.7051 7.01562 64.6348 6.90234C64.5645 6.78516 64.4297 6.67969 64.2305 6.58594C64.0352 6.49219 63.7461 6.40625 63.3633 6.32812C63.0273 6.25391 62.7188 6.16602 62.4375 6.06445C62.1602 5.95898 61.9219 5.83203 61.7227 5.68359C61.5234 5.53516 61.3691 5.35938 61.2598 5.15625C61.1504 4.95312 61.0957 4.71875 61.0957 4.45312C61.0957 4.19531 61.1523 3.95117 61.2656 3.7207C61.3789 3.49023 61.541 3.28711 61.752 3.11133C61.9629 2.93555 62.2188 2.79688 62.5195 2.69531C62.8242 2.59375 63.1641 2.54297 63.5391 2.54297C64.0703 2.54297 64.5254 2.63281 64.9043 2.8125C65.2871 2.98828 65.5801 3.22852 65.7832 3.5332C65.9863 3.83398 66.0879 4.17383 66.0879 4.55273H64.6758C64.6758 4.38477 64.6328 4.22852 64.5469 4.08398C64.4648 3.93555 64.3398 3.81641 64.1719 3.72656C64.0039 3.63281 63.793 3.58594 63.5391 3.58594C63.2969 3.58594 63.0957 3.625 62.9355 3.70312C62.7793 3.77734 62.6621 3.875 62.584 3.99609C62.5098 4.11719 62.4727 4.25 62.4727 4.39453C62.4727 4.5 62.4922 4.5957 62.5312 4.68164C62.5742 4.76367 62.6445 4.83984 62.7422 4.91016C62.8398 4.97656 62.9727 5.03906 63.1406 5.09766C63.3125 5.15625 63.5273 5.21289 63.7852 5.26758C64.2695 5.36914 64.6855 5.5 65.0332 5.66016C65.3848 5.81641 65.6543 6.01953 65.8418 6.26953C66.0293 6.51562 66.123 6.82812 66.123 7.20703C66.123 7.48828 66.0625 7.74609 65.9414 7.98047C65.8242 8.21094 65.6523 8.41211 65.4258 8.58398C65.1992 8.75195 64.9277 8.88281 64.6113 8.97656C64.2988 9.07031 63.9473 9.11719 63.5566 9.11719C62.9824 9.11719 62.4961 9.01562 62.0977 8.8125C61.6992 8.60547 61.3965 8.3418 61.1895 8.02148C60.9863 7.69727 60.8848 7.36133 60.8848 7.01367H62.25C62.2656 7.27539 62.3379 7.48438 62.4668 7.64062C62.5996 7.79297 62.7637 7.9043 62.959 7.97461C63.1582 8.04102 63.3633 8.07422 63.5742 8.07422C63.8281 8.07422 64.041 8.04102 64.2129 7.97461C64.3848 7.9043 64.5156 7.81055 64.6055 7.69336C64.6953 7.57227 64.7402 7.43555 64.7402 7.2832Z" fill="black"/>
</g>
<defs>
<filter id="filter0_d_105_287" x="-0.00390625" y="0.351562" width="70.127" height="19.0859" filterUnits="userSpaceOnUse" color-interpolation-filters="sRGB">
<feFlood flood-opacity="0" result="BackgroundImageFix"/>
<feColorMatrix in="SourceAlpha" type="matrix" values="0 0 0 0 0 0 0 0 0 0 0 0 0 0 0 0 0 0 127 0" result="hardAlpha"/>
<feOffset dy="4"/>
<feGaussianBlur stdDeviation="2"/>
<feComposite in2="hardAlpha" operator="out"/>
<feColorMatrix type="matrix" values="0 0 0 0 0 0 0 0 0 0 0 0 0 0 0 0 0 0 0.25 0"/>
<feBlend mode="normal" in2="BackgroundImageFix" result="effect1_dropShadow_105_287"/>
<feBlend mode="normal" in="SourceGraphic" in2="effect1_dropShadow_105_287" result="shape"/>
</filter>
</defs>
</svg>
