<svg width="92" height="22" viewBox="0 0 92 22" fill="none" xmlns="http://www.w3.org/2000/svg">
<g filter="url(#filter0_d_105_240)">
<path d="M8.61582 6.63184H6.05918L6.04551 5.22363H8.19199C8.57025 5.22363 8.88014 5.17578 9.12168 5.08008C9.36322 4.97982 9.54323 4.83626 9.66172 4.64941C9.78477 4.45801 9.84629 4.22559 9.84629 3.95215C9.84629 3.64225 9.78705 3.3916 9.66856 3.2002C9.55462 3.00879 9.37461 2.86979 9.12852 2.7832C8.88698 2.69661 8.57481 2.65332 8.19199 2.65332H6.77012V11H4.71934V1.04688H8.19199C8.77077 1.04688 9.28802 1.10156 9.74375 1.21094C10.204 1.32031 10.5937 1.48665 10.9127 1.70996C11.2317 1.93327 11.4755 2.21582 11.6441 2.55762C11.8128 2.89486 11.8971 3.2959 11.8971 3.76074C11.8971 4.1709 11.8036 4.54915 11.6168 4.89551C11.4345 5.24186 11.1451 5.52441 10.7486 5.74316C10.3567 5.96191 9.84401 6.08268 9.21055 6.10547L8.61582 6.63184ZM8.52695 11H5.49863L6.29844 9.40039H8.52695C8.88698 9.40039 9.18093 9.34342 9.40879 9.22949C9.63666 9.111 9.80527 8.9515 9.91465 8.75098C10.024 8.55046 10.0787 8.32031 10.0787 8.06055C10.0787 7.76888 10.0286 7.51595 9.92832 7.30176C9.83262 7.08757 9.67767 6.9235 9.46348 6.80957C9.24929 6.69108 8.96673 6.63184 8.61582 6.63184H6.64024L6.65391 5.22363H9.11485L9.58652 5.77734C10.1926 5.76823 10.6803 5.87533 11.0494 6.09863C11.4231 6.31738 11.6943 6.60221 11.8629 6.95312C12.0361 7.30404 12.1227 7.68001 12.1227 8.08105C12.1227 8.71908 11.9837 9.25684 11.7057 9.69434C11.4277 10.1273 11.0198 10.4531 10.482 10.6719C9.94883 10.8906 9.29714 11 8.52695 11ZM17.6299 9.33203V6.03711C17.6299 5.80013 17.5911 5.59733 17.5137 5.42871C17.4362 5.25553 17.3154 5.12109 17.1514 5.02539C16.9919 4.92969 16.7845 4.88184 16.5293 4.88184C16.3105 4.88184 16.1214 4.92057 15.9619 4.99805C15.8024 5.07096 15.6794 5.17806 15.5928 5.31934C15.5062 5.45605 15.4629 5.61784 15.4629 5.80469H13.4941C13.4941 5.49023 13.5671 5.19173 13.7129 4.90918C13.8587 4.62663 14.0706 4.37826 14.3486 4.16406C14.6266 3.94531 14.957 3.77441 15.3398 3.65137C15.7272 3.52832 16.1602 3.4668 16.6387 3.4668C17.2129 3.4668 17.7233 3.5625 18.1699 3.75391C18.6165 3.94531 18.9674 4.23242 19.2227 4.61523C19.4824 4.99805 19.6123 5.47656 19.6123 6.05078V9.21582C19.6123 9.62142 19.6374 9.9541 19.6875 10.2139C19.7376 10.4691 19.8105 10.6924 19.9062 10.8838V11H17.917C17.8213 10.7995 17.7484 10.5488 17.6982 10.248C17.6527 9.94271 17.6299 9.63737 17.6299 9.33203ZM17.8896 6.49512L17.9033 7.60938H16.8027C16.543 7.60938 16.3174 7.639 16.126 7.69824C15.9346 7.75749 15.7773 7.8418 15.6543 7.95117C15.5312 8.05599 15.4401 8.17904 15.3809 8.32031C15.3262 8.46159 15.2988 8.61654 15.2988 8.78516C15.2988 8.95378 15.3376 9.10645 15.415 9.24316C15.4925 9.37533 15.6042 9.48014 15.75 9.55762C15.8958 9.63053 16.0667 9.66699 16.2627 9.66699C16.5589 9.66699 16.8164 9.60775 17.0352 9.48926C17.2539 9.37077 17.4225 9.22493 17.541 9.05176C17.6641 8.87858 17.7279 8.71452 17.7324 8.55957L18.252 9.39355C18.179 9.5804 18.0788 9.77409 17.9512 9.97461C17.8281 10.1751 17.6709 10.3643 17.4795 10.542C17.2881 10.7152 17.0579 10.8587 16.7891 10.9727C16.5202 11.082 16.2012 11.1367 15.832 11.1367C15.3626 11.1367 14.9365 11.0433 14.5537 10.8564C14.1755 10.665 13.8747 10.403 13.6514 10.0703C13.4326 9.73307 13.3232 9.35026 13.3232 8.92188C13.3232 8.53451 13.3962 8.19043 13.542 7.88965C13.6878 7.58887 13.902 7.33594 14.1846 7.13086C14.4717 6.92122 14.8294 6.764 15.2578 6.65918C15.6862 6.5498 16.1829 6.49512 16.748 6.49512H17.8896ZM24.8529 3.60352V4.99805H20.5463V3.60352H24.8529ZM21.6127 1.77832H23.5814V8.77148C23.5814 8.98568 23.6088 9.14974 23.6635 9.26367C23.7227 9.3776 23.8093 9.45736 23.9232 9.50293C24.0372 9.54395 24.1807 9.56445 24.3539 9.56445C24.477 9.56445 24.5863 9.5599 24.682 9.55078C24.7823 9.53711 24.8666 9.52344 24.935 9.50977L24.9418 10.959C24.7732 11.0137 24.5909 11.057 24.3949 11.0889C24.199 11.1208 23.9825 11.1367 23.7455 11.1367C23.3126 11.1367 22.9343 11.0661 22.6107 10.9248C22.2917 10.779 22.0456 10.5465 21.8725 10.2275C21.6993 9.90853 21.6127 9.48926 21.6127 8.96973V1.77832ZM29.6971 3.60352V4.99805H25.3904V3.60352H29.6971ZM26.4568 1.77832H28.4256V8.77148C28.4256 8.98568 28.4529 9.14974 28.5076 9.26367C28.5669 9.3776 28.6535 9.45736 28.7674 9.50293C28.8813 9.54395 29.0249 9.56445 29.198 9.56445C29.3211 9.56445 29.4305 9.5599 29.5262 9.55078C29.6264 9.53711 29.7107 9.52344 29.7791 9.50977L29.7859 10.959C29.6173 11.0137 29.435 11.057 29.2391 11.0889C29.0431 11.1208 28.8266 11.1367 28.5896 11.1367C28.1567 11.1367 27.7785 11.0661 27.4549 10.9248C27.1359 10.779 26.8898 10.5465 26.7166 10.2275C26.5434 9.90853 26.4568 9.48926 26.4568 8.96973V1.77832ZM32.9963 0.5V11H31.0207V0.5H32.9963ZM38.1275 11.1367C37.5533 11.1367 37.0383 11.0456 36.5826 10.8633C36.1269 10.6764 35.7395 10.4189 35.4205 10.0908C35.1061 9.7627 34.8645 9.38216 34.6959 8.94922C34.5273 8.51172 34.443 8.04688 34.443 7.55469V7.28125C34.443 6.7207 34.5227 6.20801 34.6822 5.74316C34.8417 5.27832 35.0696 4.875 35.3658 4.5332C35.6666 4.19141 36.0312 3.92936 36.4596 3.74707C36.888 3.56022 37.371 3.4668 37.9088 3.4668C38.4329 3.4668 38.8977 3.55339 39.3033 3.72656C39.7089 3.89974 40.0484 4.14583 40.3219 4.46484C40.5999 4.78385 40.8095 5.16667 40.9508 5.61328C41.0921 6.05534 41.1627 6.54753 41.1627 7.08984V7.91016H35.2838V6.59766H39.2281V6.44727C39.2281 6.17383 39.178 5.93001 39.0777 5.71582C38.982 5.49707 38.8362 5.32389 38.6402 5.19629C38.4443 5.06868 38.1936 5.00488 37.8883 5.00488C37.6285 5.00488 37.4052 5.06185 37.2184 5.17578C37.0315 5.28971 36.8788 5.44922 36.7604 5.6543C36.6464 5.85938 36.5598 6.10091 36.5006 6.37891C36.4459 6.65234 36.4186 6.95312 36.4186 7.28125V7.55469C36.4186 7.85091 36.4596 8.12435 36.5416 8.375C36.6282 8.62565 36.749 8.84212 36.9039 9.02441C37.0634 9.20671 37.2548 9.34798 37.4781 9.44824C37.706 9.5485 37.9635 9.59863 38.2506 9.59863C38.6061 9.59863 38.9365 9.53027 39.2418 9.39355C39.5517 9.25228 39.8183 9.04036 40.0416 8.75781L40.9986 9.79688C40.8437 10.0202 40.6318 10.2344 40.3629 10.4395C40.0986 10.6445 39.7796 10.8132 39.4059 10.9453C39.0322 11.0729 38.6061 11.1367 38.1275 11.1367ZM46.0932 1.04688H49.8051C50.5662 1.04688 51.2201 1.16081 51.767 1.38867C52.3184 1.61654 52.7423 1.95378 53.0385 2.40039C53.3347 2.84701 53.4828 3.39616 53.4828 4.04785C53.4828 4.58105 53.3917 5.03906 53.2094 5.42188C53.0316 5.80013 52.7787 6.11686 52.4506 6.37207C52.127 6.62272 51.7465 6.82324 51.309 6.97363L50.6596 7.31543H47.433L47.4193 5.71582H49.8188C50.1788 5.71582 50.4773 5.65202 50.7143 5.52441C50.9512 5.39681 51.129 5.21908 51.2475 4.99121C51.3705 4.76335 51.432 4.49902 51.432 4.19824C51.432 3.87923 51.3728 3.60352 51.2543 3.37109C51.1358 3.13867 50.9558 2.96094 50.7143 2.83789C50.4727 2.71484 50.1697 2.65332 49.8051 2.65332H48.144V11H46.0932V1.04688ZM51.6576 11L49.3881 6.56348L51.5551 6.5498L53.852 10.9043V11H51.6576ZM54.7244 7.37695V7.2334C54.7244 6.69108 54.8019 6.19206 54.9568 5.73633C55.1118 5.27604 55.3374 4.87728 55.6336 4.54004C55.9298 4.2028 56.2944 3.94076 56.7273 3.75391C57.1603 3.5625 57.657 3.4668 58.2176 3.4668C58.7781 3.4668 59.2771 3.5625 59.7146 3.75391C60.1521 3.94076 60.519 4.2028 60.8152 4.54004C61.116 4.87728 61.3439 5.27604 61.4988 5.73633C61.6538 6.19206 61.7312 6.69108 61.7312 7.2334V7.37695C61.7312 7.91471 61.6538 8.41374 61.4988 8.87402C61.3439 9.32975 61.116 9.72852 60.8152 10.0703C60.519 10.4076 60.1544 10.6696 59.7215 10.8564C59.2885 11.0433 58.7918 11.1367 58.2312 11.1367C57.6707 11.1367 57.1717 11.0433 56.7342 10.8564C56.3012 10.6696 55.9344 10.4076 55.6336 10.0703C55.3374 9.72852 55.1118 9.32975 54.9568 8.87402C54.8019 8.41374 54.7244 7.91471 54.7244 7.37695ZM56.6932 7.2334V7.37695C56.6932 7.68685 56.7205 7.97624 56.7752 8.24512C56.8299 8.514 56.9165 8.75098 57.035 8.95605C57.158 9.15658 57.3175 9.3138 57.5135 9.42773C57.7094 9.54167 57.9487 9.59863 58.2312 9.59863C58.5047 9.59863 58.7394 9.54167 58.9353 9.42773C59.1313 9.3138 59.2885 9.15658 59.407 8.95605C59.5255 8.75098 59.6121 8.514 59.6668 8.24512C59.726 7.97624 59.7557 7.68685 59.7557 7.37695V7.2334C59.7557 6.93262 59.726 6.65007 59.6668 6.38574C59.6121 6.11686 59.5232 5.87988 59.4002 5.6748C59.2817 5.46517 59.1245 5.30111 58.9285 5.18262C58.7325 5.06413 58.4956 5.00488 58.2176 5.00488C57.9396 5.00488 57.7026 5.06413 57.5066 5.18262C57.3152 5.30111 57.158 5.46517 57.035 5.6748C56.9165 5.87988 56.8299 6.11686 56.7752 6.38574C56.7205 6.65007 56.6932 6.93262 56.6932 7.2334ZM65.1262 10.166L67.0881 3.60352H69.2004L66.2268 12.1143C66.163 12.3011 66.0764 12.5016 65.967 12.7158C65.8622 12.93 65.7186 13.1328 65.5363 13.3242C65.3586 13.5202 65.133 13.6797 64.8596 13.8027C64.5907 13.9258 64.2603 13.9873 63.8684 13.9873C63.6815 13.9873 63.5288 13.9759 63.4104 13.9531C63.2919 13.9303 63.1506 13.8984 62.9865 13.8574V12.415C63.0367 12.415 63.0891 12.415 63.1438 12.415C63.1984 12.4196 63.2508 12.4219 63.301 12.4219C63.5607 12.4219 63.7727 12.3923 63.9367 12.333C64.1008 12.2738 64.2329 12.1826 64.3332 12.0596C64.4335 11.9411 64.5132 11.7861 64.5725 11.5947L65.1262 10.166ZM64.3059 3.60352L65.9123 8.96289L66.1926 11.0479L64.8527 11.1914L62.1936 3.60352H64.3059ZM73.9693 9.33203V6.03711C73.9693 5.80013 73.9306 5.59733 73.8531 5.42871C73.7757 5.25553 73.6549 5.12109 73.4908 5.02539C73.3313 4.92969 73.124 4.88184 72.8688 4.88184C72.65 4.88184 72.4609 4.92057 72.3014 4.99805C72.1419 5.07096 72.0188 5.17806 71.9322 5.31934C71.8456 5.45605 71.8023 5.61784 71.8023 5.80469H69.8336C69.8336 5.49023 69.9065 5.19173 70.0523 4.90918C70.1982 4.62663 70.4101 4.37826 70.6881 4.16406C70.9661 3.94531 71.2965 3.77441 71.6793 3.65137C72.0667 3.52832 72.4996 3.4668 72.9781 3.4668C73.5523 3.4668 74.0628 3.5625 74.5094 3.75391C74.956 3.94531 75.3069 4.23242 75.5621 4.61523C75.8219 4.99805 75.9518 5.47656 75.9518 6.05078V9.21582C75.9518 9.62142 75.9768 9.9541 76.027 10.2139C76.0771 10.4691 76.15 10.6924 76.2457 10.8838V11H74.2564C74.1607 10.7995 74.0878 10.5488 74.0377 10.248C73.9921 9.94271 73.9693 9.63737 73.9693 9.33203ZM74.2291 6.49512L74.2428 7.60938H73.1422C72.8824 7.60938 72.6568 7.639 72.4654 7.69824C72.274 7.75749 72.1168 7.8418 71.9938 7.95117C71.8707 8.05599 71.7796 8.17904 71.7203 8.32031C71.6656 8.46159 71.6383 8.61654 71.6383 8.78516C71.6383 8.95378 71.677 9.10645 71.7545 9.24316C71.832 9.37533 71.9436 9.48014 72.0895 9.55762C72.2353 9.63053 72.4062 9.66699 72.6021 9.66699C72.8984 9.66699 73.1559 9.60775 73.3746 9.48926C73.5934 9.37077 73.762 9.22493 73.8805 9.05176C74.0035 8.87858 74.0673 8.71452 74.0719 8.55957L74.5914 9.39355C74.5185 9.5804 74.4182 9.77409 74.2906 9.97461C74.1676 10.1751 74.0104 10.3643 73.8189 10.542C73.6275 10.7152 73.3974 10.8587 73.1285 10.9727C72.8596 11.082 72.5406 11.1367 72.1715 11.1367C71.7021 11.1367 71.276 11.0433 70.8932 10.8564C70.5149 10.665 70.2141 10.403 69.9908 10.0703C69.7721 9.73307 69.6627 9.35026 69.6627 8.92188C69.6627 8.53451 69.7356 8.19043 69.8814 7.88965C70.0273 7.58887 70.2415 7.33594 70.524 7.13086C70.8111 6.92122 71.1689 6.764 71.5973 6.65918C72.0257 6.5498 72.5224 6.49512 73.0875 6.49512H74.2291ZM79.6475 0.5V11H77.6719V0.5H79.6475ZM84.7787 11.1367C84.2045 11.1367 83.6895 11.0456 83.2338 10.8633C82.7781 10.6764 82.3907 10.4189 82.0717 10.0908C81.7572 9.7627 81.5157 9.38216 81.3471 8.94922C81.1784 8.51172 81.0941 8.04688 81.0941 7.55469V7.28125C81.0941 6.7207 81.1739 6.20801 81.3334 5.74316C81.4929 5.27832 81.7208 4.875 82.017 4.5332C82.3178 4.19141 82.6824 3.92936 83.1107 3.74707C83.5391 3.56022 84.0222 3.4668 84.56 3.4668C85.084 3.4668 85.5489 3.55339 85.9545 3.72656C86.3601 3.89974 86.6996 4.14583 86.973 4.46484C87.251 4.78385 87.4607 5.16667 87.602 5.61328C87.7432 6.05534 87.8139 6.54753 87.8139 7.08984V7.91016H81.935V6.59766H85.8793V6.44727C85.8793 6.17383 85.8292 5.93001 85.7289 5.71582C85.6332 5.49707 85.4874 5.32389 85.2914 5.19629C85.0954 5.06868 84.8448 5.00488 84.5395 5.00488C84.2797 5.00488 84.0564 5.06185 83.8695 5.17578C83.6827 5.28971 83.53 5.44922 83.4115 5.6543C83.2976 5.85938 83.211 6.10091 83.1518 6.37891C83.0971 6.65234 83.0697 6.95312 83.0697 7.28125V7.55469C83.0697 7.85091 83.1107 8.12435 83.1928 8.375C83.2794 8.62565 83.4001 8.84212 83.5551 9.02441C83.7146 9.20671 83.906 9.34798 84.1293 9.44824C84.3572 9.5485 84.6146 9.59863 84.9018 9.59863C85.2572 9.59863 85.5876 9.53027 85.893 9.39355C86.2029 9.25228 86.4695 9.04036 86.6928 8.75781L87.6498 9.79688C87.4949 10.0202 87.2829 10.2344 87.0141 10.4395C86.7497 10.6445 86.4307 10.8132 86.057 10.9453C85.6833 11.0729 85.2572 11.1367 84.7787 11.1367Z" fill="white"/>
</g>
<defs>
<filter id="filter0_d_105_240" x="0.719238" y="0.5" width="91.0947" height="21.4873" filterUnits="userSpaceOnUse" color-interpolation-filters="sRGB">
<feFlood flood-opacity="0" result="BackgroundImageFix"/>
<feColorMatrix in="SourceAlpha" type="matrix" values="0 0 0 0 0 0 0 0 0 0 0 0 0 0 0 0 0 0 127 0" result="hardAlpha"/>
<feOffset dy="4"/>
<feGaussianBlur stdDeviation="2"/>
<feComposite in2="hardAlpha" operator="out"/>
<feColorMatrix type="matrix" values="0 0 0 0 0 0 0 0 0 0 0 0 0 0 0 0 0 0 0.25 0"/>
<feBlend mode="normal" in2="BackgroundImageFix" result="effect1_dropShadow_105_240"/>
<feBlend mode="normal" in="SourceGraphic" in2="effect1_dropShadow_105_240" result="shape"/>
</filter>
</defs>
</svg>
