<svg width="121" height="36" viewBox="0 0 121 36" fill="none" xmlns="http://www.w3.org/2000/svg">
<path d="M1.99893 9.54545H5.86825L11.0501 22.1932H11.2546L16.4364 9.54545H20.3058V27H17.2717V15.0085H17.1097L12.2859 26.9489H10.0188L5.19496 14.983H5.03303V27H1.99893V9.54545ZM25.5302 31.9091C25.1097 31.9091 24.7205 31.875 24.3626 31.8068C24.0103 31.7443 23.729 31.6705 23.5188 31.5852L24.2347 29.1818C24.6836 29.3125 25.0842 29.375 25.4364 29.3693C25.7887 29.3636 26.0984 29.2528 26.3654 29.0369C26.6381 28.8267 26.8683 28.4744 27.0558 27.9801L27.32 27.2727L22.5728 13.9091H25.8455L28.8626 23.7955H28.9989L32.0245 13.9091H35.3058L30.0643 28.5852C29.82 29.2784 29.4961 29.8722 29.0927 30.3665C28.6893 30.8665 28.195 31.2472 27.6097 31.5085C27.0302 31.7756 26.337 31.9091 25.5302 31.9091ZM43.5302 27V9.54545H54.8825V12.196H46.6921V16.9347H54.2944V19.5852H46.6921V24.3494H54.9506V27H43.5302ZM69.6651 13.9091L65.0032 27H61.5941L56.9322 13.9091H60.2219L63.2305 23.6335H63.3668L66.3839 13.9091H69.6651ZM77.1502 27.2557C75.8377 27.2557 74.7042 26.983 73.7496 26.4375C72.8008 25.8864 72.0707 25.108 71.5593 24.1023C71.0479 23.0909 70.7923 21.9006 70.7923 20.5312C70.7923 19.1847 71.0479 18.0028 71.5593 16.9858C72.0763 15.9631 72.7979 15.1676 73.7241 14.5994C74.6502 14.0256 75.7383 13.7386 76.9883 13.7386C77.7951 13.7386 78.5565 13.8693 79.2724 14.1307C79.994 14.3864 80.6303 14.7841 81.1815 15.3239C81.7383 15.8636 82.1758 16.5511 82.494 17.3864C82.8121 18.2159 82.9712 19.2045 82.9712 20.3523V21.2983H72.2411V19.2188H80.0138C80.0082 18.6278 79.8803 18.1023 79.6303 17.642C79.3803 17.1761 79.0309 16.8097 78.582 16.5426C78.1388 16.2756 77.6218 16.142 77.0309 16.142C76.4002 16.142 75.8462 16.2955 75.369 16.6023C74.8917 16.9034 74.5195 17.3011 74.2525 17.7955C73.9911 18.2841 73.8576 18.821 73.8519 19.4062V21.2216C73.8519 21.983 73.9911 22.6364 74.2695 23.1818C74.5479 23.7216 74.9371 24.1364 75.4371 24.4261C75.9371 24.7102 76.5224 24.8523 77.1928 24.8523C77.6417 24.8523 78.0479 24.7898 78.4116 24.6648C78.7752 24.5341 79.0906 24.3438 79.3576 24.0938C79.6246 23.8438 79.8263 23.5341 79.9627 23.1648L82.8434 23.4886C82.6616 24.25 82.315 24.9148 81.8036 25.483C81.2979 26.0455 80.6502 26.483 79.8604 26.7955C79.0707 27.1023 78.1673 27.2557 77.1502 27.2557ZM88.6665 19.3295V27H85.5813V13.9091H88.5302V16.1335H88.6836C88.9847 15.4006 89.4648 14.8182 90.1239 14.3864C90.7887 13.9545 91.6097 13.7386 92.587 13.7386C93.4904 13.7386 94.2773 13.9318 94.9478 14.3182C95.6239 14.7045 96.1467 15.2642 96.516 15.9972C96.891 16.7301 97.0756 17.6193 97.07 18.6648V27H93.9847V19.142C93.9847 18.267 93.7575 17.5824 93.3029 17.0881C92.854 16.5937 92.2319 16.3466 91.4364 16.3466C90.8967 16.3466 90.4165 16.4659 89.9961 16.7045C89.5813 16.9375 89.2546 17.2756 89.016 17.7188C88.783 18.1619 88.6665 18.6989 88.6665 19.3295ZM106.743 13.9091V16.2955H99.2177V13.9091H106.743ZM101.076 10.7727H104.161V23.0625C104.161 23.4773 104.223 23.7955 104.348 24.017C104.479 24.233 104.65 24.3807 104.86 24.4602C105.07 24.5398 105.303 24.5795 105.559 24.5795C105.752 24.5795 105.928 24.5653 106.087 24.5369C106.252 24.5085 106.377 24.483 106.462 24.4602L106.982 26.8722C106.817 26.929 106.581 26.9915 106.275 27.0597C105.973 27.1278 105.604 27.1676 105.167 27.179C104.394 27.2017 103.698 27.0852 103.078 26.8295C102.459 26.5682 101.968 26.1648 101.604 25.6193C101.246 25.0739 101.07 24.392 101.076 23.5739V10.7727ZM119.483 17.3693L116.67 17.6761C116.591 17.392 116.451 17.125 116.252 16.875C116.059 16.625 115.798 16.4233 115.468 16.2699C115.139 16.1165 114.735 16.0398 114.258 16.0398C113.616 16.0398 113.076 16.179 112.639 16.4574C112.207 16.7358 111.994 17.0966 112 17.5398C111.994 17.9205 112.133 18.2301 112.417 18.4688C112.707 18.7074 113.184 18.9034 113.849 19.0568L116.082 19.5341C117.321 19.8011 118.241 20.2244 118.843 20.804C119.451 21.3835 119.758 22.142 119.764 23.0795C119.758 23.9034 119.517 24.6307 119.039 25.2614C118.568 25.8864 117.912 26.375 117.071 26.7273C116.23 27.0795 115.264 27.2557 114.173 27.2557C112.571 27.2557 111.281 26.9205 110.304 26.25C109.326 25.5739 108.744 24.6335 108.556 23.429L111.565 23.1392C111.701 23.7301 111.991 24.1761 112.434 24.4773C112.877 24.7784 113.454 24.929 114.164 24.929C114.897 24.929 115.485 24.7784 115.929 24.4773C116.377 24.1761 116.602 23.804 116.602 23.3608C116.602 22.9858 116.457 22.6761 116.167 22.4318C115.883 22.1875 115.44 22 114.838 21.8693L112.605 21.4006C111.349 21.1392 110.42 20.6989 109.818 20.0795C109.216 19.4545 108.917 18.6648 108.923 17.7102C108.917 16.9034 109.136 16.2045 109.579 15.6136C110.028 15.017 110.65 14.5568 111.446 14.233C112.247 13.9034 113.17 13.7386 114.216 13.7386C115.75 13.7386 116.957 14.0653 117.838 14.7188C118.724 15.3722 119.272 16.2557 119.483 17.3693Z" fill="black"/>
</svg>
