<svg width="188" height="36" viewBox="0 0 188 36" fill="none" xmlns="http://www.w3.org/2000/svg">
<g filter="url(#filter0_d_105_242)">
<path d="M9.35547 6.80273C9.35547 6.62695 9.32812 6.4707 9.27344 6.33398C9.22266 6.19727 9.13086 6.07227 8.99805 5.95898C8.86523 5.8457 8.67773 5.73633 8.43555 5.63086C8.19727 5.52148 7.89258 5.41016 7.52148 5.29688C7.11523 5.17188 6.74023 5.0332 6.39648 4.88086C6.05664 4.72461 5.75977 4.54492 5.50586 4.3418C5.25195 4.13477 5.05469 3.89844 4.91406 3.63281C4.77344 3.36328 4.70312 3.05273 4.70312 2.70117C4.70312 2.35352 4.77539 2.03711 4.91992 1.75195C5.06836 1.4668 5.27734 1.2207 5.54688 1.01367C5.82031 0.802734 6.14258 0.640625 6.51367 0.527344C6.88477 0.410156 7.29492 0.351562 7.74414 0.351562C8.37695 0.351562 8.92188 0.46875 9.37891 0.703125C9.83984 0.9375 10.1934 1.25195 10.4395 1.64648C10.6895 2.04102 10.8145 2.47656 10.8145 2.95312H9.35547C9.35547 2.67188 9.29492 2.42383 9.17383 2.20898C9.05664 1.99023 8.87695 1.81836 8.63477 1.69336C8.39648 1.56836 8.09375 1.50586 7.72656 1.50586C7.37891 1.50586 7.08984 1.55859 6.85938 1.66406C6.62891 1.76953 6.45703 1.91211 6.34375 2.0918C6.23047 2.27148 6.17383 2.47461 6.17383 2.70117C6.17383 2.86133 6.21094 3.00781 6.28516 3.14062C6.35938 3.26953 6.47266 3.39062 6.625 3.50391C6.77734 3.61328 6.96875 3.7168 7.19922 3.81445C7.42969 3.91211 7.70117 4.00586 8.01367 4.0957C8.48633 4.23633 8.89844 4.39258 9.25 4.56445C9.60156 4.73242 9.89453 4.92383 10.1289 5.13867C10.3633 5.35352 10.5391 5.59766 10.6562 5.87109C10.7734 6.14062 10.832 6.44727 10.832 6.79102C10.832 7.15039 10.7598 7.47461 10.6152 7.76367C10.4707 8.04883 10.2637 8.29297 9.99414 8.49609C9.72852 8.69531 9.4082 8.84961 9.0332 8.95898C8.66211 9.06445 8.24805 9.11719 7.79102 9.11719C7.38086 9.11719 6.97656 9.0625 6.57812 8.95312C6.18359 8.84375 5.82422 8.67773 5.5 8.45508C5.17578 8.22852 4.91797 7.94727 4.72656 7.61133C4.53516 7.27148 4.43945 6.875 4.43945 6.42188H5.91016C5.91016 6.69922 5.95703 6.93555 6.05078 7.13086C6.14844 7.32617 6.2832 7.48633 6.45508 7.61133C6.62695 7.73242 6.82617 7.82227 7.05273 7.88086C7.2832 7.93945 7.5293 7.96875 7.79102 7.96875C8.13477 7.96875 8.42188 7.91992 8.65234 7.82227C8.88672 7.72461 9.0625 7.58789 9.17969 7.41211C9.29688 7.23633 9.35547 7.0332 9.35547 6.80273ZM15.3984 2.66016V3.69141H11.8242V2.66016H15.3984ZM12.8555 1.10742H14.2676V7.24805C14.2676 7.44336 14.2949 7.59375 14.3496 7.69922C14.4082 7.80078 14.4883 7.86914 14.5898 7.9043C14.6914 7.93945 14.8105 7.95703 14.9473 7.95703C15.0449 7.95703 15.1387 7.95117 15.2285 7.93945C15.3184 7.92773 15.3906 7.91602 15.4453 7.9043L15.4512 8.98242C15.334 9.01758 15.1973 9.04883 15.041 9.07617C14.8887 9.10352 14.7129 9.11719 14.5137 9.11719C14.1895 9.11719 13.9023 9.06055 13.6523 8.94727C13.4023 8.83008 13.207 8.64062 13.0664 8.37891C12.9258 8.11719 12.8555 7.76953 12.8555 7.33594V1.10742ZM20.5625 7.72852V4.70508C20.5625 4.47852 20.5215 4.2832 20.4395 4.11914C20.3574 3.95508 20.2324 3.82812 20.0645 3.73828C19.9004 3.64844 19.6934 3.60352 19.4434 3.60352C19.2129 3.60352 19.0137 3.64258 18.8457 3.7207C18.6777 3.79883 18.5469 3.9043 18.4531 4.03711C18.3594 4.16992 18.3125 4.32031 18.3125 4.48828H16.9062C16.9062 4.23828 16.9668 3.99609 17.0879 3.76172C17.209 3.52734 17.3848 3.31836 17.6152 3.13477C17.8457 2.95117 18.1211 2.80664 18.4414 2.70117C18.7617 2.5957 19.1211 2.54297 19.5195 2.54297C19.9961 2.54297 20.418 2.62305 20.7852 2.7832C21.1562 2.94336 21.4473 3.18555 21.6582 3.50977C21.873 3.83008 21.9805 4.23242 21.9805 4.7168V7.53516C21.9805 7.82422 22 8.08398 22.0391 8.31445C22.082 8.54102 22.1426 8.73828 22.2207 8.90625V9H20.7734C20.707 8.84766 20.6543 8.6543 20.6152 8.41992C20.5801 8.18164 20.5625 7.95117 20.5625 7.72852ZM20.7676 5.14453L20.7793 6.01758H19.7656C19.5039 6.01758 19.2734 6.04297 19.0742 6.09375C18.875 6.14062 18.709 6.21094 18.5762 6.30469C18.4434 6.39844 18.3438 6.51172 18.2773 6.64453C18.2109 6.77734 18.1777 6.92773 18.1777 7.0957C18.1777 7.26367 18.2168 7.41797 18.2949 7.55859C18.373 7.69531 18.4863 7.80273 18.6348 7.88086C18.7871 7.95898 18.9707 7.99805 19.1855 7.99805C19.4746 7.99805 19.7266 7.93945 19.9414 7.82227C20.1602 7.70117 20.332 7.55469 20.457 7.38281C20.582 7.20703 20.6484 7.04102 20.6562 6.88477L21.1133 7.51172C21.0664 7.67188 20.9863 7.84375 20.873 8.02734C20.7598 8.21094 20.6113 8.38672 20.4277 8.55469C20.248 8.71875 20.0312 8.85352 19.7773 8.95898C19.5273 9.06445 19.2383 9.11719 18.9102 9.11719C18.4961 9.11719 18.127 9.03516 17.8027 8.87109C17.4785 8.70312 17.2246 8.47852 17.041 8.19727C16.8574 7.91211 16.7656 7.58984 16.7656 7.23047C16.7656 6.89453 16.8281 6.59766 16.9531 6.33984C17.082 6.07812 17.2695 5.85938 17.5156 5.68359C17.7656 5.50781 18.0703 5.375 18.4297 5.28516C18.7891 5.19141 19.1992 5.14453 19.6602 5.14453H20.7676ZM25.375 3.86719V9H23.9629V2.66016H25.3105L25.375 3.86719ZM27.3145 2.61914L27.3027 3.93164C27.2168 3.91602 27.123 3.9043 27.0215 3.89648C26.9238 3.88867 26.8262 3.88477 26.7285 3.88477C26.4863 3.88477 26.2734 3.91992 26.0898 3.99023C25.9062 4.05664 25.752 4.1543 25.627 4.2832C25.5059 4.4082 25.4121 4.56055 25.3457 4.74023C25.2793 4.91992 25.2402 5.12109 25.2285 5.34375L24.9062 5.36719C24.9062 4.96875 24.9453 4.59961 25.0234 4.25977C25.1016 3.91992 25.2188 3.62109 25.375 3.36328C25.5352 3.10547 25.7344 2.9043 25.9727 2.75977C26.2148 2.61523 26.4941 2.54297 26.8105 2.54297C26.8965 2.54297 26.9883 2.55078 27.0859 2.56641C27.1875 2.58203 27.2637 2.59961 27.3145 2.61914ZM31.8984 2.66016V3.69141H28.3242V2.66016H31.8984ZM29.3555 1.10742H30.7676V7.24805C30.7676 7.44336 30.7949 7.59375 30.8496 7.69922C30.9082 7.80078 30.9883 7.86914 31.0898 7.9043C31.1914 7.93945 31.3105 7.95703 31.4473 7.95703C31.5449 7.95703 31.6387 7.95117 31.7285 7.93945C31.8184 7.92773 31.8906 7.91602 31.9453 7.9043L31.9512 8.98242C31.834 9.01758 31.6973 9.04883 31.541 9.07617C31.3887 9.10352 31.2129 9.11719 31.0137 9.11719C30.6895 9.11719 30.4023 9.06055 30.1523 8.94727C29.9023 8.83008 29.707 8.64062 29.5664 8.37891C29.4258 8.11719 29.3555 7.76953 29.3555 7.33594V1.10742ZM37.0449 7.2832C37.0449 7.14258 37.0098 7.01562 36.9395 6.90234C36.8691 6.78516 36.7344 6.67969 36.5352 6.58594C36.3398 6.49219 36.0508 6.40625 35.668 6.32812C35.332 6.25391 35.0234 6.16602 34.7422 6.06445C34.4648 5.95898 34.2266 5.83203 34.0273 5.68359C33.8281 5.53516 33.6738 5.35938 33.5645 5.15625C33.4551 4.95312 33.4004 4.71875 33.4004 4.45312C33.4004 4.19531 33.457 3.95117 33.5703 3.7207C33.6836 3.49023 33.8457 3.28711 34.0566 3.11133C34.2676 2.93555 34.5234 2.79687 34.8242 2.69531C35.1289 2.59375 35.4688 2.54297 35.8438 2.54297C36.375 2.54297 36.8301 2.63281 37.209 2.8125C37.5918 2.98828 37.8848 3.22852 38.0879 3.5332C38.291 3.83398 38.3926 4.17383 38.3926 4.55273H36.9805C36.9805 4.38477 36.9375 4.22852 36.8516 4.08398C36.7695 3.93555 36.6445 3.81641 36.4766 3.72656C36.3086 3.63281 36.0977 3.58594 35.8438 3.58594C35.6016 3.58594 35.4004 3.625 35.2402 3.70312C35.084 3.77734 34.9668 3.875 34.8887 3.99609C34.8145 4.11719 34.7773 4.25 34.7773 4.39453C34.7773 4.5 34.7969 4.5957 34.8359 4.68164C34.8789 4.76367 34.9492 4.83984 35.0469 4.91016C35.1445 4.97656 35.2773 5.03906 35.4453 5.09766C35.6172 5.15625 35.832 5.21289 36.0898 5.26758C36.5742 5.36914 36.9902 5.5 37.3379 5.66016C37.6895 5.81641 37.959 6.01953 38.1465 6.26953C38.334 6.51562 38.4277 6.82812 38.4277 7.20703C38.4277 7.48828 38.3672 7.74609 38.2461 7.98047C38.1289 8.21094 37.957 8.41211 37.7305 8.58398C37.5039 8.75195 37.2324 8.88281 36.916 8.97656C36.6035 9.07031 36.252 9.11719 35.8613 9.11719C35.2871 9.11719 34.8008 9.01562 34.4023 8.8125C34.0039 8.60547 33.7012 8.3418 33.4941 8.02148C33.291 7.69727 33.1895 7.36133 33.1895 7.01367H34.5547C34.5703 7.27539 34.6426 7.48438 34.7715 7.64062C34.9043 7.79297 35.0684 7.9043 35.2637 7.97461C35.4629 8.04102 35.668 8.07422 35.8789 8.07422C36.1328 8.07422 36.3457 8.04102 36.5176 7.97461C36.6895 7.9043 36.8203 7.81055 36.9102 7.69336C37 7.57227 37.0449 7.43555 37.0449 7.2832ZM40.1816 8.29688C40.1816 8.07812 40.2559 7.89453 40.4043 7.74609C40.5527 7.59375 40.7539 7.51758 41.0078 7.51758C41.2656 7.51758 41.4668 7.59375 41.6113 7.74609C41.7598 7.89453 41.834 8.07812 41.834 8.29688C41.834 8.51562 41.7598 8.69922 41.6113 8.84766C41.4668 8.99609 41.2656 9.07031 41.0078 9.07031C40.7539 9.07031 40.5527 8.99609 40.4043 8.84766C40.2559 8.69922 40.1816 8.51562 40.1816 8.29688ZM40.1875 3.30469C40.1875 3.08594 40.2617 2.90234 40.4102 2.75391C40.5586 2.60156 40.7598 2.52539 41.0137 2.52539C41.2715 2.52539 41.4727 2.60156 41.6172 2.75391C41.7656 2.90234 41.8398 3.08594 41.8398 3.30469C41.8398 3.52344 41.7656 3.70703 41.6172 3.85547C41.4727 4.00391 41.2715 4.07812 41.0137 4.07812C40.7598 4.07812 40.5586 4.00391 40.4102 3.85547C40.2617 3.70703 40.1875 3.52344 40.1875 3.30469ZM54.2598 4.5V4.96875C54.2598 5.61328 54.1758 6.19141 54.0078 6.70312C53.8398 7.21484 53.5996 7.65039 53.2871 8.00977C52.9785 8.36914 52.6074 8.64453 52.1738 8.83594C51.7402 9.02344 51.2598 9.11719 50.7324 9.11719C50.209 9.11719 49.7305 9.02344 49.2969 8.83594C48.8672 8.64453 48.4941 8.36914 48.1777 8.00977C47.8613 7.65039 47.6152 7.21484 47.4395 6.70312C47.2676 6.19141 47.1816 5.61328 47.1816 4.96875V4.5C47.1816 3.85547 47.2676 3.2793 47.4395 2.77148C47.6113 2.25977 47.8535 1.82422 48.166 1.46484C48.4824 1.10156 48.8555 0.826172 49.2852 0.638672C49.7188 0.447266 50.1973 0.351562 50.7207 0.351562C51.248 0.351562 51.7285 0.447266 52.1621 0.638672C52.5957 0.826172 52.9688 1.10156 53.2812 1.46484C53.5938 1.82422 53.834 2.25977 54.002 2.77148C54.1738 3.2793 54.2598 3.85547 54.2598 4.5ZM52.7891 4.96875V4.48828C52.7891 4.01172 52.7422 3.5918 52.6484 3.22852C52.5586 2.86133 52.4238 2.55469 52.2441 2.30859C52.0684 2.05859 51.8516 1.87109 51.5938 1.74609C51.3359 1.61719 51.0449 1.55273 50.7207 1.55273C50.3965 1.55273 50.1074 1.61719 49.8535 1.74609C49.5996 1.87109 49.3828 2.05859 49.2031 2.30859C49.0273 2.55469 48.8926 2.86133 48.7988 3.22852C48.7051 3.5918 48.6582 4.01172 48.6582 4.48828V4.96875C48.6582 5.44531 48.7051 5.86719 48.7988 6.23438C48.8926 6.60156 49.0293 6.91211 49.209 7.16602C49.3926 7.41602 49.6113 7.60547 49.8652 7.73438C50.1191 7.85938 50.4082 7.92188 50.7324 7.92188C51.0605 7.92188 51.3516 7.85938 51.6055 7.73438C51.8594 7.60547 52.0742 7.41602 52.25 7.16602C52.4258 6.91211 52.5586 6.60156 52.6484 6.23438C52.7422 5.86719 52.7891 5.44531 52.7891 4.96875ZM58.6797 7.99219C58.9102 7.99219 59.1172 7.94727 59.3008 7.85742C59.4883 7.76367 59.6387 7.63477 59.752 7.4707C59.8691 7.30664 59.9336 7.11719 59.9453 6.90234H61.2754C61.2676 7.3125 61.1465 7.68555 60.9121 8.02148C60.6777 8.35742 60.3672 8.625 59.9805 8.82422C59.5938 9.01953 59.166 9.11719 58.6973 9.11719C58.2129 9.11719 57.791 9.03516 57.4316 8.87109C57.0723 8.70312 56.7734 8.47266 56.5352 8.17969C56.2969 7.88672 56.1172 7.54883 55.9961 7.16602C55.8789 6.7832 55.8203 6.37305 55.8203 5.93555V5.73047C55.8203 5.29297 55.8789 4.88281 55.9961 4.5C56.1172 4.11328 56.2969 3.77344 56.5352 3.48047C56.7734 3.1875 57.0723 2.95898 57.4316 2.79492C57.791 2.62695 58.2109 2.54297 58.6914 2.54297C59.1992 2.54297 59.6445 2.64453 60.0273 2.84766C60.4102 3.04688 60.7109 3.32617 60.9297 3.68555C61.1523 4.04102 61.2676 4.45508 61.2754 4.92773H59.9453C59.9336 4.69336 59.875 4.48242 59.7695 4.29492C59.668 4.10352 59.5234 3.95117 59.3359 3.83789C59.1523 3.72461 58.9316 3.66797 58.6738 3.66797C58.3887 3.66797 58.1523 3.72656 57.9648 3.84375C57.7773 3.95703 57.6309 4.11328 57.5254 4.3125C57.4199 4.50781 57.3438 4.72852 57.2969 4.97461C57.2539 5.2168 57.2324 5.46875 57.2324 5.73047V5.93555C57.2324 6.19727 57.2539 6.45117 57.2969 6.69727C57.3398 6.94336 57.4141 7.16406 57.5195 7.35938C57.6289 7.55078 57.7773 7.70508 57.9648 7.82227C58.1523 7.93555 58.3906 7.99219 58.6797 7.99219ZM65.7656 2.66016V3.69141H62.1914V2.66016H65.7656ZM63.2227 1.10742H64.6348V7.24805C64.6348 7.44336 64.6621 7.59375 64.7168 7.69922C64.7754 7.80078 64.8555 7.86914 64.957 7.9043C65.0586 7.93945 65.1777 7.95703 65.3145 7.95703C65.4121 7.95703 65.5059 7.95117 65.5957 7.93945C65.6855 7.92773 65.7578 7.91602 65.8125 7.9043L65.8184 8.98242C65.7012 9.01758 65.5645 9.04883 65.4082 9.07617C65.2559 9.10352 65.0801 9.11719 64.8809 9.11719C64.5566 9.11719 64.2695 9.06055 64.0195 8.94727C63.7695 8.83008 63.5742 8.64062 63.4336 8.37891C63.293 8.11719 63.2227 7.76953 63.2227 7.33594V1.10742ZM67.4141 8.29688C67.4141 8.07812 67.4883 7.89453 67.6367 7.74609C67.7852 7.59375 67.9863 7.51758 68.2402 7.51758C68.498 7.51758 68.6992 7.59375 68.8438 7.74609C68.9922 7.89453 69.0664 8.07812 69.0664 8.29688C69.0664 8.51562 68.9922 8.69922 68.8438 8.84766C68.6992 8.99609 68.498 9.07031 68.2402 9.07031C67.9863 9.07031 67.7852 8.99609 67.6367 8.84766C67.4883 8.69922 67.4141 8.51562 67.4141 8.29688ZM76.6738 4.01953V5.41406C76.6738 6.08203 76.6074 6.65234 76.4746 7.125C76.3457 7.59375 76.1582 7.97461 75.9121 8.26758C75.666 8.56055 75.3711 8.77539 75.0273 8.91211C74.6875 9.04883 74.3066 9.11719 73.8848 9.11719C73.5488 9.11719 73.2363 9.07422 72.9473 8.98828C72.6621 8.90234 72.4043 8.76758 72.1738 8.58398C71.9434 8.40039 71.7461 8.16406 71.582 7.875C71.4219 7.58203 71.2969 7.23242 71.207 6.82617C71.1211 6.41992 71.0781 5.94922 71.0781 5.41406V4.01953C71.0781 3.34766 71.1445 2.78125 71.2773 2.32031C71.4102 1.85547 71.5996 1.47852 71.8457 1.18945C72.0918 0.896484 72.3848 0.683594 72.7246 0.550781C73.0684 0.417969 73.4512 0.351562 73.873 0.351562C74.2129 0.351562 74.5254 0.394531 74.8105 0.480469C75.0996 0.5625 75.3574 0.693359 75.584 0.873047C75.8145 1.05273 76.0098 1.28711 76.1699 1.57617C76.334 1.86133 76.459 2.20703 76.5449 2.61328C76.6309 3.01562 76.6738 3.48438 76.6738 4.01953ZM75.2617 5.61328V3.80859C75.2617 3.46875 75.2422 3.16992 75.2031 2.91211C75.1641 2.65039 75.1055 2.42969 75.0273 2.25C74.9531 2.06641 74.8594 1.91797 74.7461 1.80469C74.6328 1.6875 74.5039 1.60352 74.3594 1.55273C74.2148 1.49805 74.0527 1.4707 73.873 1.4707C73.6543 1.4707 73.459 1.51367 73.2871 1.59961C73.1152 1.68164 72.9707 1.81445 72.8535 1.99805C72.7363 2.18164 72.6465 2.42383 72.584 2.72461C72.5254 3.02148 72.4961 3.38281 72.4961 3.80859V5.61328C72.4961 5.95703 72.5156 6.25977 72.5547 6.52148C72.5938 6.7832 72.6523 7.00781 72.7305 7.19531C72.8086 7.37891 72.9023 7.53125 73.0117 7.65234C73.125 7.76953 73.2539 7.85547 73.3984 7.91016C73.5469 7.96484 73.709 7.99219 73.8848 7.99219C74.1074 7.99219 74.3047 7.94922 74.4766 7.86328C74.6484 7.77734 74.793 7.64062 74.9102 7.45312C75.0273 7.26172 75.1152 7.01367 75.1738 6.70898C75.2324 6.4043 75.2617 6.03906 75.2617 5.61328ZM84.0996 0.46875V1.24219L80.6895 9H79.2012L82.6055 1.59375H78.1875V0.46875H84.0996ZM87.1602 7.64062L87.1543 8.64844C87.1543 9.04688 87.0547 9.45703 86.8555 9.87891C86.6562 10.3008 86.3926 10.6484 86.0645 10.9219L85.3086 10.4824C85.418 10.3066 85.5176 10.1289 85.6074 9.94922C85.6973 9.76953 85.7695 9.57812 85.8242 9.375C85.8789 9.17188 85.9062 8.94727 85.9062 8.70117V7.64062H87.1602ZM98.2324 7.83398V9H93.7031V7.83398H98.2324ZM94.1191 0.46875V9H92.6484V0.46875H94.1191ZM97.6406 4.03125V5.17969H93.7031V4.03125H97.6406ZM98.2031 0.46875V1.64062H93.7031V0.46875H98.2031ZM101.193 4.01367V9H99.7812V2.66016H101.111L101.193 4.01367ZM100.941 5.5957L100.484 5.58984C100.488 5.14062 100.551 4.72852 100.672 4.35352C100.797 3.97852 100.969 3.65625 101.188 3.38672C101.41 3.11719 101.676 2.91016 101.984 2.76562C102.293 2.61719 102.637 2.54297 103.016 2.54297C103.32 2.54297 103.596 2.58594 103.842 2.67188C104.092 2.75391 104.305 2.88867 104.48 3.07617C104.66 3.26367 104.797 3.50781 104.891 3.80859C104.984 4.10547 105.031 4.4707 105.031 4.9043V9H103.613V4.89844C103.613 4.59375 103.568 4.35352 103.479 4.17773C103.393 3.99805 103.266 3.87109 103.098 3.79688C102.934 3.71875 102.729 3.67969 102.482 3.67969C102.24 3.67969 102.023 3.73047 101.832 3.83203C101.641 3.93359 101.479 4.07227 101.346 4.24805C101.217 4.42383 101.117 4.62695 101.047 4.85742C100.977 5.08789 100.941 5.33398 100.941 5.5957ZM110.84 7.6875V0H112.258V9H110.975L110.84 7.6875ZM106.715 5.90039V5.77734C106.715 5.29688 106.771 4.85938 106.885 4.46484C106.998 4.06641 107.162 3.72461 107.377 3.43945C107.592 3.15039 107.854 2.92969 108.162 2.77734C108.471 2.62109 108.818 2.54297 109.205 2.54297C109.588 2.54297 109.924 2.61719 110.213 2.76562C110.502 2.91406 110.748 3.12695 110.951 3.4043C111.154 3.67773 111.316 4.00586 111.438 4.38867C111.559 4.76758 111.645 5.18945 111.695 5.6543V6.04688C111.645 6.5 111.559 6.91406 111.438 7.28906C111.316 7.66406 111.154 7.98828 110.951 8.26172C110.748 8.53516 110.5 8.74609 110.207 8.89453C109.918 9.04297 109.58 9.11719 109.193 9.11719C108.811 9.11719 108.465 9.03711 108.156 8.87695C107.852 8.7168 107.592 8.49219 107.377 8.20312C107.162 7.91406 106.998 7.57422 106.885 7.18359C106.771 6.78906 106.715 6.36133 106.715 5.90039ZM108.127 5.77734V5.90039C108.127 6.18945 108.152 6.45898 108.203 6.70898C108.258 6.95898 108.342 7.17969 108.455 7.37109C108.568 7.55859 108.715 7.70703 108.895 7.81641C109.078 7.92188 109.297 7.97461 109.551 7.97461C109.871 7.97461 110.135 7.9043 110.342 7.76367C110.549 7.62305 110.711 7.43359 110.828 7.19531C110.949 6.95312 111.031 6.68359 111.074 6.38672V5.32617C111.051 5.0957 111.002 4.88086 110.928 4.68164C110.857 4.48242 110.762 4.30859 110.641 4.16016C110.52 4.00781 110.369 3.89062 110.189 3.80859C110.014 3.72266 109.805 3.67969 109.562 3.67969C109.305 3.67969 109.086 3.73438 108.906 3.84375C108.727 3.95312 108.578 4.10352 108.461 4.29492C108.348 4.48633 108.264 4.70898 108.209 4.96289C108.154 5.2168 108.127 5.48828 108.127 5.77734ZM117.791 7.2832C117.791 7.14258 117.756 7.01562 117.686 6.90234C117.615 6.78516 117.48 6.67969 117.281 6.58594C117.086 6.49219 116.797 6.40625 116.414 6.32812C116.078 6.25391 115.77 6.16602 115.488 6.06445C115.211 5.95898 114.973 5.83203 114.773 5.68359C114.574 5.53516 114.42 5.35938 114.311 5.15625C114.201 4.95312 114.146 4.71875 114.146 4.45312C114.146 4.19531 114.203 3.95117 114.316 3.7207C114.43 3.49023 114.592 3.28711 114.803 3.11133C115.014 2.93555 115.27 2.79687 115.57 2.69531C115.875 2.59375 116.215 2.54297 116.59 2.54297C117.121 2.54297 117.576 2.63281 117.955 2.8125C118.338 2.98828 118.631 3.22852 118.834 3.5332C119.037 3.83398 119.139 4.17383 119.139 4.55273H117.727C117.727 4.38477 117.684 4.22852 117.598 4.08398C117.516 3.93555 117.391 3.81641 117.223 3.72656C117.055 3.63281 116.844 3.58594 116.59 3.58594C116.348 3.58594 116.146 3.625 115.986 3.70312C115.83 3.77734 115.713 3.875 115.635 3.99609C115.561 4.11719 115.523 4.25 115.523 4.39453C115.523 4.5 115.543 4.5957 115.582 4.68164C115.625 4.76367 115.695 4.83984 115.793 4.91016C115.891 4.97656 116.023 5.03906 116.191 5.09766C116.363 5.15625 116.578 5.21289 116.836 5.26758C117.32 5.36914 117.736 5.5 118.084 5.66016C118.436 5.81641 118.705 6.01953 118.893 6.26953C119.08 6.51562 119.174 6.82812 119.174 7.20703C119.174 7.48828 119.113 7.74609 118.992 7.98047C118.875 8.21094 118.703 8.41211 118.477 8.58398C118.25 8.75195 117.979 8.88281 117.662 8.97656C117.35 9.07031 116.998 9.11719 116.607 9.11719C116.033 9.11719 115.547 9.01562 115.148 8.8125C114.75 8.60547 114.447 8.3418 114.24 8.02148C114.037 7.69727 113.936 7.36133 113.936 7.01367H115.301C115.316 7.27539 115.389 7.48438 115.518 7.64062C115.65 7.79297 115.814 7.9043 116.01 7.97461C116.209 8.04102 116.414 8.07422 116.625 8.07422C116.879 8.07422 117.092 8.04102 117.264 7.97461C117.436 7.9043 117.566 7.81055 117.656 7.69336C117.746 7.57227 117.791 7.43555 117.791 7.2832ZM120.928 8.29688C120.928 8.07812 121.002 7.89453 121.15 7.74609C121.299 7.59375 121.5 7.51758 121.754 7.51758C122.012 7.51758 122.213 7.59375 122.357 7.74609C122.506 7.89453 122.58 8.07812 122.58 8.29688C122.58 8.51562 122.506 8.69922 122.357 8.84766C122.213 8.99609 122.012 9.07031 121.754 9.07031C121.5 9.07031 121.299 8.99609 121.15 8.84766C121.002 8.69922 120.928 8.51562 120.928 8.29688ZM120.934 3.30469C120.934 3.08594 121.008 2.90234 121.156 2.75391C121.305 2.60156 121.506 2.52539 121.76 2.52539C122.018 2.52539 122.219 2.60156 122.363 2.75391C122.512 2.90234 122.586 3.08594 122.586 3.30469C122.586 3.52344 122.512 3.70703 122.363 3.85547C122.219 4.00391 122.018 4.07812 121.76 4.07812C121.506 4.07812 121.305 4.00391 121.156 3.85547C121.008 3.70703 120.934 3.52344 120.934 3.30469ZM135.006 4.5V4.96875C135.006 5.61328 134.922 6.19141 134.754 6.70312C134.586 7.21484 134.346 7.65039 134.033 8.00977C133.725 8.36914 133.354 8.64453 132.92 8.83594C132.486 9.02344 132.006 9.11719 131.479 9.11719C130.955 9.11719 130.477 9.02344 130.043 8.83594C129.613 8.64453 129.24 8.36914 128.924 8.00977C128.607 7.65039 128.361 7.21484 128.186 6.70312C128.014 6.19141 127.928 5.61328 127.928 4.96875V4.5C127.928 3.85547 128.014 3.2793 128.186 2.77148C128.357 2.25977 128.6 1.82422 128.912 1.46484C129.229 1.10156 129.602 0.826172 130.031 0.638672C130.465 0.447266 130.943 0.351562 131.467 0.351562C131.994 0.351562 132.475 0.447266 132.908 0.638672C133.342 0.826172 133.715 1.10156 134.027 1.46484C134.34 1.82422 134.58 2.25977 134.748 2.77148C134.92 3.2793 135.006 3.85547 135.006 4.5ZM133.535 4.96875V4.48828C133.535 4.01172 133.488 3.5918 133.395 3.22852C133.305 2.86133 133.17 2.55469 132.99 2.30859C132.814 2.05859 132.598 1.87109 132.34 1.74609C132.082 1.61719 131.791 1.55273 131.467 1.55273C131.143 1.55273 130.854 1.61719 130.6 1.74609C130.346 1.87109 130.129 2.05859 129.949 2.30859C129.773 2.55469 129.639 2.86133 129.545 3.22852C129.451 3.5918 129.404 4.01172 129.404 4.48828V4.96875C129.404 5.44531 129.451 5.86719 129.545 6.23438C129.639 6.60156 129.775 6.91211 129.955 7.16602C130.139 7.41602 130.357 7.60547 130.611 7.73438C130.865 7.85938 131.154 7.92188 131.479 7.92188C131.807 7.92188 132.098 7.85938 132.352 7.73438C132.605 7.60547 132.82 7.41602 132.996 7.16602C133.172 6.91211 133.305 6.60156 133.395 6.23438C133.488 5.86719 133.535 5.44531 133.535 4.96875ZM139.426 7.99219C139.656 7.99219 139.863 7.94727 140.047 7.85742C140.234 7.76367 140.385 7.63477 140.498 7.4707C140.615 7.30664 140.68 7.11719 140.691 6.90234H142.021C142.014 7.3125 141.893 7.68555 141.658 8.02148C141.424 8.35742 141.113 8.625 140.727 8.82422C140.34 9.01953 139.912 9.11719 139.443 9.11719C138.959 9.11719 138.537 9.03516 138.178 8.87109C137.818 8.70312 137.52 8.47266 137.281 8.17969C137.043 7.88672 136.863 7.54883 136.742 7.16602C136.625 6.7832 136.566 6.37305 136.566 5.93555V5.73047C136.566 5.29297 136.625 4.88281 136.742 4.5C136.863 4.11328 137.043 3.77344 137.281 3.48047C137.52 3.1875 137.818 2.95898 138.178 2.79492C138.537 2.62695 138.957 2.54297 139.438 2.54297C139.945 2.54297 140.391 2.64453 140.773 2.84766C141.156 3.04688 141.457 3.32617 141.676 3.68555C141.898 4.04102 142.014 4.45508 142.021 4.92773H140.691C140.68 4.69336 140.621 4.48242 140.516 4.29492C140.414 4.10352 140.27 3.95117 140.082 3.83789C139.898 3.72461 139.678 3.66797 139.42 3.66797C139.135 3.66797 138.898 3.72656 138.711 3.84375C138.523 3.95703 138.377 4.11328 138.271 4.3125C138.166 4.50781 138.09 4.72852 138.043 4.97461C138 5.2168 137.979 5.46875 137.979 5.73047V5.93555C137.979 6.19727 138 6.45117 138.043 6.69727C138.086 6.94336 138.16 7.16406 138.266 7.35938C138.375 7.55078 138.523 7.70508 138.711 7.82227C138.898 7.93555 139.137 7.99219 139.426 7.99219ZM146.512 2.66016V3.69141H142.938V2.66016H146.512ZM143.969 1.10742H145.381V7.24805C145.381 7.44336 145.408 7.59375 145.463 7.69922C145.521 7.80078 145.602 7.86914 145.703 7.9043C145.805 7.93945 145.924 7.95703 146.061 7.95703C146.158 7.95703 146.252 7.95117 146.342 7.93945C146.432 7.92773 146.504 7.91602 146.559 7.9043L146.564 8.98242C146.447 9.01758 146.311 9.04883 146.154 9.07617C146.002 9.10352 145.826 9.11719 145.627 9.11719C145.303 9.11719 145.016 9.06055 144.766 8.94727C144.516 8.83008 144.32 8.64062 144.18 8.37891C144.039 8.11719 143.969 7.76953 143.969 7.33594V1.10742ZM148.16 8.29688C148.16 8.07812 148.234 7.89453 148.383 7.74609C148.531 7.59375 148.732 7.51758 148.986 7.51758C149.244 7.51758 149.445 7.59375 149.59 7.74609C149.738 7.89453 149.812 8.07812 149.812 8.29688C149.812 8.51562 149.738 8.69922 149.59 8.84766C149.445 8.99609 149.244 9.07031 148.986 9.07031C148.732 9.07031 148.531 8.99609 148.383 8.84766C148.234 8.69922 148.16 8.51562 148.16 8.29688ZM155.715 0.439453V9H154.303V2.11523L152.211 2.82422V1.6582L155.545 0.439453H155.715ZM163.035 0.439453V9H161.623V2.11523L159.531 2.82422V1.6582L162.865 0.439453H163.035ZM10.2109 23.834V25H5.92773V23.834H10.2109ZM6.33789 16.4688V25H4.86719V16.4688H6.33789ZM11.4375 21.9004V21.7656C11.4375 21.3086 11.5039 20.8848 11.6367 20.4941C11.7695 20.0996 11.9609 19.7578 12.2109 19.4688C12.4648 19.1758 12.7734 18.9492 13.1367 18.7891C13.5039 18.625 13.918 18.543 14.3789 18.543C14.8438 18.543 15.2578 18.625 15.6211 18.7891C15.9883 18.9492 16.2988 19.1758 16.5527 19.4688C16.8066 19.7578 17 20.0996 17.1328 20.4941C17.2656 20.8848 17.332 21.3086 17.332 21.7656V21.9004C17.332 22.3574 17.2656 22.7812 17.1328 23.1719C17 23.5625 16.8066 23.9043 16.5527 24.1973C16.2988 24.4863 15.9902 24.7129 15.627 24.877C15.2637 25.0371 14.8516 25.1172 14.3906 25.1172C13.9258 25.1172 13.5098 25.0371 13.1426 24.877C12.7793 24.7129 12.4707 24.4863 12.2168 24.1973C11.9629 23.9043 11.7695 23.5625 11.6367 23.1719C11.5039 22.7812 11.4375 22.3574 11.4375 21.9004ZM12.8496 21.7656V21.9004C12.8496 22.1855 12.8789 22.4551 12.9375 22.709C12.9961 22.9629 13.0879 23.1855 13.2129 23.377C13.3379 23.5684 13.498 23.7188 13.6934 23.8281C13.8887 23.9375 14.1211 23.9922 14.3906 23.9922C14.6523 23.9922 14.8789 23.9375 15.0703 23.8281C15.2656 23.7188 15.4258 23.5684 15.5508 23.377C15.6758 23.1855 15.7676 22.9629 15.8262 22.709C15.8887 22.4551 15.9199 22.1855 15.9199 21.9004V21.7656C15.9199 21.4844 15.8887 21.2188 15.8262 20.9688C15.7676 20.7148 15.6738 20.4902 15.5449 20.2949C15.4199 20.0996 15.2598 19.9473 15.0645 19.8379C14.873 19.7246 14.6445 19.668 14.3789 19.668C14.1133 19.668 13.8828 19.7246 13.6875 19.8379C13.4961 19.9473 13.3379 20.0996 13.2129 20.2949C13.0879 20.4902 12.9961 20.7148 12.9375 20.9688C12.8789 21.2188 12.8496 21.4844 12.8496 21.7656ZM21.6055 23.9922C21.8359 23.9922 22.043 23.9473 22.2266 23.8574C22.4141 23.7637 22.5645 23.6348 22.6777 23.4707C22.7949 23.3066 22.8594 23.1172 22.8711 22.9023H24.2012C24.1934 23.3125 24.0723 23.6855 23.8379 24.0215C23.6035 24.3574 23.293 24.625 22.9062 24.8242C22.5195 25.0195 22.0918 25.1172 21.623 25.1172C21.1387 25.1172 20.7168 25.0352 20.3574 24.8711C19.998 24.7031 19.6992 24.4727 19.4609 24.1797C19.2227 23.8867 19.043 23.5488 18.9219 23.166C18.8047 22.7832 18.7461 22.373 18.7461 21.9355V21.7305C18.7461 21.293 18.8047 20.8828 18.9219 20.5C19.043 20.1133 19.2227 19.7734 19.4609 19.4805C19.6992 19.1875 19.998 18.959 20.3574 18.7949C20.7168 18.627 21.1367 18.543 21.6172 18.543C22.125 18.543 22.5703 18.6445 22.9531 18.8477C23.3359 19.0469 23.6367 19.3262 23.8555 19.6855C24.0781 20.041 24.1934 20.4551 24.2012 20.9277H22.8711C22.8594 20.6934 22.8008 20.4824 22.6953 20.2949C22.5938 20.1035 22.4492 19.9512 22.2617 19.8379C22.0781 19.7246 21.8574 19.668 21.5996 19.668C21.3145 19.668 21.0781 19.7266 20.8906 19.8438C20.7031 19.957 20.5566 20.1133 20.4512 20.3125C20.3457 20.5078 20.2695 20.7285 20.2227 20.9746C20.1797 21.2168 20.1582 21.4688 20.1582 21.7305V21.9355C20.1582 22.1973 20.1797 22.4512 20.2227 22.6973C20.2656 22.9434 20.3398 23.1641 20.4453 23.3594C20.5547 23.5508 20.7031 23.7051 20.8906 23.8223C21.0781 23.9355 21.3164 23.9922 21.6055 23.9922ZM29.3594 23.7285V20.7051C29.3594 20.4785 29.3184 20.2832 29.2363 20.1191C29.1543 19.9551 29.0293 19.8281 28.8613 19.7383C28.6973 19.6484 28.4902 19.6035 28.2402 19.6035C28.0098 19.6035 27.8105 19.6426 27.6426 19.7207C27.4746 19.7988 27.3438 19.9043 27.25 20.0371C27.1562 20.1699 27.1094 20.3203 27.1094 20.4883H25.7031C25.7031 20.2383 25.7637 19.9961 25.8848 19.7617C26.0059 19.5273 26.1816 19.3184 26.4121 19.1348C26.6426 18.9512 26.918 18.8066 27.2383 18.7012C27.5586 18.5957 27.918 18.543 28.3164 18.543C28.793 18.543 29.2148 18.623 29.582 18.7832C29.9531 18.9434 30.2441 19.1855 30.4551 19.5098C30.6699 19.8301 30.7773 20.2324 30.7773 20.7168V23.5352C30.7773 23.8242 30.7969 24.084 30.8359 24.3145C30.8789 24.541 30.9395 24.7383 31.0176 24.9062V25H29.5703C29.5039 24.8477 29.4512 24.6543 29.4121 24.4199C29.377 24.1816 29.3594 23.9512 29.3594 23.7285ZM29.5645 21.1445L29.5762 22.0176H28.5625C28.3008 22.0176 28.0703 22.043 27.8711 22.0938C27.6719 22.1406 27.5059 22.2109 27.373 22.3047C27.2402 22.3984 27.1406 22.5117 27.0742 22.6445C27.0078 22.7773 26.9746 22.9277 26.9746 23.0957C26.9746 23.2637 27.0137 23.418 27.0918 23.5586C27.1699 23.6953 27.2832 23.8027 27.4316 23.8809C27.584 23.959 27.7676 23.998 27.9824 23.998C28.2715 23.998 28.5234 23.9395 28.7383 23.8223C28.957 23.7012 29.1289 23.5547 29.2539 23.3828C29.3789 23.207 29.4453 23.041 29.4531 22.8848L29.9102 23.5117C29.8633 23.6719 29.7832 23.8438 29.6699 24.0273C29.5566 24.2109 29.4082 24.3867 29.2246 24.5547C29.0449 24.7188 28.8281 24.8535 28.5742 24.959C28.3242 25.0645 28.0352 25.1172 27.707 25.1172C27.293 25.1172 26.9238 25.0352 26.5996 24.8711C26.2754 24.7031 26.0215 24.4785 25.8379 24.1973C25.6543 23.9121 25.5625 23.5898 25.5625 23.2305C25.5625 22.8945 25.625 22.5977 25.75 22.3398C25.8789 22.0781 26.0664 21.8594 26.3125 21.6836C26.5625 21.5078 26.8672 21.375 27.2266 21.2852C27.5859 21.1914 27.9961 21.1445 28.457 21.1445H29.5645ZM35.6602 18.6602V19.6914H32.0859V18.6602H35.6602ZM33.1172 17.1074H34.5293V23.248C34.5293 23.4434 34.5566 23.5938 34.6113 23.6992C34.6699 23.8008 34.75 23.8691 34.8516 23.9043C34.9531 23.9395 35.0723 23.957 35.209 23.957C35.3066 23.957 35.4004 23.9512 35.4902 23.9395C35.5801 23.9277 35.6523 23.916 35.707 23.9043L35.7129 24.9824C35.5957 25.0176 35.459 25.0488 35.3027 25.0762C35.1504 25.1035 34.9746 25.1172 34.7754 25.1172C34.4512 25.1172 34.1641 25.0605 33.9141 24.9473C33.6641 24.8301 33.4688 24.6406 33.3281 24.3789C33.1875 24.1172 33.1172 23.7695 33.1172 23.3359V17.1074ZM38.7617 18.6602V25H37.3438V18.6602H38.7617ZM37.25 16.9961C37.25 16.7812 37.3203 16.6035 37.4609 16.4629C37.6055 16.3184 37.8047 16.2461 38.0586 16.2461C38.3086 16.2461 38.5059 16.3184 38.6504 16.4629C38.7949 16.6035 38.8672 16.7812 38.8672 16.9961C38.8672 17.207 38.7949 17.3828 38.6504 17.5234C38.5059 17.6641 38.3086 17.7344 38.0586 17.7344C37.8047 17.7344 37.6055 17.6641 37.4609 17.5234C37.3203 17.3828 37.25 17.207 37.25 16.9961ZM40.5391 21.9004V21.7656C40.5391 21.3086 40.6055 20.8848 40.7383 20.4941C40.8711 20.0996 41.0625 19.7578 41.3125 19.4688C41.5664 19.1758 41.875 18.9492 42.2383 18.7891C42.6055 18.625 43.0195 18.543 43.4805 18.543C43.9453 18.543 44.3594 18.625 44.7227 18.7891C45.0898 18.9492 45.4004 19.1758 45.6543 19.4688C45.9082 19.7578 46.1016 20.0996 46.2344 20.4941C46.3672 20.8848 46.4336 21.3086 46.4336 21.7656V21.9004C46.4336 22.3574 46.3672 22.7812 46.2344 23.1719C46.1016 23.5625 45.9082 23.9043 45.6543 24.1973C45.4004 24.4863 45.0918 24.7129 44.7285 24.877C44.3652 25.0371 43.9531 25.1172 43.4922 25.1172C43.0273 25.1172 42.6113 25.0371 42.2441 24.877C41.8809 24.7129 41.5723 24.4863 41.3184 24.1973C41.0645 23.9043 40.8711 23.5625 40.7383 23.1719C40.6055 22.7812 40.5391 22.3574 40.5391 21.9004ZM41.9512 21.7656V21.9004C41.9512 22.1855 41.9805 22.4551 42.0391 22.709C42.0977 22.9629 42.1895 23.1855 42.3145 23.377C42.4395 23.5684 42.5996 23.7188 42.7949 23.8281C42.9902 23.9375 43.2227 23.9922 43.4922 23.9922C43.7539 23.9922 43.9805 23.9375 44.1719 23.8281C44.3672 23.7188 44.5273 23.5684 44.6523 23.377C44.7773 23.1855 44.8691 22.9629 44.9277 22.709C44.9902 22.4551 45.0215 22.1855 45.0215 21.9004V21.7656C45.0215 21.4844 44.9902 21.2188 44.9277 20.9688C44.8691 20.7148 44.7754 20.4902 44.6465 20.2949C44.5215 20.0996 44.3613 19.9473 44.166 19.8379C43.9746 19.7246 43.7461 19.668 43.4805 19.668C43.2148 19.668 42.9844 19.7246 42.7891 19.8379C42.5977 19.9473 42.4395 20.0996 42.3145 20.2949C42.1895 20.4902 42.0977 20.7148 42.0391 20.9688C41.9805 21.2188 41.9512 21.4844 41.9512 21.7656ZM49.5176 20.0137V25H48.1055V18.6602H49.4355L49.5176 20.0137ZM49.2656 21.5957L48.8086 21.5898C48.8125 21.1406 48.875 20.7285 48.9961 20.3535C49.1211 19.9785 49.293 19.6562 49.5117 19.3867C49.7344 19.1172 50 18.9102 50.3086 18.7656C50.6172 18.6172 50.9609 18.543 51.3398 18.543C51.6445 18.543 51.9199 18.5859 52.166 18.6719C52.416 18.7539 52.6289 18.8887 52.8047 19.0762C52.9844 19.2637 53.1211 19.5078 53.2148 19.8086C53.3086 20.1055 53.3555 20.4707 53.3555 20.9043V25H51.9375V20.8984C51.9375 20.5938 51.8926 20.3535 51.8027 20.1777C51.7168 19.998 51.5898 19.8711 51.4219 19.7969C51.2578 19.7188 51.0527 19.6797 50.8066 19.6797C50.5645 19.6797 50.3477 19.7305 50.1562 19.832C49.9648 19.9336 49.8027 20.0723 49.6699 20.248C49.541 20.4238 49.4414 20.627 49.3711 20.8574C49.3008 21.0879 49.2656 21.334 49.2656 21.5957ZM55.3145 24.2969C55.3145 24.0781 55.3887 23.8945 55.5371 23.7461C55.6855 23.5938 55.8867 23.5176 56.1406 23.5176C56.3984 23.5176 56.5996 23.5938 56.7441 23.7461C56.8926 23.8945 56.9668 24.0781 56.9668 24.2969C56.9668 24.5156 56.8926 24.6992 56.7441 24.8477C56.5996 24.9961 56.3984 25.0703 56.1406 25.0703C55.8867 25.0703 55.6855 24.9961 55.5371 24.8477C55.3887 24.6992 55.3145 24.5156 55.3145 24.2969ZM55.3203 19.3047C55.3203 19.0859 55.3945 18.9023 55.543 18.7539C55.6914 18.6016 55.8926 18.5254 56.1465 18.5254C56.4043 18.5254 56.6055 18.6016 56.75 18.7539C56.8984 18.9023 56.9727 19.0859 56.9727 19.3047C56.9727 19.5234 56.8984 19.707 56.75 19.8555C56.6055 20.0039 56.4043 20.0781 56.1465 20.0781C55.8926 20.0781 55.6914 20.0039 55.543 19.8555C55.3945 19.707 55.3203 19.5234 55.3203 19.3047ZM65.8184 16.4688V25H64.3594V16.4688H65.8184ZM68.4961 16.4688V17.6406H61.7051V16.4688H68.4961ZM71.375 16V25H69.9688V16H71.375ZM71.1289 21.5957L70.6719 21.5898C70.6758 21.1523 70.7363 20.748 70.8535 20.377C70.9746 20.0059 71.1426 19.6836 71.3574 19.4102C71.5762 19.1328 71.8379 18.9199 72.1426 18.7715C72.4473 18.6191 72.7852 18.543 73.1562 18.543C73.4688 18.543 73.75 18.5859 74 18.6719C74.2539 18.7578 74.4727 18.8965 74.6562 19.0879C74.8398 19.2754 74.9785 19.5215 75.0723 19.8262C75.1699 20.127 75.2188 20.4941 75.2188 20.9277V25H73.8008V20.916C73.8008 20.6113 73.7559 20.3691 73.666 20.1895C73.5801 20.0098 73.4531 19.8809 73.2852 19.8027C73.1172 19.7207 72.9121 19.6797 72.6699 19.6797C72.416 19.6797 72.1914 19.7305 71.9961 19.832C71.8047 19.9336 71.6445 20.0723 71.5156 20.248C71.3867 20.4238 71.2891 20.627 71.2227 20.8574C71.1602 21.0879 71.1289 21.334 71.1289 21.5957ZM79.9434 25.1172C79.4746 25.1172 79.0508 25.041 78.6719 24.8887C78.2969 24.7324 77.9766 24.5156 77.7109 24.2383C77.4492 23.9609 77.248 23.6348 77.1074 23.2598C76.9668 22.8848 76.8965 22.4805 76.8965 22.0469V21.8125C76.8965 21.3164 76.9688 20.8672 77.1133 20.4648C77.2578 20.0625 77.459 19.7188 77.7168 19.4336C77.9746 19.1445 78.2793 18.9238 78.6309 18.7715C78.9824 18.6191 79.3633 18.543 79.7734 18.543C80.2266 18.543 80.623 18.6191 80.9629 18.7715C81.3027 18.9238 81.584 19.1387 81.8066 19.416C82.0332 19.6895 82.2012 20.0156 82.3105 20.3945C82.4238 20.7734 82.4805 21.1914 82.4805 21.6484V22.252H77.582V21.2383H81.0859V21.127C81.0781 20.873 81.0273 20.6348 80.9336 20.4121C80.8438 20.1895 80.7051 20.0098 80.5176 19.873C80.3301 19.7363 80.0801 19.668 79.7676 19.668C79.5332 19.668 79.3242 19.7188 79.1406 19.8203C78.9609 19.918 78.8105 20.0605 78.6895 20.248C78.5684 20.4355 78.4746 20.6621 78.4082 20.9277C78.3457 21.1895 78.3145 21.4844 78.3145 21.8125V22.0469C78.3145 22.3242 78.3516 22.582 78.4258 22.8203C78.5039 23.0547 78.6172 23.2598 78.7656 23.4355C78.9141 23.6113 79.0938 23.75 79.3047 23.8516C79.5156 23.9492 79.7559 23.998 80.0254 23.998C80.3652 23.998 80.668 23.9297 80.9336 23.793C81.1992 23.6562 81.4297 23.4629 81.625 23.2129L82.3691 23.9336C82.2324 24.1328 82.0547 24.3242 81.8359 24.5078C81.6172 24.6875 81.3496 24.834 81.0332 24.9473C80.7207 25.0605 80.3574 25.1172 79.9434 25.1172ZM92.75 22.2227H94.2148C94.168 22.7812 94.0117 23.2793 93.7461 23.7168C93.4805 24.1504 93.1074 24.4922 92.627 24.7422C92.1465 24.9922 91.5625 25.1172 90.875 25.1172C90.3477 25.1172 89.873 25.0234 89.4512 24.8359C89.0293 24.6445 88.668 24.375 88.3672 24.0273C88.0664 23.6758 87.8359 23.252 87.6758 22.7559C87.5195 22.2598 87.4414 21.7051 87.4414 21.0918V20.3828C87.4414 19.7695 87.5215 19.2148 87.6816 18.7188C87.8457 18.2227 88.0801 17.7988 88.3848 17.4473C88.6895 17.0918 89.0547 16.8203 89.4805 16.6328C89.9102 16.4453 90.3926 16.3516 90.9277 16.3516C91.6074 16.3516 92.1816 16.4766 92.6504 16.7266C93.1191 16.9766 93.4824 17.3223 93.7402 17.7637C94.002 18.2051 94.1621 18.7109 94.2207 19.2812H92.7559C92.7168 18.9141 92.6309 18.5996 92.498 18.3379C92.3691 18.0762 92.1777 17.877 91.9238 17.7402C91.6699 17.5996 91.3379 17.5293 90.9277 17.5293C90.5918 17.5293 90.2988 17.5918 90.0488 17.7168C89.7988 17.8418 89.5898 18.0254 89.4219 18.2676C89.2539 18.5098 89.127 18.8086 89.041 19.1641C88.959 19.5156 88.918 19.918 88.918 20.3711V21.0918C88.918 21.5215 88.9551 21.9121 89.0293 22.2637C89.1074 22.6113 89.2246 22.9102 89.3809 23.1602C89.541 23.4102 89.7441 23.6035 89.9902 23.7402C90.2363 23.877 90.5312 23.9453 90.875 23.9453C91.293 23.9453 91.6309 23.8789 91.8887 23.7461C92.1504 23.6133 92.3477 23.4199 92.4805 23.166C92.6172 22.9082 92.707 22.5938 92.75 22.2227ZM95.6406 21.9004V21.7656C95.6406 21.3086 95.707 20.8848 95.8398 20.4941C95.9727 20.0996 96.1641 19.7578 96.4141 19.4688C96.668 19.1758 96.9766 18.9492 97.3398 18.7891C97.707 18.625 98.1211 18.543 98.582 18.543C99.0469 18.543 99.4609 18.625 99.8242 18.7891C100.191 18.9492 100.502 19.1758 100.756 19.4688C101.01 19.7578 101.203 20.0996 101.336 20.4941C101.469 20.8848 101.535 21.3086 101.535 21.7656V21.9004C101.535 22.3574 101.469 22.7812 101.336 23.1719C101.203 23.5625 101.01 23.9043 100.756 24.1973C100.502 24.4863 100.193 24.7129 99.8301 24.877C99.4668 25.0371 99.0547 25.1172 98.5938 25.1172C98.1289 25.1172 97.7129 25.0371 97.3457 24.877C96.9824 24.7129 96.6738 24.4863 96.4199 24.1973C96.166 23.9043 95.9727 23.5625 95.8398 23.1719C95.707 22.7812 95.6406 22.3574 95.6406 21.9004ZM97.0527 21.7656V21.9004C97.0527 22.1855 97.082 22.4551 97.1406 22.709C97.1992 22.9629 97.291 23.1855 97.416 23.377C97.541 23.5684 97.7012 23.7188 97.8965 23.8281C98.0918 23.9375 98.3242 23.9922 98.5938 23.9922C98.8555 23.9922 99.082 23.9375 99.2734 23.8281C99.4688 23.7188 99.6289 23.5684 99.7539 23.377C99.8789 23.1855 99.9707 22.9629 100.029 22.709C100.092 22.4551 100.123 22.1855 100.123 21.9004V21.7656C100.123 21.4844 100.092 21.2188 100.029 20.9688C99.9707 20.7148 99.877 20.4902 99.748 20.2949C99.623 20.0996 99.4629 19.9473 99.2676 19.8379C99.0762 19.7246 98.8477 19.668 98.582 19.668C98.3164 19.668 98.0859 19.7246 97.8906 19.8379C97.6992 19.9473 97.541 20.0996 97.416 20.2949C97.291 20.4902 97.1992 20.7148 97.1406 20.9688C97.082 21.2188 97.0527 21.4844 97.0527 21.7656ZM104.73 16V25H103.312V16H104.73ZM106.508 21.9004V21.7656C106.508 21.3086 106.574 20.8848 106.707 20.4941C106.84 20.0996 107.031 19.7578 107.281 19.4688C107.535 19.1758 107.844 18.9492 108.207 18.7891C108.574 18.625 108.988 18.543 109.449 18.543C109.914 18.543 110.328 18.625 110.691 18.7891C111.059 18.9492 111.369 19.1758 111.623 19.4688C111.877 19.7578 112.07 20.0996 112.203 20.4941C112.336 20.8848 112.402 21.3086 112.402 21.7656V21.9004C112.402 22.3574 112.336 22.7812 112.203 23.1719C112.07 23.5625 111.877 23.9043 111.623 24.1973C111.369 24.4863 111.061 24.7129 110.697 24.877C110.334 25.0371 109.922 25.1172 109.461 25.1172C108.996 25.1172 108.58 25.0371 108.213 24.877C107.85 24.7129 107.541 24.4863 107.287 24.1973C107.033 23.9043 106.84 23.5625 106.707 23.1719C106.574 22.7812 106.508 22.3574 106.508 21.9004ZM107.92 21.7656V21.9004C107.92 22.1855 107.949 22.4551 108.008 22.709C108.066 22.9629 108.158 23.1855 108.283 23.377C108.408 23.5684 108.568 23.7188 108.764 23.8281C108.959 23.9375 109.191 23.9922 109.461 23.9922C109.723 23.9922 109.949 23.9375 110.141 23.8281C110.336 23.7188 110.496 23.5684 110.621 23.377C110.746 23.1855 110.838 22.9629 110.896 22.709C110.959 22.4551 110.99 22.1855 110.99 21.9004V21.7656C110.99 21.4844 110.959 21.2188 110.896 20.9688C110.838 20.7148 110.744 20.4902 110.615 20.2949C110.49 20.0996 110.33 19.9473 110.135 19.8379C109.943 19.7246 109.715 19.668 109.449 19.668C109.184 19.668 108.953 19.7246 108.758 19.8379C108.566 19.9473 108.408 20.0996 108.283 20.2949C108.158 20.4902 108.066 20.7148 108.008 20.9688C107.949 21.2188 107.92 21.4844 107.92 21.7656ZM117.643 23.2832C117.643 23.1426 117.607 23.0156 117.537 22.9023C117.467 22.7852 117.332 22.6797 117.133 22.5859C116.938 22.4922 116.648 22.4062 116.266 22.3281C115.93 22.2539 115.621 22.166 115.34 22.0645C115.062 21.959 114.824 21.832 114.625 21.6836C114.426 21.5352 114.271 21.3594 114.162 21.1562C114.053 20.9531 113.998 20.7188 113.998 20.4531C113.998 20.1953 114.055 19.9512 114.168 19.7207C114.281 19.4902 114.443 19.2871 114.654 19.1113C114.865 18.9355 115.121 18.7969 115.422 18.6953C115.727 18.5938 116.066 18.543 116.441 18.543C116.973 18.543 117.428 18.6328 117.807 18.8125C118.189 18.9883 118.482 19.2285 118.686 19.5332C118.889 19.834 118.99 20.1738 118.99 20.5527H117.578C117.578 20.3848 117.535 20.2285 117.449 20.084C117.367 19.9355 117.242 19.8164 117.074 19.7266C116.906 19.6328 116.695 19.5859 116.441 19.5859C116.199 19.5859 115.998 19.625 115.838 19.7031C115.682 19.7773 115.564 19.875 115.486 19.9961C115.412 20.1172 115.375 20.25 115.375 20.3945C115.375 20.5 115.395 20.5957 115.434 20.6816C115.477 20.7637 115.547 20.8398 115.645 20.9102C115.742 20.9766 115.875 21.0391 116.043 21.0977C116.215 21.1562 116.43 21.2129 116.688 21.2676C117.172 21.3691 117.588 21.5 117.936 21.6602C118.287 21.8164 118.557 22.0195 118.744 22.2695C118.932 22.5156 119.025 22.8281 119.025 23.207C119.025 23.4883 118.965 23.7461 118.844 23.9805C118.727 24.2109 118.555 24.4121 118.328 24.584C118.102 24.752 117.83 24.8828 117.514 24.9766C117.201 25.0703 116.85 25.1172 116.459 25.1172C115.885 25.1172 115.398 25.0156 115 24.8125C114.602 24.6055 114.299 24.3418 114.092 24.0215C113.889 23.6973 113.787 23.3613 113.787 23.0137H115.152C115.168 23.2754 115.24 23.4844 115.369 23.6406C115.502 23.793 115.666 23.9043 115.861 23.9746C116.061 24.041 116.266 24.0742 116.477 24.0742C116.73 24.0742 116.943 24.041 117.115 23.9746C117.287 23.9043 117.418 23.8105 117.508 23.6934C117.598 23.5723 117.643 23.4355 117.643 23.2832ZM124.318 23.2832C124.318 23.1426 124.283 23.0156 124.213 22.9023C124.143 22.7852 124.008 22.6797 123.809 22.5859C123.613 22.4922 123.324 22.4062 122.941 22.3281C122.605 22.2539 122.297 22.166 122.016 22.0645C121.738 21.959 121.5 21.832 121.301 21.6836C121.102 21.5352 120.947 21.3594 120.838 21.1562C120.729 20.9531 120.674 20.7188 120.674 20.4531C120.674 20.1953 120.73 19.9512 120.844 19.7207C120.957 19.4902 121.119 19.2871 121.33 19.1113C121.541 18.9355 121.797 18.7969 122.098 18.6953C122.402 18.5938 122.742 18.543 123.117 18.543C123.648 18.543 124.104 18.6328 124.482 18.8125C124.865 18.9883 125.158 19.2285 125.361 19.5332C125.564 19.834 125.666 20.1738 125.666 20.5527H124.254C124.254 20.3848 124.211 20.2285 124.125 20.084C124.043 19.9355 123.918 19.8164 123.75 19.7266C123.582 19.6328 123.371 19.5859 123.117 19.5859C122.875 19.5859 122.674 19.625 122.514 19.7031C122.357 19.7773 122.24 19.875 122.162 19.9961C122.088 20.1172 122.051 20.25 122.051 20.3945C122.051 20.5 122.07 20.5957 122.109 20.6816C122.152 20.7637 122.223 20.8398 122.32 20.9102C122.418 20.9766 122.551 21.0391 122.719 21.0977C122.891 21.1562 123.105 21.2129 123.363 21.2676C123.848 21.3691 124.264 21.5 124.611 21.6602C124.963 21.8164 125.232 22.0195 125.42 22.2695C125.607 22.5156 125.701 22.8281 125.701 23.207C125.701 23.4883 125.641 23.7461 125.52 23.9805C125.402 24.2109 125.23 24.4121 125.004 24.584C124.777 24.752 124.506 24.8828 124.189 24.9766C123.877 25.0703 123.525 25.1172 123.135 25.1172C122.561 25.1172 122.074 25.0156 121.676 24.8125C121.277 24.6055 120.975 24.3418 120.768 24.0215C120.564 23.6973 120.463 23.3613 120.463 23.0137H121.828C121.844 23.2754 121.916 23.4844 122.045 23.6406C122.178 23.793 122.342 23.9043 122.537 23.9746C122.736 24.041 122.941 24.0742 123.152 24.0742C123.406 24.0742 123.619 24.041 123.791 23.9746C123.963 23.9043 124.094 23.8105 124.184 23.6934C124.273 23.5723 124.318 23.4355 124.318 23.2832ZM130.232 25.1172C129.764 25.1172 129.34 25.041 128.961 24.8887C128.586 24.7324 128.266 24.5156 128 24.2383C127.738 23.9609 127.537 23.6348 127.396 23.2598C127.256 22.8848 127.186 22.4805 127.186 22.0469V21.8125C127.186 21.3164 127.258 20.8672 127.402 20.4648C127.547 20.0625 127.748 19.7188 128.006 19.4336C128.264 19.1445 128.568 18.9238 128.92 18.7715C129.271 18.6191 129.652 18.543 130.062 18.543C130.516 18.543 130.912 18.6191 131.252 18.7715C131.592 18.9238 131.873 19.1387 132.096 19.416C132.322 19.6895 132.49 20.0156 132.6 20.3945C132.713 20.7734 132.77 21.1914 132.77 21.6484V22.252H127.871V21.2383H131.375V21.127C131.367 20.873 131.316 20.6348 131.223 20.4121C131.133 20.1895 130.994 20.0098 130.807 19.873C130.619 19.7363 130.369 19.668 130.057 19.668C129.822 19.668 129.613 19.7188 129.43 19.8203C129.25 19.918 129.1 20.0605 128.979 20.248C128.857 20.4355 128.764 20.6621 128.697 20.9277C128.635 21.1895 128.604 21.4844 128.604 21.8125V22.0469C128.604 22.3242 128.641 22.582 128.715 22.8203C128.793 23.0547 128.906 23.2598 129.055 23.4355C129.203 23.6113 129.383 23.75 129.594 23.8516C129.805 23.9492 130.045 23.998 130.314 23.998C130.654 23.998 130.957 23.9297 131.223 23.793C131.488 23.6562 131.719 23.4629 131.914 23.2129L132.658 23.9336C132.521 24.1328 132.344 24.3242 132.125 24.5078C131.906 24.6875 131.639 24.834 131.322 24.9473C131.01 25.0605 130.646 25.1172 130.232 25.1172ZM138.186 23.5059V18.6602H139.604V25H138.268L138.186 23.5059ZM138.385 22.1875L138.859 22.1758C138.859 22.6016 138.812 22.9941 138.719 23.3535C138.625 23.709 138.48 24.0195 138.285 24.2852C138.09 24.5469 137.84 24.752 137.535 24.9004C137.23 25.0449 136.865 25.1172 136.439 25.1172C136.131 25.1172 135.848 25.0723 135.59 24.9824C135.332 24.8926 135.109 24.7539 134.922 24.5664C134.738 24.3789 134.596 24.1348 134.494 23.834C134.393 23.5332 134.342 23.1738 134.342 22.7559V18.6602H135.754V22.7676C135.754 22.998 135.781 23.1914 135.836 23.3477C135.891 23.5 135.965 23.623 136.059 23.7168C136.152 23.8105 136.262 23.877 136.387 23.916C136.512 23.9551 136.645 23.9746 136.785 23.9746C137.188 23.9746 137.504 23.8965 137.734 23.7402C137.969 23.5801 138.135 23.3652 138.232 23.0957C138.334 22.8262 138.385 22.5234 138.385 22.1875ZM142.963 19.9492V25H141.551V18.6602H142.881L142.963 19.9492ZM142.734 21.5957L142.254 21.5898C142.254 21.1523 142.309 20.748 142.418 20.377C142.527 20.0059 142.688 19.6836 142.898 19.4102C143.109 19.1328 143.371 18.9199 143.684 18.7715C144 18.6191 144.365 18.543 144.779 18.543C145.068 18.543 145.332 18.5859 145.57 18.6719C145.812 18.7539 146.021 18.8848 146.197 19.0645C146.377 19.2441 146.514 19.4746 146.607 19.7559C146.705 20.0371 146.754 20.377 146.754 20.7754V25H145.342V20.8984C145.342 20.5898 145.295 20.3477 145.201 20.1719C145.111 19.9961 144.98 19.8711 144.809 19.7969C144.641 19.7188 144.439 19.6797 144.205 19.6797C143.939 19.6797 143.713 19.7305 143.525 19.832C143.342 19.9336 143.191 20.0723 143.074 20.248C142.957 20.4238 142.871 20.627 142.816 20.8574C142.762 21.0879 142.734 21.334 142.734 21.5957ZM146.666 21.2207L146.004 21.3672C146.004 20.9844 146.057 20.623 146.162 20.2832C146.271 19.9395 146.43 19.6387 146.637 19.3809C146.848 19.1191 147.107 18.9141 147.416 18.7656C147.725 18.6172 148.078 18.543 148.477 18.543C148.801 18.543 149.09 18.5879 149.344 18.6777C149.602 18.7637 149.82 18.9004 150 19.0879C150.18 19.2754 150.316 19.5195 150.41 19.8203C150.504 20.1172 150.551 20.4766 150.551 20.8984V25H149.133V20.8926C149.133 20.5723 149.086 20.3242 148.992 20.1484C148.902 19.9727 148.773 19.8516 148.605 19.7852C148.438 19.7148 148.236 19.6797 148.002 19.6797C147.783 19.6797 147.59 19.7207 147.422 19.8027C147.258 19.8809 147.119 19.9922 147.006 20.1367C146.893 20.2773 146.807 20.4395 146.748 20.623C146.693 20.8066 146.666 21.0059 146.666 21.2207ZM153.828 23.6406L153.822 24.6484C153.822 25.0469 153.723 25.457 153.523 25.8789C153.324 26.3008 153.061 26.6484 152.732 26.9219L151.977 26.4824C152.086 26.3066 152.186 26.1289 152.275 25.9492C152.365 25.7695 152.438 25.5781 152.492 25.375C152.547 25.1719 152.574 24.9473 152.574 24.7012V23.6406H153.828ZM160.887 16.4688V25H159.416V16.4688H160.887ZM165.98 18.6602V19.6914H162.406V18.6602H165.98ZM163.438 17.1074H164.85V23.248C164.85 23.4434 164.877 23.5938 164.932 23.6992C164.99 23.8008 165.07 23.8691 165.172 23.9043C165.273 23.9395 165.393 23.957 165.529 23.957C165.627 23.957 165.721 23.9512 165.811 23.9395C165.9 23.9277 165.973 23.916 166.027 23.9043L166.033 24.9824C165.916 25.0176 165.779 25.0488 165.623 25.0762C165.471 25.1035 165.295 25.1172 165.096 25.1172C164.771 25.1172 164.484 25.0605 164.234 24.9473C163.984 24.8301 163.789 24.6406 163.648 24.3789C163.508 24.1172 163.438 23.7695 163.438 23.3359V17.1074ZM171.145 23.7285V20.7051C171.145 20.4785 171.104 20.2832 171.021 20.1191C170.939 19.9551 170.814 19.8281 170.646 19.7383C170.482 19.6484 170.275 19.6035 170.025 19.6035C169.795 19.6035 169.596 19.6426 169.428 19.7207C169.26 19.7988 169.129 19.9043 169.035 20.0371C168.941 20.1699 168.895 20.3203 168.895 20.4883H167.488C167.488 20.2383 167.549 19.9961 167.67 19.7617C167.791 19.5273 167.967 19.3184 168.197 19.1348C168.428 18.9512 168.703 18.8066 169.023 18.7012C169.344 18.5957 169.703 18.543 170.102 18.543C170.578 18.543 171 18.623 171.367 18.7832C171.738 18.9434 172.029 19.1855 172.24 19.5098C172.455 19.8301 172.562 20.2324 172.562 20.7168V23.5352C172.562 23.8242 172.582 24.084 172.621 24.3145C172.664 24.541 172.725 24.7383 172.803 24.9062V25H171.355C171.289 24.8477 171.236 24.6543 171.197 24.4199C171.162 24.1816 171.145 23.9512 171.145 23.7285ZM171.35 21.1445L171.361 22.0176H170.348C170.086 22.0176 169.855 22.043 169.656 22.0938C169.457 22.1406 169.291 22.2109 169.158 22.3047C169.025 22.3984 168.926 22.5117 168.859 22.6445C168.793 22.7773 168.76 22.9277 168.76 23.0957C168.76 23.2637 168.799 23.418 168.877 23.5586C168.955 23.6953 169.068 23.8027 169.217 23.8809C169.369 23.959 169.553 23.998 169.768 23.998C170.057 23.998 170.309 23.9395 170.523 23.8223C170.742 23.7012 170.914 23.5547 171.039 23.3828C171.164 23.207 171.23 23.041 171.238 22.8848L171.695 23.5117C171.648 23.6719 171.568 23.8438 171.455 24.0273C171.342 24.2109 171.193 24.3867 171.01 24.5547C170.83 24.7188 170.613 24.8535 170.359 24.959C170.109 25.0645 169.82 25.1172 169.492 25.1172C169.078 25.1172 168.709 25.0352 168.385 24.8711C168.061 24.7031 167.807 24.4785 167.623 24.1973C167.439 23.9121 167.348 23.5898 167.348 23.2305C167.348 22.8945 167.41 22.5977 167.535 22.3398C167.664 22.0781 167.852 21.8594 168.098 21.6836C168.348 21.5078 168.652 21.375 169.012 21.2852C169.371 21.1914 169.781 21.1445 170.242 21.1445H171.35ZM176.051 16V25H174.633V16H176.051ZM179.938 24.3086L181.66 18.6602H183.172L180.629 25.9668C180.57 26.123 180.494 26.293 180.4 26.4766C180.307 26.6602 180.184 26.834 180.031 26.998C179.883 27.166 179.697 27.3008 179.475 27.4023C179.252 27.5078 178.982 27.5605 178.666 27.5605C178.541 27.5605 178.42 27.5488 178.303 27.5254C178.189 27.5059 178.082 27.4844 177.98 27.4609L177.975 26.3828C178.014 26.3867 178.061 26.3906 178.115 26.3945C178.174 26.3984 178.221 26.4004 178.256 26.4004C178.49 26.4004 178.686 26.3711 178.842 26.3125C178.998 26.2578 179.125 26.168 179.223 26.043C179.324 25.918 179.41 25.75 179.48 25.5391L179.938 24.3086ZM178.965 18.6602L180.471 23.4062L180.723 24.8945L179.744 25.1465L177.441 18.6602H178.965Z" fill="white"/>
</g>
<defs>
<filter id="filter0_d_105_242" x="0.439453" y="0" width="186.732" height="35.5605" filterUnits="userSpaceOnUse" color-interpolation-filters="sRGB">
<feFlood flood-opacity="0" result="BackgroundImageFix"/>
<feColorMatrix in="SourceAlpha" type="matrix" values="0 0 0 0 0 0 0 0 0 0 0 0 0 0 0 0 0 0 127 0" result="hardAlpha"/>
<feOffset dy="4"/>
<feGaussianBlur stdDeviation="2"/>
<feComposite in2="hardAlpha" operator="out"/>
<feColorMatrix type="matrix" values="0 0 0 0 0 0 0 0 0 0 0 0 0 0 0 0 0 0 0.25 0"/>
<feBlend mode="normal" in2="BackgroundImageFix" result="effect1_dropShadow_105_242"/>
<feBlend mode="normal" in="SourceGraphic" in2="effect1_dropShadow_105_242" result="shape"/>
</filter>
</defs>
</svg>
